<svg width="193" height="53" viewBox="0 0 193 53" fill="none" xmlns="http://www.w3.org/2000/svg">
<path d="M12.1414 33.7215C8.02391 30.9132 5.32112 26.2044 5.32112 20.8622C5.32112 12.2681 12.3104 5.3 20.8833 5.3C22.0657 5.3 23.2271 5.44781 24.3251 5.68008L26.4578 0.760159C24.6841 0.274502 22.8048 0 20.8622 0C9.35419 0 0 9.35419 0 20.8622C0 28.3793 3.99084 34.9673 9.96654 38.6414L12.1414 33.7215Z" fill="white"/>
<path d="M30.3853 20.841C30.3853 26.0776 26.1411 30.3219 20.9045 30.3219C15.6678 30.3219 11.4236 26.0776 11.4236 20.841C11.4236 15.6043 15.6678 11.3601 20.9045 11.3601C26.1411 11.3812 30.3853 15.6254 30.3853 20.841Z" fill="white"/>
<path d="M21.2845 41.7031C32.6025 41.4919 41.7666 32.2222 41.7666 20.8621C41.7666 13.3449 37.7758 6.75687 31.8001 3.08276L29.6463 7.98157C33.7638 10.7899 36.4666 15.4987 36.4666 20.8409C36.4666 29.4138 29.4774 36.4031 20.9044 36.4031C19.722 36.4031 18.5606 36.2553 17.4626 36.023L12.2893 47.9322H18.6029L21.2845 41.7031Z" fill="white"/>
<path d="M27.8303 53C29.5829 53 30.9765 51.5852 30.9765 49.8537C30.9765 48.1223 29.5829 46.7075 27.8303 46.7075C26.0777 46.7075 24.6841 48.1011 24.6841 49.8537C24.663 51.5852 26.0777 53 27.8303 53ZM27.8303 47.1509C29.3295 47.1509 30.5331 48.3334 30.5331 49.8537C30.5331 51.3741 29.3295 52.5776 27.8303 52.5776C26.3311 52.5776 25.1064 51.3318 25.1064 49.8537C25.1064 48.3756 26.3311 47.1509 27.8303 47.1509ZM28.696 51.6697H29.2873L28.3159 50.2338C28.5271 50.2338 29.245 49.9593 29.245 49.1569C29.245 48.4812 28.7171 48.0589 28.1048 48.0589H26.6267V51.6697H27.1124V50.2338H27.7669L28.696 51.6697ZM28.0837 48.4812C28.4215 48.4812 28.7383 48.7557 28.7383 49.1569C28.7383 49.537 28.4215 49.7904 28.0837 49.7904H27.0912V48.4812H28.0837Z" fill="white"/>
<path d="M68.2664 9.8821L66.4716 9.01636C66.2604 9.43867 65.9437 9.77652 65.5214 10.051C65.0991 10.3255 64.6134 10.4522 64.0855 10.4522C63.2198 10.4522 62.523 10.1355 61.9318 9.52313C61.3616 8.91078 61.0871 8.15062 61.0871 7.22154C61.0871 6.29245 61.3616 5.5323 61.9318 4.91994C62.5019 4.30759 63.2198 4.01198 64.0855 4.01198C64.6134 4.01198 65.0991 4.13867 65.5214 4.41317C65.9437 4.66656 66.2604 5.02552 66.4716 5.42672L68.2664 4.53986C68.0764 4.20202 67.8652 3.9064 67.6329 3.65301C67.4007 3.37851 67.1051 3.12512 66.7672 2.89285C66.4294 2.66058 66.0282 2.47054 65.5847 2.34385C65.1202 2.21716 64.6345 2.15381 64.0855 2.15381C63.3676 2.15381 62.713 2.2805 62.0796 2.53389C61.4461 2.78727 60.8971 3.12512 60.4326 3.56855C59.968 4.01198 59.609 4.53986 59.3345 5.17333C59.06 5.8068 58.9333 6.50361 58.9333 7.24265C58.9333 7.9817 59.06 8.6574 59.3345 9.31198C59.609 9.94544 59.968 10.4944 60.4326 10.9379C60.8971 11.3813 61.4461 11.7191 62.0796 11.9725C62.713 12.2259 63.3887 12.3526 64.0855 12.3526C65.9437 12.3104 67.3373 11.4869 68.2664 9.8821Z" fill="white"/>
<path d="M73.0386 11.8459L72.6374 10.4311C72.5952 10.4734 72.5107 10.5367 72.384 10.5789C72.2573 10.6212 72.1307 10.6423 72.004 10.6423C71.7928 10.6423 71.645 10.5789 71.5394 10.4311C71.4338 10.2833 71.3705 10.0933 71.3705 9.88212V2.32275H69.4912V10.3678C69.4912 11.0012 69.6601 11.4869 69.998 11.8247C70.3358 12.1626 70.8426 12.3315 71.4972 12.3315C72.1729 12.3104 72.7008 12.1415 73.0386 11.8459Z" fill="white"/>
<path d="M75.6148 3.63196C75.8259 3.42081 75.9315 3.14631 75.9315 2.85069C75.9315 2.53396 75.8259 2.28057 75.5936 2.0483C75.3825 1.83714 75.108 1.71045 74.7912 1.71045C74.4956 1.71045 74.2211 1.81603 74.01 2.0483C73.7777 2.25945 73.6721 2.53396 73.6721 2.85069C73.6721 3.14631 73.7777 3.42081 74.01 3.63196C74.2422 3.84312 74.4956 3.9487 74.7912 3.9487C75.1291 3.96981 75.3825 3.86423 75.6148 3.63196ZM75.7626 12.1204V5.00447H73.8833V12.1204H75.7626Z" fill="white"/>
<path d="M88.3263 12.1203V6.98923C88.3263 6.27131 88.1363 5.74342 87.7773 5.38445C87.4183 5.02549 86.8904 4.83545 86.2359 4.83545C85.7291 4.83545 85.2434 4.96214 84.8 5.21553C84.3566 5.46892 84.0187 5.76453 83.7865 6.1235C83.6598 5.70119 83.4275 5.38445 83.0897 5.1733C82.7518 4.94103 82.3295 4.83545 81.8227 4.83545C81.3159 4.83545 80.8514 4.96214 80.408 5.19441C79.9645 5.42668 79.6689 5.68007 79.4789 5.93346V5.00437H77.5996V12.1203H79.4789V7.32708C79.6478 7.09481 79.8379 6.90477 80.1124 6.73585C80.3657 6.56692 80.6614 6.48246 80.957 6.48246C81.6538 6.48246 82.0128 6.86254 82.0128 7.60159V12.1203H83.9132V7.30597C84.061 7.09481 84.2721 6.90477 84.5255 6.73585C84.7789 6.56692 85.0745 6.48246 85.3701 6.48246C85.7291 6.48246 86.0036 6.58804 86.1725 6.77808C86.3414 6.96812 86.4259 7.24262 86.4259 7.60159V12.1203H88.3263Z" fill="white"/>
<path d="M96.9415 12.1204V5.00449H95.0622V5.91246C94.7877 5.5535 94.4499 5.279 94.0698 5.08896C93.6897 4.89892 93.2885 4.81445 92.8662 4.81445C91.9371 4.81445 91.1769 5.1523 90.6068 5.828C90.0156 6.5037 89.72 7.41166 89.72 8.5519C89.72 9.69214 90.0156 10.6212 90.6068 11.2969C91.1981 11.9515 91.9582 12.2894 92.8662 12.2894C93.7742 12.2894 94.471 11.9304 95.0622 11.2125V12.0993H96.9415V12.1204ZM94.3654 10.4101C94.0698 10.5579 93.753 10.6212 93.4363 10.6212C92.9084 10.6212 92.4861 10.4312 92.1483 10.0511C91.8104 9.67103 91.6415 9.16425 91.6415 8.5519C91.6415 7.93955 91.8104 7.4539 92.1483 7.07382C92.4861 6.69374 92.9084 6.5037 93.4574 6.5037C93.7742 6.5037 94.0698 6.58816 94.3865 6.73597C94.6821 6.88378 94.9144 7.07382 95.0833 7.3272V9.83995C94.9144 10.0722 94.6821 10.2623 94.3654 10.4101Z" fill="white"/>
<path d="M102.769 11.8458L102.368 10.4311C102.326 10.4733 102.22 10.5367 102.094 10.5789C101.967 10.6211 101.84 10.6423 101.714 10.6423C101.523 10.6423 101.355 10.5789 101.249 10.4311C101.143 10.2833 101.08 10.0932 101.08 9.88209V6.67253H102.516V5.04663H101.08V3.104H99.2008V5.04663H98.0183V6.67253H99.2008V10.3889C99.2008 11.0223 99.3697 11.508 99.7287 11.8458C100.067 12.1837 100.573 12.3526 101.228 12.3526C101.904 12.3104 102.431 12.1415 102.769 11.8458Z" fill="white"/>
<path d="M104.437 11.2757C105.155 11.9514 106.063 12.3104 107.161 12.3104C107.731 12.3104 108.28 12.2259 108.787 12.057C109.294 11.888 109.737 11.6347 110.075 11.3179L109.252 10.1143C109.041 10.3255 108.745 10.4944 108.386 10.6422C108.027 10.7689 107.689 10.8323 107.351 10.8323C106.76 10.8323 106.296 10.6845 105.937 10.3677C105.578 10.051 105.366 9.64979 105.303 9.18525H110.582V8.74182C110.582 7.58047 110.244 6.63027 109.59 5.91234C108.935 5.19441 108.069 4.83545 107.013 4.83545C106.317 4.83545 105.662 5.00437 105.113 5.34222C104.543 5.68007 104.1 6.1235 103.804 6.69362C103.487 7.26374 103.339 7.87609 103.339 8.5729C103.36 9.67091 103.719 10.5789 104.437 11.2757ZM107.816 6.46135C108.048 6.56692 108.238 6.69362 108.365 6.84143C108.492 7.01035 108.597 7.17927 108.66 7.3482C108.724 7.51712 108.766 7.70716 108.787 7.87609H105.282C105.303 7.68605 105.345 7.49601 105.43 7.32708C105.514 7.15816 105.62 6.98923 105.747 6.82031C105.873 6.65139 106.063 6.52469 106.274 6.44023C106.507 6.33465 106.739 6.29242 107.035 6.29242C107.33 6.31354 107.605 6.37688 107.816 6.46135Z" fill="white"/>
<path d="M114.108 12.1204V8.59406H116.621C117.128 8.59406 117.613 8.5096 118.036 8.34068C118.458 8.17175 118.796 7.9606 119.07 7.66498C119.345 7.36936 119.556 7.05263 119.704 6.67255C119.852 6.29247 119.915 5.89127 119.915 5.44785C119.915 5.00442 119.831 4.60323 119.704 4.22315C119.556 3.84307 119.345 3.50522 119.07 3.2096C118.796 2.91398 118.458 2.70283 118.036 2.5339C117.613 2.36498 117.149 2.28052 116.621 2.28052H112.018V12.1204H114.108ZM117.36 6.44028C117.086 6.69367 116.748 6.82036 116.325 6.82036H114.108V4.09645H116.325C116.748 4.09645 117.086 4.22315 117.36 4.47653C117.635 4.72992 117.782 5.04665 117.782 5.44785C117.782 5.84904 117.635 6.18689 117.36 6.44028Z" fill="white"/>
<path d="M127.686 12.1204V5.00449H125.806V5.91246C125.532 5.5535 125.194 5.279 124.814 5.08896C124.434 4.89892 124.033 4.81445 123.61 4.81445C122.681 4.81445 121.921 5.1523 121.351 5.828C120.76 6.5037 120.464 7.41166 120.464 8.5519C120.464 9.69214 120.76 10.6212 121.351 11.2969C121.942 11.9515 122.702 12.2894 123.61 12.2894C124.518 12.2894 125.215 11.9304 125.806 11.2125V12.0993H127.686V12.1204ZM125.11 10.4101C124.814 10.5579 124.497 10.6212 124.18 10.6212C123.653 10.6212 123.23 10.4312 122.892 10.0511C122.555 9.67103 122.386 9.16425 122.386 8.5519C122.386 7.93955 122.555 7.4539 122.892 7.07382C123.23 6.69374 123.653 6.5037 124.202 6.5037C124.518 6.5037 124.814 6.58816 125.131 6.73597C125.426 6.88378 125.659 7.07382 125.827 7.3272V9.83995C125.637 10.0722 125.405 10.2623 125.11 10.4101Z" fill="white"/>
<path d="M131.423 12.1202V7.43254C131.571 7.22139 131.824 7.03135 132.183 6.86242C132.542 6.71461 132.859 6.63015 133.176 6.63015C133.387 6.63015 133.556 6.65127 133.704 6.67238V4.85645C133.281 4.85645 132.859 4.96202 132.437 5.17318C132.036 5.38433 131.698 5.65884 131.423 5.99668V5.02537H129.544V12.1202H131.423Z" fill="white"/>
<path d="M138.813 11.8458L138.412 10.4311C138.37 10.4733 138.264 10.5367 138.138 10.5789C138.011 10.6211 137.884 10.6423 137.758 10.6423C137.568 10.6423 137.399 10.5789 137.293 10.4311C137.188 10.2833 137.124 10.0932 137.124 9.88209V6.67253H138.56V5.04663H137.124V3.104H135.245V5.04663H134.062V6.67253H135.245V10.3889C135.245 11.0223 135.414 11.508 135.773 11.8458C136.111 12.1837 136.617 12.3526 137.272 12.3526C137.969 12.3104 138.476 12.1415 138.813 11.8458Z" fill="white"/>
<path d="M146.542 12.1203V7.09481C146.542 6.37688 146.352 5.82788 145.951 5.42668C145.571 5.02549 144.979 4.83545 144.219 4.83545C143.691 4.83545 143.206 4.94103 142.762 5.15218C142.34 5.36334 141.981 5.63784 141.728 5.93346V5.00437H139.869V12.1203H141.749V7.32708C141.918 7.09481 142.15 6.88366 142.424 6.73585C142.699 6.56692 143.016 6.50358 143.353 6.50358C143.776 6.50358 144.092 6.60915 144.325 6.82031C144.557 7.03147 144.663 7.36931 144.663 7.83386V12.1203H146.542Z" fill="white"/>
<path d="M149.012 11.2757C149.73 11.9514 150.638 12.3104 151.736 12.3104C152.306 12.3104 152.855 12.2259 153.362 12.057C153.869 11.888 154.312 11.6347 154.65 11.3179L153.827 10.1143C153.616 10.3255 153.32 10.4944 152.961 10.6422C152.602 10.7689 152.264 10.8323 151.926 10.8323C151.335 10.8323 150.871 10.6845 150.512 10.3677C150.153 10.051 149.942 9.64979 149.878 9.18525H155.157V8.74182C155.157 7.58047 154.819 6.63027 154.165 5.91234C153.51 5.19441 152.644 4.83545 151.589 4.83545C150.892 4.83545 150.237 5.00437 149.688 5.34222C149.118 5.68007 148.675 6.1235 148.379 6.69362C148.062 7.26374 147.914 7.87609 147.914 8.5729C147.957 9.67091 148.316 10.5789 149.012 11.2757ZM152.412 6.46135C152.644 6.56692 152.834 6.69362 152.961 6.84143C153.088 7.01035 153.193 7.17927 153.257 7.3482C153.32 7.51712 153.362 7.70716 153.383 7.87609H149.878C149.899 7.68605 149.942 7.49601 150.026 7.32708C150.11 7.15816 150.216 6.98923 150.343 6.82031C150.469 6.65139 150.659 6.52469 150.871 6.44023C151.103 6.33465 151.335 6.29242 151.631 6.29242C151.926 6.31354 152.18 6.37688 152.412 6.46135Z" fill="white"/>
<path d="M158.43 12.1202V7.43254C158.578 7.22139 158.831 7.03135 159.19 6.86242C159.549 6.71461 159.866 6.63015 160.182 6.63015C160.394 6.63015 160.562 6.65127 160.71 6.67238V4.85645C160.288 4.85645 159.866 4.96202 159.443 5.17318C159.042 5.38433 158.704 5.65884 158.43 5.99668V5.02537H156.551V12.1202H158.43Z" fill="white"/>
<path d="M59.9681 27.0913C60.6861 27.7881 61.5729 28.147 62.6709 28.147C63.3466 28.147 63.9167 28.0203 64.3813 27.7881C64.8458 27.5347 65.2259 27.2391 65.4793 26.859L64.2546 25.7399C63.8956 26.2466 63.3889 26.5 62.7554 26.5C62.1853 26.5 61.7207 26.31 61.3618 25.9299C61.0028 25.5498 60.8339 25.043 60.8339 24.4307C60.8339 23.8183 61.0028 23.3116 61.3618 22.9526C61.7207 22.5725 62.1853 22.3825 62.7554 22.3825C63.41 22.3825 63.9167 22.6359 64.2546 23.1426L65.4793 22.0024C65.2048 21.6223 64.8458 21.3056 64.3813 21.0733C63.9167 20.841 63.3466 20.7144 62.6709 20.7144C61.5729 20.7144 60.6649 21.0733 59.9681 21.7701C59.2713 22.4669 58.9124 23.3538 58.9124 24.4518C58.9124 25.4865 59.2502 26.3733 59.9681 27.0913Z" fill="white"/>
<path d="M67.3375 27.1124C68.0554 27.7881 68.9634 28.147 70.0614 28.147C70.6315 28.147 71.1805 28.0626 71.6873 27.8936C72.1941 27.7247 72.6375 27.4713 72.9754 27.1546L72.1519 25.951C71.9407 26.1622 71.6451 26.3311 71.2861 26.4789C70.9272 26.6056 70.5893 26.6689 70.2515 26.6689C69.6602 26.6689 69.1957 26.5211 68.8367 26.2044C68.4777 25.8877 68.2666 25.4865 68.2032 25.0219H73.4821V24.5785C73.4821 23.4171 73.1443 22.4669 72.4897 21.749C71.8351 21.0311 70.9694 20.6721 69.9136 20.6721C69.2168 20.6721 68.5622 20.841 68.0132 21.1789C67.4431 21.5167 66.9997 21.9602 66.704 22.5303C66.3873 23.1004 66.2395 23.7128 66.2395 24.4096C66.2606 25.5076 66.6196 26.4155 67.3375 27.1124ZM70.716 22.298C70.9483 22.4036 71.1383 22.5303 71.265 22.6781C71.3917 22.847 71.4973 23.0159 71.5606 23.1849C71.624 23.3538 71.6662 23.5438 71.6873 23.7128H68.1821C68.2032 23.5227 68.2455 23.3327 68.3299 23.1638C68.4144 22.9948 68.52 22.8259 68.6467 22.657C68.7734 22.4881 68.9634 22.3614 69.1746 22.2769C69.4068 22.1713 69.6391 22.1291 69.9347 22.1291C70.2303 22.1502 70.5048 22.1924 70.716 22.298Z" fill="white"/>
<path d="M76.7338 27.9571V23.2695C76.8816 23.0583 77.135 22.8683 77.4939 22.6993C77.8529 22.5515 78.1696 22.4671 78.4864 22.4671C78.6975 22.4671 78.8664 22.4882 79.0143 22.5093V20.6934C78.5919 20.6934 78.1696 20.7989 77.7473 21.0101C77.3461 21.2212 77.0083 21.4958 76.7338 21.8336V20.8623H74.8545V27.9571H76.7338Z" fill="white"/>
<path d="M84.1243 27.6825L83.7231 26.2678C83.6809 26.31 83.5753 26.3733 83.4486 26.4156C83.3219 26.4578 83.1952 26.4789 83.0685 26.4789C82.8785 26.4789 82.7096 26.4156 82.604 26.2678C82.4984 26.12 82.435 25.9299 82.435 25.7188V22.467H83.8709V20.8411H82.435V18.8984H80.5558V20.8411H79.3733V22.467H80.5558V26.1833C80.5558 26.8168 80.7247 27.3024 81.0837 27.6403C81.4215 27.9781 81.9283 28.147 82.5829 28.147C83.2797 28.1259 83.7864 27.9781 84.1243 27.6825Z" fill="white"/>
<path d="M86.8904 19.4686C87.1015 19.2575 87.2071 18.983 87.2071 18.6874C87.2071 18.3706 87.1015 18.1172 86.8693 17.885C86.6581 17.6738 86.3836 17.5471 86.0669 17.5471C85.7713 17.5471 85.4968 17.6527 85.2856 17.885C85.0533 18.0961 84.9478 18.3706 84.9478 18.6874C84.9478 18.983 85.0533 19.2575 85.2856 19.4686C85.5179 19.6798 85.7713 19.7854 86.0669 19.7854C86.4047 19.8065 86.6792 19.6798 86.8904 19.4686ZM87.0382 27.9571V20.8411H85.18V27.9571H87.0382Z" fill="white"/>
<path d="M95.4422 19.4685C95.6534 19.2574 95.7589 18.9829 95.7589 18.6872C95.7589 18.3705 95.6534 18.1171 95.4422 17.8848C95.2311 17.6526 94.9566 17.5681 94.6609 17.5681C94.3653 17.5681 94.0908 17.6737 93.8797 17.906C93.6474 18.1171 93.5418 18.3916 93.5418 18.7084C93.5418 19.004 93.6474 19.2785 93.8797 19.4896C94.1119 19.7008 94.3653 19.8064 94.6609 19.8064C94.9566 19.8064 95.2311 19.6797 95.4422 19.4685ZM91.2191 27.957V22.4669H92.655V20.841H91.2191V20.4609C91.2191 20.1442 91.3036 19.8908 91.4514 19.7219C91.6203 19.553 91.8315 19.4685 92.0848 19.4685C92.3171 19.4685 92.5072 19.5319 92.6972 19.6586L93.0773 18.3072C92.7183 18.1171 92.2749 18.0115 91.7259 18.0115C91.0079 18.0115 90.4378 18.2438 89.9944 18.6872C89.551 19.1307 89.3398 19.7219 89.3398 20.4821V20.8621H88.1785V22.488H89.3398V27.9781H91.2191V27.957ZM95.6111 27.957V20.841H93.7319V27.957H95.6111Z" fill="white"/>
<path d="M98.0817 27.1124C98.7996 27.7881 99.7075 28.147 100.806 28.147C101.376 28.147 101.925 28.0626 102.431 27.8936C102.938 27.7247 103.382 27.4713 103.72 27.1546L102.896 25.951C102.685 26.1622 102.389 26.3311 102.03 26.4789C101.671 26.6056 101.333 26.6689 100.996 26.6689C100.404 26.6689 99.9398 26.5211 99.5809 26.2044C99.2219 25.8877 99.0107 25.4865 98.9474 25.0219H104.226V24.5785C104.226 23.4171 103.888 22.4669 103.234 21.749C102.579 21.0311 101.714 20.6721 100.658 20.6721C99.9609 20.6721 99.3064 20.841 98.7574 21.1789C98.1872 21.5167 97.7438 21.9602 97.4482 22.5303C97.1315 23.1004 96.9836 23.7128 96.9836 24.4096C97.0048 25.5076 97.3637 26.4155 98.0817 27.1124ZM101.481 22.298C101.714 22.4036 101.904 22.5303 102.03 22.6781C102.157 22.847 102.263 23.0159 102.326 23.1849C102.389 23.3538 102.431 23.5438 102.453 23.7128H98.9474C98.9685 23.5227 99.0107 23.3327 99.0952 23.1638C99.1797 22.9948 99.2852 22.8259 99.4119 22.657C99.5386 22.4881 99.7287 22.3614 99.9398 22.2769C100.172 22.1713 100.404 22.1291 100.7 22.1291C100.996 22.1502 101.249 22.1924 101.481 22.298Z" fill="white"/>
<path d="M112.398 27.9569V18.1382H110.519V21.7701C110.244 21.4111 109.906 21.1366 109.526 20.9465C109.146 20.7565 108.745 20.672 108.323 20.672C107.394 20.672 106.633 21.0099 106.063 21.6856C105.472 22.3613 105.177 23.2693 105.177 24.4095C105.177 25.5497 105.472 26.4788 106.063 27.1545C106.655 27.8091 107.415 28.147 108.323 28.147C109.231 28.147 109.928 27.788 110.519 27.0701V27.9569H112.398ZM109.822 26.2466C109.526 26.3944 109.21 26.4577 108.893 26.4577C108.365 26.4577 107.943 26.2677 107.605 25.8876C107.267 25.5075 107.098 25.0007 107.098 24.3884C107.098 23.776 107.267 23.2693 107.605 22.8892C107.943 22.5091 108.365 22.3191 108.914 22.3191C109.231 22.3191 109.526 22.4035 109.843 22.5513C110.139 22.6991 110.371 22.8892 110.54 23.1426V25.6764C110.35 25.9087 110.118 26.0987 109.822 26.2466Z" fill="white"/>
<path d="M118.648 27.0913C119.366 27.7881 120.253 28.147 121.351 28.147C122.027 28.147 122.597 28.0203 123.061 27.7881C123.526 27.5347 123.906 27.2391 124.159 26.859L122.935 25.7399C122.576 26.2466 122.069 26.5 121.435 26.5C120.865 26.5 120.401 26.31 120.042 25.9299C119.683 25.5498 119.514 25.043 119.514 24.4307C119.514 23.8183 119.683 23.3116 120.042 22.9526C120.401 22.5725 120.865 22.3825 121.435 22.3825C122.09 22.3825 122.597 22.6359 122.935 23.1426L124.159 22.0024C123.885 21.6223 123.526 21.3056 123.061 21.0733C122.597 20.841 122.027 20.7144 121.351 20.7144C120.253 20.7144 119.345 21.0733 118.648 21.7701C117.951 22.4669 117.592 23.3538 117.592 24.4518C117.592 25.4865 117.951 26.3733 118.648 27.0913Z" fill="white"/>
<path d="M130.283 27.8303C130.769 27.6402 131.149 27.3657 131.465 27.0279C131.782 26.69 132.014 26.2889 132.204 25.8243C132.373 25.3809 132.458 24.8952 132.458 24.3885C132.458 23.7128 132.31 23.1004 132.014 22.5303C131.719 21.9813 131.275 21.5167 130.705 21.1789C130.135 20.841 129.459 20.6721 128.699 20.6721C127.939 20.6721 127.284 20.841 126.693 21.1789C126.123 21.5167 125.68 21.9813 125.384 22.5303C125.088 23.0793 124.941 23.7128 124.941 24.3885C124.941 25.0642 125.088 25.6976 125.384 26.2677C125.68 26.8379 126.123 27.2813 126.693 27.6191C127.263 27.957 127.939 28.1259 128.699 28.1259C129.269 28.1259 129.797 28.0414 130.283 27.8303ZM126.883 24.3885C126.883 23.7972 127.052 23.3116 127.369 22.9315C127.686 22.5303 128.129 22.3402 128.699 22.3402C129.269 22.3402 129.713 22.5303 130.03 22.9315C130.367 23.3327 130.515 23.8183 130.515 24.3885C130.515 24.9586 130.346 25.4653 130.03 25.8665C129.692 26.2677 129.248 26.4578 128.699 26.4578C128.15 26.4578 127.686 26.2677 127.369 25.8665C127.052 25.4653 126.883 24.9797 126.883 24.3885Z" fill="white"/>
<path d="M144.578 27.957V22.8259C144.578 22.108 144.388 21.5801 144.029 21.2211C143.67 20.8622 143.142 20.6721 142.488 20.6721C141.981 20.6721 141.495 20.7988 141.052 21.0522C140.608 21.3056 140.27 21.6012 140.038 21.9602C139.911 21.5379 139.679 21.2211 139.341 21.01C139.004 20.7777 138.581 20.6721 138.074 20.6721C137.568 20.6721 137.103 20.7988 136.66 21.0311C136.216 21.2634 135.921 21.5167 135.731 21.7701V20.841H133.851V27.957H135.731V23.1638C135.9 22.9315 136.09 22.7414 136.364 22.5725C136.617 22.4036 136.913 22.3191 137.209 22.3191C137.905 22.3191 138.264 22.6992 138.264 23.4383V27.957H140.165V23.1426C140.313 22.9315 140.524 22.7414 140.777 22.5725C141.031 22.4036 141.326 22.3191 141.622 22.3191C141.981 22.3191 142.255 22.4247 142.424 22.6147C142.593 22.8048 142.678 23.0793 142.678 23.4383V27.957H144.578Z" fill="white"/>
<path d="M148.294 27.049C148.865 27.7669 149.604 28.147 150.49 28.147C151.377 28.147 152.18 27.8092 152.771 27.1335C153.362 26.4578 153.658 25.5498 153.658 24.3885C153.658 23.2271 153.362 22.3191 152.771 21.6645C152.18 21.01 151.42 20.6721 150.49 20.6721C149.561 20.6721 148.865 21.0311 148.294 21.749V20.8622H146.415V30.6809H148.294V27.049ZM151.187 25.8877C150.849 26.2677 150.427 26.4578 149.878 26.4578C149.582 26.4578 149.287 26.3733 148.97 26.2255C148.675 26.0777 148.442 25.8877 148.273 25.6554V23.1215C148.421 22.8893 148.653 22.6992 148.949 22.5514C149.266 22.4036 149.561 22.3191 149.857 22.3191C150.385 22.3191 150.828 22.5092 151.166 22.8893C151.504 23.2693 151.652 23.755 151.652 24.3673C151.694 25.0008 151.525 25.5076 151.187 25.8877Z" fill="white"/>
<path d="M161.829 27.9571V20.8412H159.95V21.7491C159.676 21.3902 159.338 21.1157 158.958 20.9256C158.578 20.7356 158.176 20.6511 157.754 20.6511C156.825 20.6511 156.065 20.989 155.495 21.6647C154.904 22.3404 154.608 23.2483 154.608 24.3886C154.608 25.5288 154.904 26.4579 155.495 27.1336C156.086 27.7882 156.846 28.126 157.754 28.126C158.662 28.126 159.359 27.7671 159.95 27.0491V27.936H161.829V27.9571ZM159.253 26.2467C158.958 26.3946 158.641 26.4579 158.324 26.4579C157.796 26.4579 157.374 26.2679 157.036 25.8878C156.698 25.5077 156.529 25.0009 156.529 24.3886C156.529 23.7762 156.698 23.2906 157.036 22.9105C157.374 22.5304 157.796 22.3404 158.345 22.3404C158.662 22.3404 158.958 22.4248 159.274 22.5726C159.57 22.7204 159.802 22.9105 159.971 23.1639V25.6766C159.781 25.9089 159.549 26.0989 159.253 26.2467Z" fill="white"/>
<path d="M170.36 27.957V22.9315C170.36 22.2136 170.17 21.6645 169.769 21.2634C169.389 20.8622 168.798 20.6721 168.037 20.6721C167.51 20.6721 167.024 20.7777 166.58 20.9889C166.158 21.2 165.799 21.4745 165.546 21.7701V20.841H163.667V27.957H165.546V23.1638C165.715 22.9315 165.947 22.7203 166.221 22.5725C166.496 22.4036 166.813 22.3402 167.151 22.3402C167.573 22.3402 167.89 22.4458 168.122 22.657C168.354 22.8681 168.46 23.206 168.46 23.6705V27.957H170.36Z" fill="white"/>
<path d="M175.111 30.8498C176.273 30.8498 177.181 30.5542 177.877 29.9419C178.553 29.3506 178.912 28.4849 178.912 27.408V20.8622H177.033V25.3598C176.843 25.5921 176.61 25.7821 176.336 25.9299C176.061 26.0777 175.745 26.1622 175.407 26.1622C174.985 26.1622 174.647 26.0566 174.435 25.8666C174.203 25.6765 174.098 25.3387 174.098 24.853V20.8411H172.218V25.5709C172.218 26.2889 172.408 26.8379 172.788 27.218C173.169 27.6192 173.76 27.8092 174.52 27.8092C175.069 27.8092 175.555 27.7036 175.977 27.5136C176.399 27.3024 176.758 27.049 177.033 26.7323V27.4713C177.033 28.0626 176.864 28.506 176.526 28.8227C176.188 29.1395 175.724 29.2873 175.111 29.2873C174.71 29.2873 174.309 29.2239 173.929 29.0761C173.549 28.9283 173.232 28.7172 172.979 28.4215L172.134 29.7729C172.957 30.4909 173.95 30.8498 175.111 30.8498Z" fill="white"/>
<path d="M59.4613 42.2734C59.7358 42.8013 60.1158 43.2025 60.6015 43.4981C61.0871 43.7937 61.6573 43.9415 62.2907 43.9415C63.3043 43.9415 64.0856 43.5615 64.6768 42.8013L64.0011 42.1678C63.5788 42.7379 63.0298 43.0124 62.3541 43.0124C61.6784 43.0124 61.1294 42.7802 60.7071 42.2945C60.3059 41.83 60.0947 41.2176 60.0947 40.4997C60.0947 39.7818 60.3059 39.1694 60.7071 38.7049C61.1083 38.2403 61.6573 38.0081 62.3541 38.0081C63.0509 38.0081 63.5999 38.2826 64.0011 38.8527L64.6768 38.2403C64.0856 37.4802 63.3043 37.1001 62.2907 37.1001C61.6573 37.1001 61.0871 37.2479 60.6015 37.5435C60.1158 37.8391 59.7146 38.2403 59.4613 38.7682C59.1868 39.275 59.0601 39.8662 59.0601 40.4997C59.0601 41.1754 59.1868 41.7666 59.4613 42.2734Z" fill="white"/>
<path d="M68.7312 43.5403L68.4356 42.7801C68.2667 42.9702 68.0555 43.0546 67.7599 43.0546C67.5488 43.0546 67.3798 42.9702 67.2743 42.8224C67.1687 42.6746 67.1053 42.4634 67.1053 42.21V34.8196H66.0918V42.4423C66.0918 42.9279 66.2185 43.308 66.4508 43.5614C66.7042 43.8148 67.0631 43.9626 67.5277 43.9626C68.0344 43.9626 68.4356 43.8148 68.7312 43.5403Z" fill="white"/>
<path d="M70.6737 36.0021C70.8004 35.8754 70.8848 35.7064 70.8848 35.5164C70.8848 35.3264 70.8215 35.1785 70.6737 35.0519C70.547 34.9252 70.3781 34.8618 70.188 34.8618C69.998 34.8618 69.8502 34.9252 69.7235 35.0519C69.5968 35.1785 69.5334 35.3475 69.5334 35.5164C69.5334 35.7064 69.5968 35.8754 69.7235 36.0021C69.8502 36.1287 70.0191 36.2132 70.188 36.2132C70.3781 36.1921 70.547 36.1287 70.6737 36.0021ZM70.6948 43.7937V37.2901H69.6813V43.7937H70.6948Z" fill="white"/>
<path d="M81.5693 43.7937V39.1061C81.5693 38.4515 81.4215 37.9658 81.1048 37.628C80.8092 37.2901 80.3446 37.1423 79.7534 37.1423C79.31 37.1423 78.8877 37.269 78.4865 37.5224C78.0853 37.7758 77.7685 38.0503 77.5785 38.367C77.4729 38.0081 77.2829 37.7125 76.9873 37.4802C76.6916 37.2479 76.3116 37.1423 75.8259 37.1423C75.3825 37.1423 74.9813 37.269 74.559 37.5013C74.1578 37.7336 73.8833 37.987 73.7144 38.2403V37.2901H72.7219V43.7937H73.7355V39.0427C73.9255 38.7682 74.1789 38.536 74.4956 38.3248C74.8124 38.1348 75.1291 38.0292 75.4458 38.0292C76.2482 38.0292 76.6494 38.4726 76.6494 39.3806V43.7937H77.663V39.0216C77.8319 38.7471 78.0853 38.5148 78.402 38.3248C78.7399 38.1348 79.0566 38.0292 79.3733 38.0292C79.7745 38.0292 80.0701 38.1559 80.2813 38.3882C80.4713 38.6204 80.5769 38.9583 80.5769 39.3806V43.7937H81.5693Z" fill="white"/>
<path d="M89.3187 43.7936V37.29H88.3052V38.2613C88.0307 37.9024 87.7139 37.6279 87.3338 37.4167C86.9538 37.2056 86.5526 37.1211 86.1091 37.1211C85.2434 37.1211 84.5466 37.4378 84.0187 38.0502C83.4908 38.6836 83.2163 39.5071 83.2163 40.5418C83.2163 41.5765 83.4908 42.4211 84.0187 43.0334C84.5466 43.6458 85.2434 43.9625 86.1091 43.9625C86.5526 43.9625 86.9538 43.857 87.3338 43.6458C87.7139 43.4346 88.0307 43.1601 88.284 42.8223V43.7936H89.3187ZM87.4816 42.7589C87.1227 42.949 86.7426 43.0546 86.3414 43.0546C85.7079 43.0546 85.2012 42.8223 84.8211 42.3577C84.441 41.8932 84.251 41.2809 84.251 40.5629C84.251 39.845 84.441 39.2326 84.8211 38.747C85.2012 38.2824 85.7079 38.0502 86.3414 38.0502C86.7426 38.0502 87.1016 38.1558 87.4605 38.3669C87.8195 38.5781 88.094 38.8103 88.284 39.106V42.0621C88.1151 42.3155 87.8406 42.5689 87.4816 42.7589Z" fill="white"/>
<path d="M94.1754 43.5403L93.8798 42.7801C93.732 42.9701 93.4997 43.0546 93.183 43.0546C92.9719 43.0546 92.8029 42.9701 92.6974 42.8223C92.5918 42.6745 92.5284 42.4634 92.5284 42.21V38.1769H93.8587V37.2901H92.5284V35.5164H91.5149V37.2901H90.438V38.1769H91.5149V42.4211C91.5149 42.9068 91.6416 43.2869 91.8738 43.5403C92.1272 43.7936 92.4862 43.9415 92.9507 43.9415C93.4786 43.9626 93.8798 43.8148 94.1754 43.5403Z" fill="white"/>
<path d="M95.8222 42.9913C96.4346 43.6248 97.237 43.9415 98.2083 43.9415C99.2641 43.9415 100.13 43.6037 100.784 42.9491L100.299 42.2945C100.045 42.5479 99.7497 42.7591 99.3908 42.9069C99.0318 43.0547 98.6728 43.118 98.2927 43.118C97.6171 43.118 97.0681 42.9069 96.6457 42.4635C96.2234 42.02 95.9912 41.4921 95.9489 40.8587H101.228V40.6264C101.228 39.9718 101.101 39.3806 100.869 38.8527C100.637 38.3248 100.256 37.9025 99.792 37.6069C99.3063 37.2901 98.7573 37.1423 98.1238 37.1423C97.4904 37.1423 96.9625 37.2901 96.4768 37.6069C95.9912 37.9025 95.6111 38.3248 95.3366 38.8316C95.0621 39.3595 94.9354 39.9296 94.9354 40.5419C94.8931 41.5344 95.2099 42.3579 95.8222 42.9913ZM99.0529 38.1559C99.3274 38.2826 99.5597 38.4726 99.7286 38.6838C99.8975 38.8949 100.024 39.1272 100.109 39.3806C100.193 39.634 100.235 39.8662 100.235 40.1196H95.97C95.9912 39.8662 96.0334 39.6129 96.139 39.3595C96.2445 39.1061 96.3712 38.8738 96.5402 38.6627C96.7091 38.4515 96.9202 38.2826 97.1947 38.1348C97.4692 38.0081 97.7649 37.9447 98.1027 37.9447C98.4406 37.9658 98.7573 38.0292 99.0529 38.1559Z" fill="white"/>
<path d="M105.472 40.9852V40.0984H102.241V40.9852H105.472Z" fill="white"/>
<path d="M107.879 36.0021C108.006 35.8754 108.09 35.7064 108.09 35.5164C108.09 35.3264 108.027 35.1785 107.879 35.0519C107.753 34.9252 107.584 34.8618 107.394 34.8618C107.204 34.8618 107.056 34.9252 106.929 35.0519C106.802 35.1785 106.739 35.3475 106.739 35.5164C106.739 35.7064 106.802 35.8754 106.929 36.0021C107.056 36.1287 107.225 36.2132 107.394 36.2132C107.584 36.1921 107.731 36.1287 107.879 36.0021ZM107.9 43.7937V37.2901H106.887V43.7937H107.9Z" fill="white"/>
<path d="M115.629 43.7937V34.8196H114.615V38.2825C114.341 37.9236 114.024 37.6491 113.644 37.4379C113.264 37.2268 112.863 37.1423 112.419 37.1423C111.553 37.1423 110.857 37.459 110.329 38.0714C109.801 38.7048 109.526 39.5283 109.526 40.563C109.526 41.5977 109.801 42.4423 110.329 43.0546C110.857 43.667 111.553 43.9837 112.419 43.9837C112.863 43.9837 113.264 43.8781 113.644 43.667C114.024 43.4558 114.341 43.1813 114.594 42.8435V43.8148H115.629V43.7937ZM113.792 42.759C113.433 42.9491 113.053 43.0546 112.651 43.0546C112.018 43.0546 111.511 42.8224 111.131 42.3578C110.751 41.8933 110.561 41.2809 110.561 40.563C110.561 39.8451 110.751 39.2327 111.131 38.7471C111.511 38.2825 112.018 38.0503 112.651 38.0503C113.053 38.0503 113.412 38.1558 113.771 38.367C114.13 38.5781 114.404 38.8104 114.594 39.106V42.0622C114.446 42.3156 114.172 42.569 113.792 42.759Z" fill="white"/>
<path d="M118.184 43.9202C118.395 43.9202 118.564 43.8569 118.712 43.7091C118.859 43.5613 118.923 43.3923 118.923 43.1812C118.923 42.97 118.859 42.8011 118.712 42.6533C118.564 42.5055 118.395 42.4421 118.184 42.4421C117.972 42.4421 117.804 42.5266 117.656 42.6533C117.508 42.8011 117.445 42.97 117.445 43.1812C117.445 43.3712 117.508 43.5613 117.656 43.7091C117.804 43.8569 117.994 43.9202 118.184 43.9202Z" fill="white"/>
<path d="M120.675 42.2734C120.95 42.8013 121.33 43.2025 121.816 43.4981C122.301 43.7937 122.871 43.9415 123.505 43.9415C124.518 43.9415 125.3 43.5615 125.891 42.8013L125.215 42.1678C124.793 42.7379 124.244 43.0124 123.568 43.0124C122.893 43.0124 122.344 42.7802 121.921 42.2945C121.52 41.83 121.309 41.2176 121.309 40.4997C121.309 39.7818 121.52 39.1694 121.921 38.7049C122.322 38.2403 122.871 38.0081 123.568 38.0081C124.265 38.0081 124.814 38.2826 125.215 38.8527L125.891 38.2403C125.3 37.4802 124.518 37.1001 123.505 37.1001C122.871 37.1001 122.301 37.2479 121.816 37.5435C121.33 37.8391 120.929 38.2403 120.675 38.7682C120.401 39.275 120.274 39.8662 120.274 40.4997C120.274 41.1754 120.401 41.7666 120.675 42.2734Z" fill="white"/>
<path d="M132.986 42.2522C133.239 41.7454 133.366 41.1542 133.366 40.5207C133.366 39.8872 133.239 39.3171 132.986 38.8103C132.732 38.3036 132.352 37.8813 131.866 37.5856C131.381 37.2689 130.811 37.1211 130.156 37.1211C129.502 37.1211 128.953 37.2689 128.446 37.5856C127.96 37.8813 127.58 38.3036 127.327 38.8103C127.073 39.3171 126.947 39.8872 126.947 40.5207C126.947 41.1542 127.073 41.7243 127.327 42.2522C127.58 42.7589 127.96 43.1813 128.446 43.498C128.931 43.8147 129.502 43.9625 130.156 43.9625C130.811 43.9625 131.36 43.8147 131.866 43.498C132.352 43.1813 132.732 42.7801 132.986 42.2522ZM128.572 42.3155C128.192 41.8299 127.981 41.2386 127.981 40.5207C127.981 40.0773 128.066 39.655 128.235 39.296C128.404 38.9159 128.657 38.6203 128.974 38.388C129.311 38.1558 129.692 38.0291 130.156 38.0291C130.621 38.0291 131.001 38.1558 131.317 38.388C131.655 38.6203 131.888 38.937 132.056 39.296C132.225 39.6761 132.31 40.0773 132.31 40.5207C132.31 40.9641 132.225 41.3864 132.056 41.7665C131.888 42.1466 131.655 42.4422 131.317 42.6745C130.98 42.9068 130.6 43.0334 130.156 43.0334C129.48 43.0546 128.953 42.8012 128.572 42.3155Z" fill="white"/>
<path d="M143.86 43.7937V39.1061C143.86 38.4515 143.712 37.9658 143.396 37.628C143.1 37.2901 142.635 37.1423 142.044 37.1423C141.601 37.1423 141.178 37.269 140.777 37.5224C140.376 37.7758 140.059 38.0503 139.869 38.367C139.764 38.0081 139.574 37.7125 139.278 37.4802C138.982 37.2479 138.602 37.1423 138.117 37.1423C137.673 37.1423 137.272 37.269 136.85 37.5013C136.449 37.7336 136.174 37.987 136.005 38.2403V37.2901H135.013V43.7937H136.026V39.0427C136.216 38.7682 136.47 38.536 136.786 38.3248C137.103 38.1348 137.42 38.0292 137.737 38.0292C138.539 38.0292 138.94 38.4726 138.94 39.3806V43.7937H139.954V39.0216C140.123 38.7471 140.376 38.5148 140.693 38.3248C141.031 38.1348 141.347 38.0292 141.664 38.0292C142.065 38.0292 142.361 38.1559 142.572 38.3882C142.762 38.6204 142.868 38.9583 142.868 39.3806V43.7937H143.86Z" fill="white"/>
<path d="M145.655 44.068L148.843 34.5449H148.041L144.853 44.068H145.655Z" fill="white"/>
<path d="M152.137 43.9415C152.602 43.9415 153.024 43.8571 153.404 43.7093C153.784 43.5403 154.122 43.3292 154.376 43.0547C154.65 42.7802 154.861 42.4634 155.051 42.0834C155.241 41.7033 155.368 41.3021 155.453 40.8798C155.537 40.4575 155.579 39.9929 155.579 39.5284C155.579 39.0638 155.537 38.5993 155.474 38.177C155.389 37.7547 155.284 37.3535 155.115 36.9734C154.946 36.5933 154.735 36.2766 154.481 36.0021C154.228 35.7276 153.911 35.5164 153.531 35.3475C153.151 35.1786 152.729 35.1152 152.264 35.1152C151.8 35.1152 151.398 35.1997 151.018 35.3475C150.638 35.4953 150.322 35.7065 150.068 35.9599C149.815 36.2132 149.625 36.5089 149.477 36.8467C149.329 37.1846 149.266 37.5435 149.266 37.9025C149.266 38.4937 149.392 39.0005 149.646 39.4228C149.899 39.8451 150.237 40.1407 150.659 40.3519C151.082 40.5419 151.546 40.6475 152.074 40.6475C152.602 40.6475 153.045 40.5208 153.489 40.2252C153.932 39.9507 154.27 39.634 154.481 39.2961V39.634C154.481 39.9718 154.46 40.2885 154.397 40.6053C154.355 40.922 154.249 41.2176 154.122 41.5132C153.996 41.8089 153.848 42.0622 153.658 42.2734C153.468 42.4846 153.257 42.6535 152.982 42.8013C152.708 42.928 152.412 42.9913 152.074 42.9913C151.652 42.9913 151.314 42.928 151.018 42.7802C150.744 42.6324 150.469 42.4212 150.237 42.1256L149.688 42.928C150.364 43.5826 151.145 43.9415 152.137 43.9415ZM153.573 39.3595C153.193 39.5917 152.792 39.7184 152.37 39.7184C151.778 39.7184 151.314 39.5706 150.934 39.2539C150.554 38.9371 150.385 38.4726 150.385 37.8814C150.385 37.6702 150.427 37.4591 150.512 37.2479C150.596 37.0367 150.723 36.8467 150.871 36.6778C151.039 36.5089 151.229 36.3611 151.504 36.2344C151.757 36.1288 152.053 36.0654 152.349 36.0654C152.644 36.0654 152.898 36.1077 153.13 36.2132C153.362 36.3188 153.573 36.4455 153.721 36.5933C153.869 36.7622 154.017 36.9312 154.122 37.1423C154.228 37.3535 154.312 37.5646 154.376 37.7758C154.439 37.9869 154.46 38.1981 154.481 38.4304C154.27 38.8105 153.953 39.1272 153.573 39.3595Z" fill="white"/>
<path d="M161.808 43.7937V41.6188H163.012V40.6898H161.808V35.2419H160.351L156.677 40.7531V41.64H160.731V43.7937H161.808ZM160.731 40.6898H157.733L160.731 36.2344V40.6898Z" fill="white"/>
<path d="M170.022 43.7937V42.8435H165.483V39.8874H169.938V38.9372H165.483V36.1921H170.022V35.2419H164.427V43.7937H170.022Z" fill="white"/>
<path d="M177.307 43.7937V42.8435H172.767V39.8874H177.223V38.9372H172.767V36.1921H177.307V35.2419H171.712V43.7937H177.307Z" fill="white"/>
<path d="M180.369 43.9414C180.749 43.9414 181.108 43.8781 181.446 43.7725C181.763 43.6669 182.058 43.498 182.312 43.2868C182.565 43.0757 182.755 42.7801 182.882 42.4211C183.03 42.0621 183.093 41.6609 183.093 41.1964V35.2207H182.037V41.1753C182.037 41.7243 181.889 42.1466 181.573 42.4844C181.256 42.8223 180.855 42.9701 180.327 42.9701C179.714 42.9701 179.165 42.6956 178.722 42.1255L178.173 42.9279C178.701 43.6247 179.44 43.9414 180.369 43.9414Z" fill="white"/>
<path d="M185.986 43.0125C186.577 43.6248 187.443 43.9415 188.583 43.9415C189.723 43.9415 190.589 43.6248 191.18 43.0125C191.771 42.4001 192.067 41.5344 192.067 40.4575V35.2419H191.011V40.4575C191.011 41.2599 190.8 41.8722 190.378 42.3368C189.955 42.8013 189.364 43.0125 188.583 43.0125C187.802 43.0125 187.21 42.7802 186.788 42.3368C186.366 41.8722 186.155 41.2599 186.155 40.4575V35.2419H185.099V40.4786C185.099 41.5555 185.394 42.4001 185.986 43.0125Z" fill="white"/>
</svg>
