<svg width="115" height="28" viewBox="0 0 115 28" fill="none" xmlns="http://www.w3.org/2000/svg">
<path d="M27.0166 15.6533C25.4107 15.6533 24.9195 16.2942 24.9195 20.3337L24.9195 27.2088L15.6432 27.2088L15.6432 18.6053C15.6432 15.6533 14.623 15.6533 14.1884 15.6533C13.0171 15.6533 11.808 15.6533 11.808 20.3726L11.808 27.2088L2.53162 27.2088L2.53162 16.4496L-7.19033e-07 16.4496L3.70297 8.46754L7.38705 16.4496L4.85543 16.4496L4.85543 24.8006L9.46525 24.8006L9.46525 20.3532C9.46526 16.838 10.032 13.2451 14.1884 13.2451C15.6054 13.2451 17.967 13.9443 17.967 18.6053L17.967 24.8006L22.5768 24.8006L22.5768 20.3143C22.5768 17.4983 22.5768 13.2451 27.0166 13.2451C29.4915 13.2451 31.0785 15.1872 31.0785 18.178L31.0785 24.8006L35.6884 24.8006L35.6884 3.82593L22.5012 10.3902L22.5012 3.82593L10.75 9.67164L9.23854 9.67164L9.23854 3.01025L4.81764 3.01025L4.81764 6.77791L2.49384 6.77791L2.49384 0.602045L11.5623 0.602045L11.5623 6.60312L24.825 -3.94167e-06L24.825 6.56428L38.031 -3.36442e-06L38.031 27.2088L28.7547 27.2088L28.7547 18.178C28.7547 17.0128 28.4524 15.6339 27.0166 15.6339L27.0166 15.6533ZM66.748 7.51591L65.5389 7.51591L65.5389 11.672L64.0463 11.672L64.0463 2.09746L67.3337 2.09746C68.6373 2.09746 69.6953 2.75778 69.6953 4.56393C69.6953 5.78745 69.1663 6.73907 68.146 6.91386L68.146 6.93328C69.0718 7.03039 69.5441 7.55475 69.6008 8.8948C69.6008 9.51627 69.6197 10.2543 69.6575 10.8369C69.6764 11.303 69.9031 11.5361 70.092 11.672L68.4105 11.672C68.2594 11.4972 68.2027 11.2059 68.1649 10.8369C68.1083 10.2543 68.1272 9.7299 68.1083 9.03075C68.0894 7.98202 67.7682 7.53533 66.748 7.53533L66.748 7.51591ZM66.7102 6.35065C67.6548 6.35065 68.2027 5.76803 68.2027 4.79698C68.2027 3.78709 67.7682 3.2433 66.8047 3.2433L65.5389 3.2433L65.5389 6.35065L66.7291 6.35065L66.7102 6.35065ZM76.2132 11.672L76.2132 10.3902L72.5669 10.3902L72.5669 7.34112L75.911 7.34112L75.911 6.05934L72.5669 6.05934L72.5669 3.39867L76.1188 3.39867L76.1188 2.11688L71.0933 2.11688L71.0933 11.6914L76.2321 11.6914L76.2132 11.672ZM82.9579 8.4287L82.9579 8.23449L81.4654 8.23449L81.4654 8.38986C81.4654 9.28322 81.3143 10.701 80.0862 10.701C78.9905 10.701 78.4993 9.92411 78.4993 6.83618C78.4993 3.74825 78.9905 3.04909 80.0863 3.04909C81.1631 3.01025 81.4087 4.02014 81.4087 4.9135L81.4087 5.06887L82.9013 5.06887L82.9013 4.89408C82.9013 3.90361 82.7501 1.90325 80.1051 1.90325C77.7436 1.90325 77.0256 3.45693 77.0256 6.87502C77.0256 10.2931 77.7624 11.8468 80.1051 11.8468C82.2967 11.8468 82.9768 10.1572 82.9768 8.4287L82.9579 8.4287ZM83.2224 2.09746L85.6218 7.92375L85.6218 11.6526L87.1143 11.6526L87.1143 7.92375L89.6082 2.09746L88.059 2.09746L86.4531 6.21471L84.885 2.09746L83.2224 2.09746ZM95.8239 8.4287L95.8239 8.23449L94.3314 8.23449L94.3314 8.38986C94.3314 9.28322 94.1802 10.701 92.9522 10.701C91.8564 10.701 91.3652 9.92411 91.3652 6.83618C91.3652 3.74825 91.8564 3.04909 92.9522 3.04909C94.0291 3.01025 94.2747 4.02014 94.2747 4.9135L94.2747 5.06887L95.7672 5.06887L95.7672 4.89408C95.7672 3.90361 95.6161 1.90325 92.9711 1.90325C90.6095 1.90325 89.8916 3.45693 89.8916 6.87502C89.8916 10.2931 90.6284 11.8468 92.9711 11.8468C95.1626 11.8468 95.8428 10.1572 95.8428 8.4287L95.8239 8.4287ZM96.8252 2.09746L96.8252 11.672L101.907 11.672L101.907 10.3902L98.3177 10.3902L98.3177 2.09746L96.8252 2.09746ZM102.852 2.09746L102.852 11.672L107.991 11.672L107.991 10.3902L104.345 10.3902L104.345 7.34113L107.689 7.34113L107.689 6.05934L104.345 6.05934L104.345 3.39867L107.896 3.39867L107.896 2.11689L102.871 2.11689L102.852 2.09746ZM109.068 11.672L109.068 2.09746L111.713 2.09746C114.641 2.09746 115 4.05898 115 6.87502C115 9.69106 114.641 11.6526 111.713 11.6526L109.068 11.6526L109.068 11.672ZM111.788 10.5067C113.016 10.5067 113.526 9.67164 113.526 6.87502C113.526 4.0784 113.092 3.2433 111.788 3.2433L110.56 3.2433L110.56 10.5067L111.788 10.5067ZM47.7797 21.8874L46.4761 21.8874L46.4761 25.8299L44.9836 25.8299L44.9836 16.2748L47.9308 16.2748C49.7256 16.2748 50.5002 17.4206 50.5002 19.052C50.5002 20.761 49.5178 21.8874 47.7797 21.8874ZM47.5341 20.7222C48.3276 20.7222 49.0266 20.2755 49.0266 19.0714C49.0266 18.0421 48.6299 17.4012 47.4396 17.4012L46.495 17.4012L46.495 20.7027L47.553 20.7027L47.5341 20.7222ZM56.527 25.8299L56.527 24.5481L52.9374 24.5481L52.9374 16.2748L51.4449 16.2748L51.4449 25.8299L56.527 25.8299ZM61.9114 23.4799L59.1909 23.4799L58.5863 25.8299L57.0371 25.8299L59.6821 16.2748L61.5903 16.2748L64.0463 25.8299L62.4971 25.8299L61.9303 23.4799L61.9114 23.4799ZM61.6658 22.2758L60.589 17.5566L59.4554 22.2758L61.6658 22.2758ZM70.3565 23.1304C70.3565 21.8097 69.7897 21.0717 68.4672 20.6056L67.4659 20.2366C66.4835 19.8482 66.0679 19.4404 66.0679 18.6247C66.0679 17.6148 66.6724 17.2458 67.3148 17.2458C68.2405 17.2458 68.6184 17.7508 68.6184 18.6247L68.6184 18.8189L70.1109 18.8189L70.1109 18.6053C70.1109 17.6148 69.8653 16.0806 67.4848 16.0806C65.7467 16.0806 64.5942 17.0516 64.5942 18.7801C64.5942 20.1395 65.1799 20.8775 66.5402 21.4019L67.5604 21.7709C68.3917 22.0234 68.8829 22.4701 68.8829 23.4799C68.8829 24.1985 68.4105 24.8783 67.4848 24.8783C66.4646 24.8783 65.9545 24.2956 65.9545 23.1304L65.9545 22.8973L64.462 22.8973L64.462 23.1304C64.462 24.4704 64.991 26.0435 67.2959 26.0435C69.1663 26.0435 70.3754 25.2084 70.3754 23.1692L70.3565 23.1304ZM70.9611 16.2748L70.9611 17.5566L73.1715 17.5566L73.1715 25.8299L74.664 25.8299L74.664 17.5566L76.8367 17.5566L76.8367 16.2748L70.9611 16.2748ZM79.2172 25.8299L79.2172 16.2748L77.7247 16.2748L77.7247 25.8299L79.2172 25.8299ZM86.4342 22.606L86.4342 22.4118L84.9417 22.4118L84.9417 22.5672C84.9417 23.4605 84.7905 24.8783 83.5625 24.8783C82.4667 24.8783 81.9755 24.1014 81.9755 21.0135C81.9755 17.9256 82.4667 17.2458 83.5625 17.2458C84.6394 17.207 84.885 18.2169 84.885 19.1102L84.885 19.2656L86.3775 19.2656L86.3775 19.0908C86.3775 18.1003 86.2264 16.1 83.5814 16.1C81.2198 16.1 80.5019 17.6537 80.5019 21.0717C80.5019 24.4898 81.2387 26.0435 83.5814 26.0435C85.773 26.0435 86.4531 24.3539 86.4531 22.6254L86.4342 22.606ZM47.7797 7.71012L46.4761 7.71012L46.4761 11.6526L44.9836 11.6526L44.9836 2.09746L47.9308 2.09746C49.7256 2.09746 50.5002 3.2433 50.5002 4.87466C50.5002 6.58371 49.5178 7.71012 47.7797 7.71012ZM47.5341 6.56428C48.3276 6.56428 49.0266 6.1176 49.0266 4.9135C49.0266 3.88419 48.6299 3.2433 47.4396 3.2433L46.495 3.2433L46.495 6.54486L47.553 6.54486L47.5341 6.56428ZM52.7674 11.672L52.7674 2.09746L51.2748 2.09746L51.2748 11.672L52.7674 11.672ZM56.8482 7.51591L55.6391 7.51591L55.6391 11.672L54.1465 11.672L54.1465 2.09746L57.4339 2.09746C58.7375 2.09746 59.7955 2.75777 59.7955 4.56392C59.7955 5.78745 59.2665 6.73907 58.2463 6.91386L58.2463 6.93328C59.172 7.03039 59.6443 7.55475 59.701 8.8948C59.701 9.51627 59.7199 10.2543 59.7577 10.8369C59.7766 11.303 60.0033 11.5361 60.1922 11.672L58.5108 11.672C58.3596 11.4972 58.3029 11.2059 58.2652 10.8369C58.2085 10.2543 58.2274 9.7299 58.2085 9.03075C58.1896 7.98202 57.8684 7.53533 56.8482 7.53533L56.8482 7.51591ZM56.8104 6.35065C57.7551 6.35065 58.3029 5.76803 58.3029 4.79698C58.3029 3.78709 57.8684 3.2433 56.9049 3.2433L55.6391 3.2433L55.6391 6.35065L56.8293 6.35065L56.8104 6.35065Z" fill="#FFED00"/>
</svg>
