<svg width="32" height="32" viewBox="0 0 32 32" fill="none" xmlns="http://www.w3.org/2000/svg">
<path d="M31.3313 8.51837C30.9633 7.13346 29.879 6.04275 28.5022 5.6726C26.0067 5 16 5 16 5C16 5 5.99337 5 3.49781 5.6726C2.12103 6.04281 1.0367 7.13346 0.668671 8.51837C0 11.0286 0 16.266 0 16.266C0 16.266 0 21.5033 0.668671 24.0136C1.0367 25.3985 2.12103 26.4437 3.49781 26.8139C5.99337 27.4865 16 27.4865 16 27.4865C16 27.4865 26.0066 27.4865 28.5022 26.8139C29.879 26.4437 30.9633 25.3985 31.3313 24.0136C32 21.5033 32 16.266 32 16.266C32 16.266 32 11.0286 31.3313 8.51837V8.51837ZM12.7273 21.0211V11.5108L21.0909 16.2661L12.7273 21.0211V21.0211Z" fill="#EFEFEF"/>
</svg>
