<svg width="96" height="96" viewBox="0 0 96 96" fill="none" xmlns="http://www.w3.org/2000/svg">
<path d="M48 0C21.4929 0 0 21.4929 0 48C0 74.5071 21.4929 96 48 96C74.5071 96 96 74.5071 96 48C96 21.4929 74.5071 0 48 0ZM63.4393 48.7393L40.0393 65.7643C39.911 65.8565 39.7598 65.9115 39.6023 65.9233C39.4447 65.9352 39.287 65.9034 39.1464 65.8314C39.0057 65.7594 38.8877 65.6501 38.8052 65.5154C38.7226 65.3807 38.6788 65.2258 38.6786 65.0679V31.0393C38.6781 30.881 38.7214 30.7257 38.8037 30.5905C38.8861 30.4553 39.0043 30.3456 39.1452 30.2735C39.2861 30.2013 39.4442 30.1697 39.602 30.1819C39.7599 30.1942 39.9112 30.2499 40.0393 30.3429L63.4393 47.3571C63.5498 47.4353 63.64 47.5389 63.7023 47.6591C63.7645 47.7794 63.797 47.9128 63.797 48.0482C63.797 48.1836 63.7645 48.317 63.7023 48.4373C63.64 48.5575 63.5498 48.6611 63.4393 48.7393V48.7393Z" fill="white" fill-opacity="0.85"/>
</svg>
