<?xml version="1.0" encoding="UTF-8"?>
<svg width="24px" height="12px" viewBox="0 0 24 12" version="1.1" xmlns="http://www.w3.org/2000/svg" xmlns:xlink="http://www.w3.org/1999/xlink">
    <!-- Generator: Sketch 60.1 (88133) - https://sketch.com -->
    <title>Fill 1 Copy 2</title>
    <desc>Created with Sketch.</desc>
    <g id="Landing-Desktop" stroke="none" stroke-width="1" fill="none" fill-rule="evenodd">
        <g id="Landing-Mood-Metal" transform="translate(-1428.000000, -7606.000000)" fill="#F4F4F4">
            <path d="M1428.7019,7612.54431 L1449.50275,7612.67994 L1445.50706,7616.71405 C1445.45223,7616.76597 1445.40594,7616.82469 1445.36917,7616.88894 C1445.20568,7617.17609 1445.25066,7617.52944 1445.48079,7617.76857 C1445.76739,7618.06643 1446.24605,7618.07811 1446.54611,7617.79583 C1446.55892,7617.78382 1451.79524,7612.48786 1451.79524,7612.48786 C1451.80837,7612.46741 1451.82118,7612.44697 1451.83333,7612.42588 C1451.85171,7612.39311 1451.86878,7612.35969 1451.88388,7612.3253 L1451.89439,7612.30129 L1451.90719,7612.27825 C1451.97088,7612.16339 1452.00305,7612.03328 1452,7611.89278 C1451.99879,7611.69518 1451.91573,7611.50245 1451.76996,7611.36163 L1446.4972,7606.19545 C1446.19024,7605.9177 1445.71191,7605.93847 1445.43089,7606.24185 C1445.3915,7606.28435 1445.35735,7606.33075 1445.32912,7606.3804 C1445.16563,7606.66723 1445.21093,7607.02057 1445.42695,7607.24543 L1449.45745,7611.14813 L1428.70649,7611.14813 C1428.31648,7611.14813 1428,7611.46059 1428,7611.84606 C1428,7612.2299 1428.31352,7612.54172 1428.7019,7612.54431" id="Fill-1-Copy-2"></path>
        </g>
    </g>
</svg>