<svg width="985" height="271" viewBox="0 0 985 271" fill="none" xmlns="http://www.w3.org/2000/svg">
<path d="M0 257.12C10.3247 257.12 17.8418 256.418 22.5739 255.015C27.306 253.611 30.4306 251.256 31.925 247.928C33.4193 244.599 34.1891 239.369 34.1891 232.282V38.3776C34.1891 31.2907 33.442 26.0605 31.925 22.7321C30.408 19.4038 27.306 17.0264 22.5739 15.6452C17.8418 14.2414 10.3247 13.5395 0 13.5395V6.45264H92.922C115.926 6.45264 134.266 11.8867 147.919 22.7548C161.572 33.6228 168.41 49.9023 168.41 71.6385C168.41 88.6425 163.519 102.341 153.738 112.779C143.957 123.217 130.779 129.398 114.205 131.322V132.296C127.111 133.156 138.568 136.394 148.576 141.964C158.583 147.556 166.327 155.074 171.806 164.538C177.285 174.002 180.025 184.644 180.025 196.485C180.025 220.576 171.693 237.943 155.029 248.584C138.364 259.226 116.583 264.547 89.7069 264.547H0V257.12ZM88.0767 126.137C102.273 126.137 114.364 121.45 124.372 112.099C134.379 102.748 139.383 89.0274 139.383 70.9592C139.383 52.891 134.379 40.4154 124.372 31.6077C114.364 22.8 102.273 18.3849 88.0767 18.3849C77.9558 18.3849 69.3745 19.4717 62.265 21.6V124.53C69.3519 125.617 77.9558 126.137 88.0767 126.137ZM86.4691 252.275C104.741 252.275 120.07 248.041 132.432 239.528C144.794 231.037 150.976 216.456 150.976 195.806C150.976 181.836 147.647 170.538 140.968 161.934C134.289 153.33 126.183 147.262 116.605 143.707C107.028 140.153 97.5183 138.387 88.054 138.387C77.9332 138.387 69.3519 138.93 62.2424 139.994V249.037C70.1896 251.188 78.2728 252.252 86.4465 252.252L86.4691 252.275Z" fill="#0856FF"/>
<path d="M307.296 196.146C304.284 220.667 297.945 239.279 288.254 251.958C278.586 264.638 266.631 271 252.435 271C235.023 271 221.415 262.826 211.611 246.479C201.83 230.131 196.94 208.192 196.94 180.659C196.94 163.881 199.249 148.508 203.868 134.515C208.487 120.545 215.212 109.405 224.042 101.118C232.85 92.8314 243.287 88.688 255.333 88.688C271.68 88.688 284.314 96.1145 293.235 110.945C302.156 125.775 306.617 145.474 306.617 169.995H221.755V174.184C221.755 196.554 225.151 214.894 231.921 229.181C238.691 243.49 248.11 250.645 260.156 250.645C268.759 250.645 276.548 246.388 283.545 237.898C290.541 229.407 295.975 215.482 299.847 196.123H307.273L307.296 196.146ZM232.283 116.447C227.008 126.998 223.725 140.855 222.434 158.063H281.801C281.801 141.081 279.65 127.247 275.348 116.605C271.046 105.964 264.05 100.643 254.382 100.643C244.714 100.643 237.559 105.918 232.283 116.447Z" fill="#0856FF"/>
<path d="M390.863 22.7325C389.346 19.4042 386.245 17.0268 381.512 15.6456C376.78 14.2419 369.354 13.54 359.255 13.54V6.45306H455.393V13.54C445.068 13.54 437.528 14.2419 432.819 15.6456C428.087 17.0494 424.962 19.4042 423.468 22.7325C421.951 26.0609 421.204 31.2911 421.204 38.378V232.283C421.204 239.369 421.951 244.6 423.468 247.928C424.962 251.256 428.087 253.634 432.819 255.015C437.551 256.419 445.068 257.121 455.393 257.121V264.547H359.255V257.121C369.354 257.121 376.78 256.419 381.512 255.015C386.245 253.611 389.369 251.256 390.863 247.928C392.358 244.6 393.128 239.369 393.128 232.283V38.378C393.128 31.2911 392.38 26.0609 390.863 22.7325ZM570.572 253.724C576.164 255.989 584.225 257.121 594.776 257.121V264.547H507.99V257.121C515.507 257.121 520.624 256.917 523.318 256.464C526.013 256.034 527.348 255.06 527.348 253.566C527.348 252.706 526.76 251.37 525.582 249.536C524.405 247.702 523.046 245.936 521.552 244.215C520.035 242.494 518.744 240.886 517.68 239.369L432.185 130.326L515.099 30.9515C517.884 27.7137 520.262 24.8835 522.186 22.3929C524.111 19.9249 525.084 18.1362 525.084 17.0721C525.084 15.5777 523.635 14.6041 520.737 14.1739C517.839 13.7437 512.609 13.5173 505.091 13.5173V6.43042H573.175V13.5173C562.624 13.5173 554.473 14.6041 548.654 16.7325C542.858 18.8834 536.813 23.7288 530.586 31.2459L459.921 116.741L553.16 239.007C559.183 246.547 564.979 251.438 570.572 253.679V253.724Z" fill="#0856FF"/>
<path d="M624.373 248.245C625.437 251.573 627.497 253.883 630.509 255.173C633.52 256.464 638.252 257.098 644.705 257.098V264.524H576.961V257.098C583.414 257.098 588.146 256.441 591.157 255.173C594.169 253.883 596.206 251.573 597.293 248.245C598.357 244.917 598.901 239.596 598.901 232.282V130.326C598.901 122.379 598.629 117.058 598.086 114.364C597.542 111.669 596.093 110.334 593.738 110.334C591.814 110.334 587.829 111.851 581.806 114.839L578.591 108.069L601.821 97.1108L618.916 88.7333L622.788 92.6051V232.305C622.788 239.618 623.331 244.939 624.395 248.268L624.373 248.245ZM596.795 28.8683C593.467 25.54 591.791 21.5097 591.791 16.7776C591.791 12.0455 593.444 8.06049 596.795 4.84535C600.123 1.63021 604.154 0 608.886 0C613.618 0 617.603 1.60757 620.818 4.84535C624.033 8.08313 625.663 12.0455 625.663 16.7776C625.663 21.5097 624.056 25.54 620.818 28.8683C617.603 32.1967 613.618 33.8722 608.886 33.8722C604.154 33.8722 600.123 32.1967 596.795 28.8683Z" fill="#0856FF"/>
<path d="M686.57 120.341C701.197 99.2618 716.888 88.7334 733.665 88.7334C755.605 88.7334 766.564 103.677 766.564 133.587V232.305C766.564 239.619 767.107 244.939 768.172 248.268C769.236 251.596 771.296 253.906 774.307 255.196C777.319 256.487 782.051 257.121 788.504 257.121V264.547H721.711V257.121C727.937 257.121 732.511 256.464 735.432 255.196C738.33 253.906 740.277 251.596 741.228 248.268C742.201 244.939 742.677 239.619 742.677 232.305V133.587C742.677 115.315 736.428 106.168 723.975 106.168C712.359 106.168 699.567 114.885 685.574 132.296V232.305C685.574 239.619 686.05 244.939 687.023 248.268C687.997 251.596 689.921 253.906 692.82 255.196C695.718 256.487 700.291 257.121 706.541 257.121V264.547H639.747V257.121C646.2 257.121 650.932 256.464 653.944 255.196C656.955 253.906 658.993 251.596 660.08 248.268C661.144 244.939 661.687 239.619 661.687 232.305V130.349C661.687 122.402 661.415 117.081 660.872 114.387C660.329 111.692 658.879 110.356 656.525 110.356C654.6 110.356 650.615 111.873 644.593 114.862L641.377 108.092L664.608 97.1335L681.702 88.756L685.574 92.6278V120.364H686.548L686.57 120.341Z" fill="#0856FF"/>
<path d="M932.912 251.641L893.221 271L889.35 267.128V239.392H888.059C881.176 250.147 874.406 258.094 867.727 263.257C861.047 268.419 853.1 271 843.862 271C827.085 271 813.952 263.37 804.511 248.086C795.046 232.826 790.314 212.267 790.314 186.455C790.314 168.183 792.624 151.655 797.243 136.938C801.862 122.221 808.745 110.492 817.892 101.775C827.039 93.0579 838.156 88.7107 851.289 88.7107C859.032 88.7107 866.074 90.7031 872.413 94.6881C878.753 98.6731 884.187 103.564 888.716 109.36H889.35V41.6157C889.35 33.442 889.123 28.0532 888.716 25.4947C888.285 22.9135 886.882 21.6229 884.527 21.6229C882.806 21.6229 878.821 23.0267 872.595 25.8117L869.379 19.3588L892.293 8.40012L909.388 0L913.259 3.87175V229.384C913.259 237.558 913.463 242.924 913.916 245.505C914.346 248.086 915.75 249.377 918.105 249.377C919.825 249.377 923.697 247.973 929.72 245.188L932.935 251.641H932.912ZM889.35 160.327C889.35 141.828 886.293 127.247 880.157 116.605C874.021 105.964 865.915 100.643 855.794 100.643C842.255 100.643 832.519 107.956 826.586 122.583C820.677 137.209 817.711 155.708 817.711 178.078C817.711 200.448 820.564 219.49 826.269 233.256C831.975 247.022 840.738 253.905 852.557 253.905C860.73 253.905 867.387 251.437 872.549 246.479C877.712 241.543 883.304 234.32 889.327 224.856V160.327H889.35Z" fill="#0856FF"/>
<path d="M956.049 265.996C952.72 262.668 951.045 258.637 951.045 253.905C951.045 249.173 952.698 245.188 956.049 241.973C959.377 238.758 963.407 237.128 968.139 237.128C972.872 237.128 976.857 238.735 980.072 241.973C983.287 245.211 984.917 249.173 984.917 253.905C984.917 258.637 983.309 262.668 980.072 265.996C976.834 269.324 972.872 271 968.139 271C963.407 271 959.377 269.324 956.049 265.996Z" fill="#0856FF"/>
</svg>
