<svg width="36" height="32" viewBox="0 0 36 32" fill="none" xmlns="http://www.w3.org/2000/svg">
<path d="M25.8236 2.60481C29.9795 2.60481 33.3608 5.83641 33.3608 9.81163C33.3608 20.5875 21.7775 27.0585 18.2839 28.7663C14.7792 27.0638 3.21374 20.6269 3.21374 9.81163C3.21374 5.83796 6.5935 2.60481 10.751 2.60481C12.9079 2.60481 14.9645 3.49808 16.4016 5.05742C16.8783 5.57501 17.5666 5.8732 18.2866 5.8732C19.0078 5.8732 19.6948 5.575 20.1715 5.05742C21.6086 3.49811 23.6667 2.60481 25.8236 2.60481H25.8236ZM25.8236 0.202148C22.8175 0.202148 20.129 1.46981 18.2863 3.47054C16.4453 1.47116 13.7552 0.202148 10.7491 0.202148C5.20015 0.202148 0.700684 4.50438 0.700684 9.81146C0.700684 24.2234 18.2863 31.4302 18.2863 31.4302C18.2863 31.4302 35.872 24.2234 35.872 9.81146C35.872 4.50438 31.3725 0.202148 25.8236 0.202148Z" fill="#79E071"/>
</svg>
