<svg width="113" height="111" viewBox="0 0 113 111" fill="none" xmlns="http://www.w3.org/2000/svg">
<path d="M54.1736 45.5211C50.0556 46.2376 46.6756 49.581 45.9524 53.6603C44.8158 60.0742 49.7653 65.6449 56.0284 65.6449C61.6863 65.6449 66.2668 61.1026 66.2668 55.5026C66.2668 49.2983 60.6482 44.3953 54.1736 45.5211Z" fill="#79E071"/>
<path d="M79.9733 37.5524C79.4173 36.1342 78.7531 35.1204 77.6756 34.0531C76.6031 32.9857 75.5797 32.3278 74.1431 31.777C73.0607 31.3579 71.4322 30.8656 68.4409 30.7292C65.2036 30.583 64.2294 30.5537 56.0279 30.5537C47.8264 30.5537 46.8522 30.583 43.6149 30.7292C40.6187 30.8656 38.9951 31.3628 37.9127 31.777C36.4761 32.3278 35.4576 32.9857 34.3802 34.0531C33.3076 35.1204 32.6385 36.1293 32.0826 37.5524C31.6644 38.6247 31.1625 40.2379 31.0248 43.206C30.8772 46.4129 30.8477 47.378 30.8477 55.5025C30.8477 63.6271 30.8772 64.5921 31.0248 67.799C31.1625 70.7672 31.6644 72.3755 32.0826 73.4477C32.6385 74.8709 33.3076 75.8797 34.3802 76.9471C35.4576 78.0096 36.4761 78.6724 37.9127 79.2231C38.9951 79.6423 40.6236 80.1345 43.6149 80.271C46.8522 80.4172 47.8264 80.4465 56.0279 80.4465C64.2294 80.4465 65.2036 80.4172 68.4409 80.271C71.4372 80.1345 73.0607 79.6374 74.1431 79.2231C75.5748 78.6724 76.5982 78.0096 77.6756 76.9471C78.7531 75.8797 79.4173 74.8709 79.9733 73.4477C80.3964 72.3755 80.8933 70.7623 81.031 67.799C81.1786 64.5921 81.2082 63.6271 81.2082 55.5025C81.2082 47.378 81.1786 46.4129 81.031 43.206C80.8933 40.2379 80.3914 38.6295 79.9733 37.5524ZM52.3084 70.7087C46.6062 69.422 41.9766 64.8309 40.6728 59.1871C38.3161 48.9571 46.0995 39.8772 56.023 39.8772C64.7362 39.8772 71.7963 46.8711 71.7963 55.5025C71.7963 65.3329 62.6354 73.0432 52.3035 70.7087H52.3084ZM72.4211 42.9087C70.3843 42.9087 68.7361 41.2711 68.7361 39.2583C68.7361 37.2454 70.3843 35.6078 72.4211 35.6078C74.458 35.6078 76.1062 37.2405 76.1062 39.2583C76.1062 41.276 74.4531 42.9087 72.4211 42.9087Z" fill="#79E071"/>
<path d="M56.0283 0C25.0818 0 0 24.8465 0 55.5024C0 86.1535 25.0818 111.005 56.0283 111.005C86.9747 111.005 112.057 86.1584 112.057 55.5024C112.052 24.8465 86.9698 0 56.0283 0ZM86.5614 68.0475C86.4138 71.2886 85.8923 73.4964 85.1346 75.4361C84.3474 77.4344 83.2995 79.1353 81.5923 80.8265C79.885 82.5177 78.1729 83.5607 76.1508 84.3356C74.1976 85.0862 71.9639 85.6028 68.6922 85.749C65.4155 85.8952 64.3676 85.9293 56.0283 85.9293C47.689 85.9293 46.641 85.8952 43.3643 85.749C40.0926 85.6028 37.8639 85.0862 35.9057 84.3356C33.8836 83.5558 32.1715 82.5177 30.4643 80.8265C28.757 79.1353 27.7042 77.4392 26.9219 75.4361C26.1642 73.5012 25.6427 71.2886 25.4951 68.0475C25.3475 64.8016 25.3082 63.7635 25.3082 55.5024C25.3082 47.2414 25.3426 46.2033 25.4951 42.9574C25.6427 39.7163 26.1642 37.5085 26.9219 35.5687C27.7042 33.5656 28.757 31.8695 30.4643 30.1784C32.1715 28.4872 33.8836 27.4442 35.9057 26.6692C37.8589 25.9187 40.0926 25.4021 43.3643 25.2558C46.641 25.1096 47.689 25.0706 56.0283 25.0706C64.3676 25.0706 65.4155 25.1048 68.6922 25.2558C71.9639 25.4021 74.1927 25.9187 76.1508 26.6692C78.1729 27.449 79.885 28.4872 81.5923 30.1784C83.2995 31.8695 84.3523 33.5656 85.1346 35.5687C85.8923 37.5036 86.4138 39.7163 86.5614 42.9574C86.709 46.2033 86.7434 47.2414 86.7434 55.5024C86.7434 63.7635 86.709 64.8016 86.5614 68.0475Z" fill="#79E071"/>
</svg>
