<svg width="669" height="156" viewBox="0 0 669 156" fill="none" xmlns="http://www.w3.org/2000/svg">
<g clip-path="url(#clip0_740_736)">
<path d="M220.238 7.3837V5.53613H245.305V7.3837C237.316 7.3837 236.387 8.72676 236.387 13.8468V64.2765C236.387 69.3965 237.31 70.7395 245.305 70.7395V72.6689H220.238V70.7395C228.145 70.7395 229.068 69.3965 229.068 64.2765V13.8468C229.068 8.72676 228.145 7.3837 220.238 7.3837ZM281.642 70.7395V72.6689H259.014V70.7395C265.746 70.7395 264.816 70.3168 261.536 66.124L239.244 37.7629L260.86 11.9174C264.311 7.8882 265.233 7.3837 258.249 7.3837V5.53613H275.997V7.3837C270.953 7.3837 268.343 7.8882 264.892 11.9992L246.474 34.2382L270.783 66.0422C274.063 70.235 276.585 70.7395 281.635 70.7395H281.642Z" fill="#D1FFD2"/>
<path d="M294.799 70.7394V72.6688H277.133V70.7394C282.094 70.7394 282.853 69.6486 282.853 64.2763V37.7627C282.853 32.4791 282.935 31.4701 278.397 33.7335L277.557 31.9746L283.611 29.1249L288.067 26.9432L289.079 27.9522V64.2832C289.079 69.6554 289.837 70.7462 294.799 70.7462V70.7394ZM281.001 8.22214C281.001 5.78826 283.017 3.85889 285.457 3.85889C287.896 3.85889 289.83 5.78826 289.83 8.22214C289.83 10.656 287.896 12.6672 285.457 12.6672C283.017 12.6672 281.001 10.656 281.001 8.22214Z" fill="#D1FFD2"/>
<path d="M305.441 35.1585H305.694C308.892 30.543 312.842 26.9365 317.974 26.9365C324.111 26.9365 326.551 31.2998 326.551 38.6014V64.2764C326.551 69.6487 327.31 70.7395 332.271 70.7395V72.6689H314.858V70.7395C319.567 70.7395 320.325 69.6487 320.325 64.2764V38.6014C320.325 33.9041 318.808 31.4702 315.446 31.4702C312.084 31.4702 308.462 34.4904 305.434 38.2674V64.2833C305.434 69.6555 306.104 70.7463 310.901 70.7463V72.6757H293.488V70.7463C298.45 70.7463 299.208 69.6555 299.208 64.2833V37.7697C299.208 32.486 299.29 31.477 294.753 33.7405L293.912 31.9815L299.967 29.1318L304.423 26.9502L305.434 27.9592V35.1722L305.441 35.1585Z" fill="#D1FFD2"/>
<path d="M370.114 69.3077L359.768 74.3391L358.756 73.33V66.1102H358.421C355.141 71.2302 351.943 74.3322 346.899 74.3322C338.07 74.3322 332.938 65.6057 332.938 52.3455C332.938 39.0853 338.234 26.9227 348.833 26.9227C353.207 26.9227 356.569 29.6089 358.592 32.295H358.763V14.6715C358.763 9.38791 358.934 8.37891 354.389 10.5605L353.549 8.88341L359.522 6.02684L363.977 3.84521L364.989 4.85422V63.5059C364.989 68.7895 364.818 69.7985 369.281 67.6169L370.121 69.294L370.114 69.3077ZM358.763 45.562C358.763 35.7447 355.148 30.0384 350.016 30.0384C342.28 30.0384 340.093 40.108 340.093 50.1775C340.093 61.4197 342.703 69.894 349.175 69.894C353.973 69.894 356.405 66.117 358.763 62.3401V45.5552V45.562Z" fill="#D1FFD2"/>
<path d="M386.156 49.5365C386.156 35.3968 393.195 24.4546 404.963 24.4546C416.732 24.4546 423.859 35.39 423.859 49.5365C423.859 63.683 416.725 74.707 404.963 74.707C393.202 74.707 386.156 63.6762 386.156 49.5365ZM416.198 48.5548C414.948 34.681 410.226 27.2089 403.091 27.8361C395.956 28.5451 392.573 36.6376 393.728 50.6C394.979 64.3852 399.701 71.8573 406.925 71.23C413.971 70.6096 417.353 62.4285 416.198 48.5548Z" fill="#D1FFD2"/>
<path d="M459.455 8.98558C459.455 11.8285 457.582 13.2534 455.443 13.2534C453.304 13.2534 451.431 12.0944 451.254 9.16284C451.165 6.76304 450.898 3.29289 446.709 3.29289C440.825 3.29289 439.67 9.07421 439.67 17.4326V26.2341H448.049V29.527H439.67V64.0308C439.67 69.7234 440.743 70.8756 448.404 70.8756V72.9209H426.918V70.8756C432.269 70.8756 432.98 69.7166 432.98 64.0308V29.527H426.918V26.2341H432.98V21.2572C432.98 7.20619 438.153 0 447.871 0C454.199 0 459.461 4.44507 459.461 8.98558H459.455Z" fill="#D1FFD2"/>
<path d="M511.519 46.7822C511.519 61.9036 505.28 74.707 495.65 74.707C491.195 74.707 487.361 72.4845 484.689 67.8622H484.511V83.6926C484.511 89.2966 485.222 90.5375 490.573 90.5375V92.4941H471.766V90.5375C477.117 90.5375 477.827 89.2898 477.827 83.6926V35.9286C477.827 30.3245 478.005 29.261 473.283 31.5722L472.394 29.7928L483.356 24.4546L484.518 25.525V34.6878H484.873C488.529 28.3747 492.896 24.4614 498.514 24.4614C507.788 24.4614 511.533 34.7764 511.533 46.7822H511.519ZM503.947 49.3592C503.947 36.5558 501.897 29.0837 495.835 29.0837C491.201 29.0837 487.012 33.6174 484.511 37.7966V55.5837C484.511 65.5442 488.789 71.3255 494.495 71.3255C501.808 71.3255 503.947 60.0288 503.947 49.3592Z" fill="#D1FFD2"/>
<path d="M547.552 54.0707C545.857 67.9444 540.062 74.7007 532.394 74.7007C522.676 74.7007 517.059 64.8288 517.059 49.796C517.059 36.0995 522.943 24.4482 533.194 24.4482C542.467 24.4482 547.367 33.7883 547.367 46.8576H523.92V48.0166C523.92 59.8451 527.665 69.0966 534.526 69.0966C538.893 69.0966 543.171 65.4492 545.488 54.0707H547.538H547.552ZM524.104 43.5784H540.506C540.506 35.22 538.634 27.748 532.927 27.748C527.221 27.748 524.726 34.6814 524.098 43.5784H524.104Z" fill="#D1FFD2"/>
<path d="M563.274 33.1743H563.54C566.93 28.2861 571.119 24.4614 576.552 24.4614C583.058 24.4614 585.648 29.0837 585.648 36.8217V64.0375C585.648 69.7302 586.448 70.8824 591.71 70.8824V72.9276H573.258V70.8824C578.247 70.8824 579.053 69.7234 579.053 64.0375V36.8217C579.053 31.8449 577.447 29.261 573.88 29.261C570.313 29.261 566.479 32.4653 563.274 36.4672V64.0375C563.274 69.7302 563.984 70.8824 569.069 70.8824V72.9276H550.617V70.8824C555.879 70.8824 556.679 69.7234 556.679 64.0375V35.9354C556.679 30.3314 556.768 29.2678 551.957 31.6676L551.068 29.7996L557.485 26.7794L562.208 24.4682L563.281 25.5386V33.1879L563.274 33.1743Z" fill="#D1FFD2"/>
<path d="M117.011 53.3615C116.922 67.2353 115.138 74.7074 107.115 74.7074C100.609 74.7074 96.7753 70.2623 96.7753 58.5224V29.5272H89.6406V26.2343C97.486 26.0571 100.425 22.7642 100.965 13.5195H103.37V26.2343H113.976V29.5272H103.37V55.4068C103.37 64.3855 103.814 69.9896 108.899 69.9896C113.177 69.9896 114.872 65.8104 114.961 53.3615H117.011Z" fill="#D1FFD2"/>
<path d="M132.564 33.1744H132.83C136.22 28.2862 140.409 24.4615 145.849 24.4615C152.355 24.4615 154.945 29.0838 154.945 36.8218V64.0376C154.945 69.7303 155.745 70.8825 161.007 70.8825V72.9277H142.555V70.8825C147.551 70.8825 148.35 69.7235 148.35 64.0376V36.8218C148.35 31.845 146.744 29.2611 143.177 29.2611C139.61 29.2611 135.776 32.4654 132.571 36.4673V64.0376C132.571 69.7303 133.281 70.8825 138.366 70.8825V72.9277H119.914V70.8825C125.176 70.8825 125.976 69.7235 125.976 64.0376V11.474C125.976 5.86996 126.065 4.80642 121.254 7.20621L120.365 5.33819L126.782 2.318L131.505 0.00683594L132.577 1.0772V33.1812L132.564 33.1744Z" fill="#D1FFD2"/>
<path d="M193.989 54.0707C192.295 67.9444 186.499 74.7007 178.832 74.7007C169.114 74.7007 163.496 64.8288 163.496 49.796C163.496 36.0995 169.38 24.4482 179.631 24.4482C188.905 24.4482 193.805 33.7883 193.805 46.8576H170.357V48.0166C170.357 59.8451 174.102 69.0966 180.964 69.0966C185.331 69.0966 189.609 65.4492 191.925 54.0707H193.976H193.989ZM170.542 43.5784H186.944C186.944 35.22 185.071 27.748 179.365 27.748C173.658 27.748 171.164 34.6814 170.542 43.5784Z" fill="#D1FFD2"/>
<path d="M2.09901 153.512C0.581868 151.855 0.151326 149.183 0.80739 145.508C1.22426 143.551 1.62063 141.608 2.01017 139.686C2.39288 137.763 2.82342 135.698 3.3018 133.502C4.49091 127.101 5.52968 121.885 6.42493 117.849L0.0078125 116.874L0.274338 115.095L2.05801 113.67L12.309 104.78L14.0038 105.223L12.4867 113.67H25.2321L25.5874 114.024L25.0544 117.045H11.858C11.0857 120.842 10.252 125.048 9.36355 129.671C8.11293 136.666 7.28601 141.383 6.86914 143.81C6.39076 146.422 6.46594 148.317 7.09466 149.503C7.71656 150.689 8.80316 151.283 10.3476 151.283C12.4867 151.283 14.3182 150.362 15.8285 148.528C17.3457 146.687 18.6646 144.138 19.7922 140.879L22.3755 141.411C21.4871 144.315 20.4004 146.837 19.1225 148.971C17.8445 151.105 16.2864 152.81 14.4412 154.085C12.596 155.359 10.5185 155.993 8.20177 155.993C5.64586 155.993 3.60933 155.162 2.09218 153.505L2.09901 153.512Z" fill="#D1FFD2"/>
<path d="M25.3818 154.398L36.077 93.5644L27.9651 94.0962L28.6758 89.917L42.4942 89.5625C42.1935 90.926 41.9611 92.1396 41.7834 93.2099C41.4827 94.8734 41.1889 96.5301 40.895 98.1936L34.9221 131.634H35.544C37.2046 127.959 38.9883 124.68 40.895 121.803C42.7948 118.926 44.8314 116.628 47.0046 114.91C49.171 113.192 51.3852 112.333 53.6472 112.333C56.1416 112.333 57.9526 113.192 59.0871 114.91C60.2147 116.628 60.365 119.328 59.5313 123.003L53.3807 150.307L54.0026 150.484C55.4856 148.944 56.5722 147.785 57.2556 147.014C57.939 146.244 58.9914 145.085 60.4197 143.544L63.1806 146.387C62.7023 146.864 61.5473 148.016 59.7021 149.857C58.0962 151.398 56.7772 152.598 55.7384 153.457C54.6997 154.316 53.8522 154.882 53.1962 155.148C52.5401 155.414 51.8294 155.55 51.0571 155.55C49.6288 155.55 48.6379 155.134 48.0707 154.302C47.5035 153.471 47.3736 152.23 47.6675 150.566L53.8181 123.616C54.2965 121.66 54.3238 120.18 53.9069 119.171C53.49 118.162 52.629 117.658 51.3237 117.658C49.1846 117.658 46.7449 119.321 44.0113 122.635C41.2777 125.955 38.7833 130.079 36.5212 134.995C34.2592 139.917 32.7147 144.485 31.8878 148.691L30.6372 155.27L25.375 154.384L25.3818 154.398Z" fill="#D1FFD2"/>
<path d="M68.0991 153.552C66.9373 151.984 66.3633 149.775 66.3633 146.926C66.3633 143.012 67.2722 138.315 69.0832 132.827C70.8942 127.345 73.375 122.573 76.5254 118.51C79.6759 114.447 83.1544 112.415 86.9541 112.415C88.2594 112.415 89.8654 112.681 91.7652 113.213C93.6651 113.744 95.3599 114.399 96.8497 115.169L98.7222 110.008H102.645L95.3326 150.293L95.8656 150.471C97.3486 148.93 98.4352 147.771 99.1186 147.001C99.802 146.23 100.854 145.071 102.283 143.53L105.133 146.373C104.599 146.851 103.41 148.003 101.565 149.843C99.9592 151.384 98.6402 152.584 97.6015 153.443C96.5627 154.302 95.7153 154.868 95.0592 155.134C94.4032 155.4 93.6924 155.536 92.9202 155.536C91.4919 155.536 90.5009 155.12 89.9337 154.289C89.3665 153.457 89.2366 152.216 89.5305 150.552L92.2026 136.324H91.6696C89.8244 140.353 87.8494 143.837 85.7445 146.776C83.6328 149.714 81.5074 151.964 79.3684 153.532C77.2293 155.1 75.2338 155.891 73.3955 155.891C71.0172 155.891 69.2472 155.107 68.0923 153.532L68.0991 153.552ZM82.5872 145.814C85.3208 142.583 87.863 138.608 90.2071 133.897C92.5511 129.186 94.1708 124.782 95.066 120.691C93.4601 119.389 91.7379 118.319 89.8927 117.487C88.0475 116.655 86.4484 116.24 85.0816 116.24C82.9425 116.24 80.9197 117.992 79.0198 121.489C77.12 124.987 75.5755 129.138 74.3864 133.938C73.1973 138.738 72.6027 142.685 72.6027 145.767C72.6027 147.546 72.8556 148.807 73.3613 149.543C73.867 150.287 74.5914 150.655 75.5482 150.655C77.5095 150.655 79.8536 149.039 82.5872 145.807V145.814Z" fill="#D1FFD2"/>
<path d="M111.31 153.512C109.793 151.855 109.362 149.183 110.018 145.508C110.435 143.551 110.832 141.608 111.221 139.686C111.604 137.763 112.034 135.698 112.513 133.502C113.702 127.101 114.741 121.885 115.636 117.849L109.219 116.874L109.485 115.095L111.269 113.67L121.52 104.78L123.215 105.223L121.698 113.67H134.443L134.798 114.024L134.265 117.045H121.069C120.297 120.842 119.463 125.048 118.574 129.671C117.324 136.666 116.497 141.383 116.08 143.81C115.602 146.422 115.677 148.317 116.306 149.503C116.927 150.689 118.014 151.283 119.559 151.283C121.698 151.283 123.529 150.362 125.039 148.528C126.557 146.687 127.876 144.138 129.003 140.879L131.586 141.411C130.698 144.315 129.611 146.837 128.333 148.971C127.055 151.105 125.497 152.81 123.652 154.085C121.807 155.359 119.729 155.993 117.413 155.993C114.857 155.993 112.82 155.162 111.303 153.505L111.31 153.512Z" fill="#D1FFD2"/>
<path d="M161.542 94.103L162.253 89.9238L176.071 89.5693C175.955 90.1011 175.716 91.2874 175.361 93.1281C175.121 94.3144 174.944 95.1734 174.828 95.7052C174.711 96.2369 174.561 97.0687 174.383 98.1936L165.021 150.307L165.554 150.484C167.037 148.944 168.123 147.785 168.807 147.014C169.49 146.244 170.543 145.085 171.971 143.544L174.821 146.387C174.288 146.864 173.099 148.016 171.253 149.857C169.647 151.398 168.328 152.598 167.29 153.457C166.251 154.316 165.403 154.882 164.747 155.148C164.091 155.414 163.381 155.55 162.608 155.55C161.18 155.55 160.189 155.134 159.622 154.302C159.055 153.471 158.925 152.23 159.219 150.566L169.647 93.5576L161.535 94.0894L161.542 94.103Z" fill="#D1FFD2"/>
<path d="M180.705 151.643C178.477 148.794 177.363 145.092 177.363 140.524C177.363 136.372 178.224 132.104 179.947 127.714C181.669 123.33 184.122 119.683 187.3 116.778C190.478 113.874 194.12 112.422 198.221 112.422C202.321 112.422 205.636 113.785 207.802 116.512C209.968 119.239 211.055 122.771 211.055 127.093C211.055 131.416 210.194 135.738 208.472 140.21C206.749 144.69 204.31 148.426 201.159 151.418C198.009 154.411 194.38 155.911 190.28 155.911C186.179 155.911 182.926 154.486 180.698 151.643H180.705ZM198.309 148.705C200.332 146.094 201.877 142.862 202.943 139.01C204.016 135.159 204.549 131.395 204.549 127.714C204.549 124.032 203.995 121.121 202.902 118.953C201.802 116.792 200.032 115.708 197.599 115.708C194.571 115.708 192.029 117.071 189.979 119.799C187.929 122.526 186.384 125.859 185.345 129.807C184.307 133.747 183.787 137.531 183.787 141.144C183.787 144.758 184.354 147.505 185.482 149.55C186.61 151.596 188.428 152.618 190.922 152.618C193.833 152.618 196.3 151.316 198.323 148.705H198.309Z" fill="#D1FFD2"/>
<path d="M217.979 151.419C217.118 148.719 217.221 145.147 218.294 140.701L223.467 118.026L222.934 117.849C221.451 119.39 220.351 120.549 219.633 121.319C218.922 122.089 217.877 123.248 216.51 124.789L213.66 121.946C214.193 121.469 215.382 120.317 217.227 118.476C218.833 116.935 220.152 115.735 221.191 114.876C222.23 114.017 223.077 113.452 223.733 113.186C224.39 112.92 225.1 112.783 225.872 112.783C227.301 112.783 228.292 113.213 228.859 114.072C229.426 114.931 229.529 116.158 229.173 117.76L223.911 140.347C223.139 143.49 222.975 145.924 223.419 147.642C223.863 149.36 225.189 150.219 227.383 150.219C230.055 150.219 232.659 148.958 235.187 146.442C237.716 143.919 239.78 140.62 241.386 136.522C242.992 132.432 243.791 128.191 243.791 123.807C243.791 122.151 243.655 120.59 243.388 119.137C243.121 117.685 242.691 115.954 242.096 113.936L247.98 112.511C248.22 113.165 248.397 113.833 248.514 114.515C248.63 115.197 248.719 115.967 248.78 116.826C248.835 117.685 248.869 118.558 248.869 119.451C248.869 124.435 247.707 129.766 245.39 135.459C243.074 141.151 240.039 145.91 236.294 149.735C232.549 153.559 228.688 155.468 224.704 155.468C221.075 155.468 218.833 154.118 217.972 151.426L217.979 151.419Z" fill="#D1FFD2"/>
<path d="M255.514 154.487C253.819 153.539 252.466 152.039 251.455 149.994C250.443 147.949 249.938 145.358 249.938 142.215C249.938 137.647 250.887 133.052 252.787 128.43C254.687 123.808 257.257 119.983 260.496 116.956C263.735 113.929 267.282 112.422 271.15 112.422C274.123 112.422 276.44 113.09 278.1 114.427C279.761 115.763 280.595 117.522 280.595 119.717C280.595 122.444 279.618 124.919 277.656 127.142C275.695 129.364 272.784 131.409 268.922 133.277C265.061 135.145 260.188 136.911 254.304 138.568L254.571 136.257C261.822 133.884 266.934 131.348 269.906 128.655C272.879 125.955 274.362 123.099 274.362 120.072C274.362 118.77 273.904 117.713 272.982 116.915C272.059 116.118 270.884 115.715 269.462 115.715C266.845 115.715 264.528 117.065 262.512 119.758C260.489 122.458 258.931 125.819 257.831 129.855C256.73 133.891 256.184 137.77 256.184 141.506C256.184 144.888 256.765 147.376 257.92 148.978C259.081 150.58 260.79 151.378 263.045 151.378C264.651 151.378 266.271 150.744 267.904 149.469C269.537 148.194 271.055 146.613 272.449 144.71C273.843 142.815 275.134 140.797 276.324 138.663L278.551 139.645C277.478 142.195 276.201 144.656 274.718 147.028C273.235 149.401 271.362 151.473 269.1 153.253C266.838 155.032 264.255 155.919 261.343 155.919C259.143 155.919 257.195 155.441 255.507 154.494L255.514 154.487Z" fill="#D1FFD2"/>
<path d="M285.361 154.937C283.044 154.228 281.199 153.307 279.832 152.183L282.238 145.958H283.311C283.905 147.26 284.677 148.419 285.627 149.428C286.577 150.437 287.677 151.235 288.928 151.828C290.179 152.421 291.511 152.714 292.94 152.714C295.256 152.714 297.19 152.108 298.735 150.894C300.279 149.68 301.052 148.003 301.052 145.869C301.052 143.974 300.484 142.283 299.357 140.797C298.229 139.318 296.117 137.416 293.028 135.104C290.411 133.209 288.559 131.382 287.459 129.637C286.358 127.891 285.812 125.798 285.812 123.365C285.812 121.469 286.242 119.676 287.103 117.986C287.964 116.295 289.27 114.945 291.026 113.936C292.776 112.927 294.935 112.422 297.491 112.422C299.808 112.422 302.111 112.811 304.4 113.581C306.69 114.352 308.425 115.299 309.615 116.424L307.12 122.206H306.136C305.48 120.958 304.667 119.833 303.683 118.824C302.705 117.815 301.605 117.045 300.382 116.513C299.165 115.981 297.928 115.715 296.685 115.715C294.962 115.715 293.582 116.247 292.536 117.317C291.498 118.381 290.978 119.84 290.978 121.674C290.978 123.276 291.381 124.667 292.181 125.853C292.981 127.039 294.484 128.43 296.685 130.032C299.357 132.05 301.291 133.632 302.48 134.791C303.669 135.95 304.592 137.238 305.241 138.656C305.897 140.081 306.218 141.738 306.218 143.64C306.218 145.542 305.74 147.437 304.79 149.333C303.84 151.235 302.323 152.817 300.245 154.091C298.168 155.366 295.523 156 292.311 156C289.994 156 287.677 155.646 285.354 154.937H285.361Z" fill="#D1FFD2"/>
<path d="M338.447 153.512C336.93 151.855 336.499 149.183 337.155 145.508C337.572 143.551 337.968 141.608 338.358 139.686C338.741 137.763 339.171 135.698 339.649 133.502C340.839 127.101 341.877 121.885 342.773 117.849L336.355 116.874L336.622 115.095L338.406 113.67L348.657 104.78L350.351 105.223L348.834 113.67H361.58L361.935 114.024L361.402 117.045H348.206C347.433 120.842 346.6 125.048 345.711 129.671C344.461 136.666 343.627 141.383 343.217 143.81C342.738 146.422 342.814 148.317 343.442 149.503C344.064 150.689 345.151 151.283 346.695 151.283C348.834 151.283 350.659 150.362 352.176 148.528C353.693 146.687 355.012 144.138 356.14 140.879L358.723 141.411C357.835 144.315 356.748 146.837 355.47 148.971C354.192 151.105 352.634 152.81 350.789 154.085C348.944 155.359 346.866 155.993 344.549 155.993C341.994 155.993 339.957 155.162 338.44 153.505L338.447 153.512Z" fill="#D1FFD2"/>
<path d="M361.74 154.398L372.435 93.5644L364.323 94.0962L365.034 89.917L378.853 89.5625C378.552 90.926 378.32 92.1396 378.142 93.2099C377.841 94.8734 377.547 96.5301 377.253 98.1936L371.281 131.634H371.902C373.563 127.959 375.347 124.68 377.253 121.803C379.153 118.926 381.19 116.628 383.363 114.91C385.529 113.192 387.744 112.333 390.006 112.333C392.5 112.333 394.311 113.192 395.445 114.91C396.573 116.628 396.723 119.328 395.89 123.003L389.739 150.307L390.361 150.484C391.844 148.944 392.931 147.785 393.614 147.014C394.297 146.244 395.35 145.085 396.778 143.544L399.539 146.387C399.061 146.864 397.906 148.016 396.061 149.857C394.455 151.398 393.129 152.598 392.09 153.457C391.051 154.316 390.204 154.882 389.548 155.148C388.892 155.414 388.181 155.55 387.409 155.55C385.98 155.55 384.989 155.134 384.422 154.302C383.855 153.471 383.725 152.23 384.019 150.566L390.17 123.616C390.648 121.66 390.675 120.18 390.258 119.171C389.842 118.162 388.981 117.658 387.675 117.658C385.536 117.658 383.096 119.321 380.363 122.635C377.629 125.955 375.135 130.079 372.873 134.995C370.611 139.917 369.066 144.485 368.239 148.691L366.989 155.27L361.727 154.384L361.74 154.398Z" fill="#D1FFD2"/>
<path d="M407.819 154.487C406.124 153.539 404.771 152.039 403.759 149.994C402.748 147.949 402.242 145.358 402.242 142.215C402.242 137.647 403.192 133.052 405.092 128.43C406.992 123.808 409.561 119.983 412.801 116.956C416.04 113.929 419.587 112.422 423.455 112.422C426.428 112.422 428.744 113.09 430.412 114.427C432.073 115.763 432.906 117.522 432.906 119.717C432.906 122.444 431.922 124.919 429.968 127.142C428.006 129.364 425.095 131.409 421.234 133.277C417.373 135.145 412.5 136.911 406.616 138.568L406.882 136.257C414.133 133.884 419.245 131.348 422.218 128.655C425.191 125.955 426.674 123.099 426.674 120.072C426.674 118.77 426.216 117.713 425.293 116.915C424.371 116.118 423.195 115.715 421.774 115.715C419.156 115.715 416.84 117.065 414.824 119.758C412.801 122.458 411.243 125.819 410.142 129.855C409.042 133.891 408.495 137.77 408.495 141.506C408.495 144.888 409.076 147.376 410.231 148.978C411.393 150.58 413.095 151.378 415.357 151.378C416.963 151.378 418.582 150.744 420.216 149.469C421.849 148.194 423.366 146.613 424.76 144.71C426.154 142.815 427.446 140.797 428.635 138.663L430.863 139.645C429.79 142.195 428.512 144.656 427.029 147.028C425.546 149.401 423.667 151.473 421.412 153.253C419.149 155.032 416.566 155.919 413.655 155.919C411.454 155.919 409.507 155.441 407.819 154.494V154.487Z" fill="#D1FFD2"/>
<path d="M460.588 151.644C458.36 148.794 457.246 145.092 457.246 140.524C457.246 136.373 458.107 132.105 459.829 127.714C461.551 123.331 464.005 119.683 467.183 116.779C470.361 113.875 474.003 112.422 478.103 112.422C482.204 112.422 485.518 113.786 487.685 116.513C489.851 119.24 490.938 122.771 490.938 127.094C490.938 131.416 490.077 135.739 488.354 140.211C486.632 144.69 484.193 148.426 481.042 151.419C477.892 154.412 474.27 155.912 470.162 155.912C466.055 155.912 462.809 154.487 460.581 151.644H460.588ZM478.192 148.706C480.215 146.094 481.76 142.863 482.826 139.011C483.899 135.159 484.432 131.396 484.432 127.714C484.432 124.033 483.885 121.122 482.785 118.954C481.684 116.792 479.914 115.708 477.482 115.708C474.447 115.708 471.912 117.072 469.862 119.799C467.811 122.526 466.267 125.86 465.228 129.807C464.189 133.748 463.67 137.532 463.67 141.145C463.67 144.758 464.237 147.506 465.365 149.551C466.492 151.596 468.303 152.619 470.805 152.619C473.716 152.619 476.183 151.317 478.206 148.706H478.192Z" fill="#D1FFD2"/>
<path d="M496.471 152.666C494.393 150.505 493.348 147.021 493.348 142.215C493.348 137.947 494.27 133.488 496.109 128.832C497.947 124.175 500.462 120.283 503.64 117.14C506.817 113.997 510.31 112.429 514.116 112.429C516.139 112.429 518.066 112.77 519.911 113.451C521.75 114.133 523.417 115.006 524.9 116.076L522.139 122.389H521.34C520.684 121.142 519.898 120.03 518.975 119.055C518.053 118.074 517.027 117.324 515.9 116.785C514.772 116.253 513.61 115.987 512.421 115.987C509.865 115.987 507.61 117.31 505.649 119.942C503.687 122.58 502.184 125.9 501.145 129.902C500.106 133.904 499.587 137.831 499.587 141.683C499.587 144.887 500.154 147.301 501.282 148.93C502.41 150.559 504.015 151.378 506.093 151.378C508.649 151.378 511.13 150.116 513.535 147.601C515.941 145.078 517.977 142.099 519.645 138.663L522.05 139.645C520.977 142.256 519.713 144.73 518.264 147.069C516.809 149.414 514.909 151.473 512.558 153.252C510.207 155.032 507.549 155.918 504.583 155.918C501.255 155.918 498.548 154.834 496.471 152.673V152.666Z" fill="#D1FFD2"/>
<path d="M530.94 154.487C529.245 153.539 527.892 152.039 526.88 149.994C525.869 147.949 525.363 145.358 525.363 142.215C525.363 137.647 526.313 133.052 528.213 128.43C530.113 123.808 532.682 119.983 535.922 116.956C539.161 113.929 542.708 112.422 546.576 112.422C549.549 112.422 551.866 113.09 553.526 114.427C555.187 115.763 556.021 117.522 556.021 119.717C556.021 122.444 555.043 124.919 553.082 127.142C551.121 129.364 548.209 131.409 544.348 133.277C540.487 135.145 535.614 136.911 529.73 138.568L529.997 136.257C537.248 133.884 542.359 131.348 545.332 128.655C548.305 125.955 549.788 123.099 549.788 120.072C549.788 118.77 549.33 117.713 548.407 116.915C547.485 116.118 546.309 115.715 544.888 115.715C542.271 115.715 539.954 117.065 537.938 119.758C535.915 122.458 534.357 125.819 533.257 129.855C532.156 133.891 531.61 137.77 531.61 141.506C531.61 144.888 532.19 147.376 533.345 148.978C534.507 150.58 536.216 151.378 538.471 151.378C540.077 151.378 541.697 150.744 543.33 149.469C544.963 148.194 546.48 146.613 547.874 144.71C549.269 142.815 550.56 140.797 551.749 138.663L553.977 139.645C552.904 142.195 551.626 144.656 550.143 147.028C548.66 149.401 546.788 151.473 544.526 153.253C542.264 155.032 539.68 155.919 536.769 155.919C534.569 155.919 532.621 155.441 530.933 154.494L530.94 154.487Z" fill="#D1FFD2"/>
<path d="M559.251 153.553C558.09 151.985 557.516 149.776 557.516 146.926C557.516 143.013 558.425 138.315 560.236 132.827C562.047 127.346 564.527 122.574 567.678 118.51C570.828 114.447 574.307 112.415 578.106 112.415C579.412 112.415 581.018 112.681 582.918 113.213C584.817 113.745 586.512 114.399 588.002 115.17L589.875 110.009H593.797L586.485 150.294L587.018 150.471C588.501 148.93 589.588 147.771 590.271 147.001C590.954 146.231 592.007 145.072 593.435 143.531L596.285 146.374C595.752 146.851 594.563 148.003 592.718 149.844C591.112 151.385 589.793 152.585 588.754 153.444C587.715 154.303 586.868 154.869 586.212 155.134C585.555 155.4 584.845 155.537 584.073 155.537C582.644 155.537 581.653 155.121 581.086 154.289C580.519 153.457 580.389 152.216 580.683 150.553L583.355 136.325H582.822C580.977 140.354 579.002 143.838 576.897 146.776C574.785 149.714 572.66 151.964 570.521 153.532C568.382 155.1 566.386 155.891 564.548 155.891C562.17 155.891 560.4 155.107 559.245 153.532L559.251 153.553ZM573.733 145.815C576.466 142.583 579.009 138.609 581.353 133.898C583.697 129.187 585.316 124.782 586.212 120.692C584.606 119.39 582.883 118.319 581.038 117.488C579.193 116.656 577.594 116.24 576.227 116.24C574.088 116.24 572.065 117.992 570.165 121.49C568.266 124.987 566.721 129.139 565.532 133.939C564.343 138.738 563.748 142.685 563.748 145.767C563.748 147.546 564.001 148.808 564.507 149.544C565.013 150.287 565.737 150.655 566.694 150.655C568.655 150.655 570.999 149.039 573.733 145.808V145.815Z" fill="#D1FFD2"/>
<path d="M600.519 154.398L607.291 118.026L606.758 117.848C605.275 119.389 604.175 120.548 603.457 121.319C602.747 122.089 601.701 123.248 600.334 124.789L597.484 121.946C598.017 121.469 599.207 120.316 601.052 118.476C602.658 116.935 603.977 115.735 605.015 114.876C606.054 114.017 606.902 113.451 607.558 113.185C608.214 112.919 608.924 112.783 609.697 112.783C611.125 112.783 612.116 113.199 612.683 114.031C613.25 114.862 613.38 116.103 613.086 117.767L610.325 131.64H610.858C612.581 127.966 614.378 124.686 616.25 121.809C618.123 118.932 620.146 116.635 622.312 114.917C624.479 113.199 626.666 112.34 628.866 112.34C631.422 112.34 633.26 113.199 634.395 114.917C635.522 116.635 635.673 119.335 634.839 123.009L628.688 150.314L629.31 150.491C630.739 148.95 631.805 147.791 632.522 147.021C633.233 146.251 634.272 145.092 635.645 143.551L638.495 146.394C637.962 146.871 636.773 148.023 634.928 149.864C633.383 151.405 632.078 152.605 631.005 153.464C629.932 154.323 629.071 154.888 628.422 155.154C627.766 155.42 627.082 155.557 626.372 155.557C624.943 155.557 623.932 155.141 623.344 154.309C622.75 153.477 622.633 152.236 622.989 150.573L629.139 123.623C629.556 121.666 629.556 120.187 629.139 119.178C628.723 118.169 627.889 117.664 626.645 117.664C624.506 117.664 622.066 119.219 619.333 122.334C616.599 125.45 614.118 129.438 611.89 134.299C609.663 139.16 608.104 143.967 607.209 148.705L605.958 155.284L600.519 154.398Z" fill="#D1FFD2"/>
<path d="M644.755 154.937C642.439 154.228 640.593 153.307 639.227 152.183L641.632 145.958H642.705C643.3 147.26 644.072 148.419 645.022 149.428C645.972 150.437 647.072 151.235 648.323 151.828C649.573 152.421 650.906 152.714 652.334 152.714C654.651 152.714 656.585 152.108 658.129 150.894C659.674 149.68 660.446 148.003 660.446 145.869C660.446 143.974 659.879 142.283 658.751 140.797C657.624 139.318 655.512 137.416 652.423 135.104C649.806 133.209 647.954 131.382 646.853 129.637C645.753 127.891 645.206 125.798 645.206 123.365C645.206 121.469 645.637 119.676 646.498 117.986C647.359 116.295 648.664 114.945 650.421 113.936C652.17 112.927 654.33 112.422 656.886 112.422C659.202 112.422 661.505 112.811 663.795 113.581C666.084 114.352 667.82 115.299 669.009 116.424L666.515 122.206H665.537C664.881 120.958 664.068 119.833 663.084 118.824C662.107 117.815 661.007 117.045 659.783 116.513C658.567 115.981 657.33 115.715 656.086 115.715C654.364 115.715 652.983 116.247 651.938 117.317C650.899 118.381 650.38 119.84 650.38 121.674C650.38 123.276 650.783 124.667 651.582 125.853C652.382 127.039 653.886 128.43 656.086 130.032C658.758 132.05 660.692 133.632 661.881 134.791C663.07 135.95 663.993 137.238 664.642 138.656C665.298 140.081 665.626 141.738 665.626 143.64C665.626 145.542 665.148 147.437 664.198 149.333C663.248 151.235 661.731 152.817 659.653 154.091C657.569 155.366 654.931 156 651.719 156C649.402 156 647.086 155.646 644.769 154.937H644.755Z" fill="#D1FFD2"/>
</g>
<defs>
<clipPath id="clip0_740_736">
<rect width="669" height="156" fill="white"/>
</clipPath>
</defs>
</svg>
