<svg width="35" height="33" viewBox="0 0 35 33" fill="none" xmlns="http://www.w3.org/2000/svg">
<path fill-rule="evenodd" clip-rule="evenodd" d="M9.56891 26.0839C11.3573 27.2702 13.4583 27.8979 15.6468 27.8979C18.4763 27.8979 21.1366 26.8593 23.1371 24.974C29.7586 18.7342 31.4627 7.56593 31.8885 3.0535L31.9345 2.56396L31.4143 2.60733C26.6319 3.00426 14.7936 4.60224 8.15726 10.856C6.15678 12.7421 5.05476 15.2486 5.05476 17.9146C5.05398 19.9757 5.71925 21.9573 6.97959 23.6435L7.2783 24.0434L20.2912 11.7799C20.5384 11.5455 20.8706 11.4153 21.2232 11.4153C21.5757 11.4153 21.9064 11.5447 22.1559 11.7792C22.4055 12.0144 22.5428 12.3268 22.5428 12.6583C22.5428 12.9913 22.4055 13.3037 22.1559 13.5389L9.14463 25.8016L9.56891 26.0839ZM1.65878 32.3419C1.30626 32.3419 0.974794 32.2133 0.727561 31.9795C0.212818 31.4936 0.212818 30.7042 0.726002 30.2191L5.41017 25.8051L5.17463 25.5177C3.37069 23.3192 2.41764 20.6907 2.41764 17.9152C2.41764 14.584 3.79341 11.4534 6.29225 9.09909C8.89171 6.64993 13.8855 3.31651 22.9177 1.34807C28.3802 0.158034 32.8195 0.0124957 33.3077 0H33.3085C33.6821 0 34.0245 0.132308 34.2701 0.364581C34.5244 0.60347 34.6648 0.934974 34.657 1.27383C34.6429 1.73911 34.4854 5.93253 33.2266 11.0639C31.138 19.5771 27.6011 24.2843 25.0024 26.7328C22.5036 29.0886 19.1811 30.3859 15.6465 30.3859C12.7016 30.3859 9.91183 29.4862 7.57989 27.7854L7.27494 27.5641L2.59234 31.978C2.34198 32.2125 2.0113 32.3419 1.65878 32.3419Z" fill="#79E071"/>
</svg>
