<svg width="114" height="111" viewBox="0 0 114 111" fill="none" xmlns="http://www.w3.org/2000/svg">
<path d="M56.999 0C26.0575 0 0.970703 24.8465 0.970703 55.5024C0.970703 86.1535 26.0525 111.005 56.999 111.005C87.9454 111.005 113.027 86.1584 113.027 55.5024C113.027 24.8513 87.9454 0 56.999 0ZM43.1887 80.2368H31.5924V43.1279H43.1887V80.2368ZM37.334 38.2688C33.5456 38.2688 30.4756 35.1983 30.4756 31.4212C30.4756 27.644 33.5456 24.5735 37.334 24.5735C41.1223 24.5735 44.1924 27.6391 44.1924 31.4212C44.1924 35.2032 41.1223 38.2688 37.334 38.2688ZM86.6416 80.2368H75.0994V60.7564C75.0994 55.4147 73.0527 52.432 68.7871 52.432C64.1476 52.432 61.7221 55.5414 61.7221 60.7564V80.2368H50.5981V43.1279H61.7221V48.1284C61.7221 48.1284 65.0677 41.9972 73.0134 41.9972C80.9591 41.9972 86.6416 46.8028 86.6416 56.7452V80.2417V80.2368Z" fill="#79E071"/>
</svg>
