<svg width="185" height="42" viewBox="0 0 185 42" fill="none" xmlns="http://www.w3.org/2000/svg">
<path d="M31.7133 5.46729C31.1697 5.46727 30.6314 5.57413 30.1295 5.78169C29.6277 5.98925 29.1722 6.2934 28.7894 6.6766L21.653 13.7623C21.3946 14.0163 21.0454 14.1582 20.6818 14.1568C20.3182 14.1555 19.97 14.011 19.7135 13.7551L12.5833 6.67656C12.0061 6.10018 11.2694 5.70712 10.4667 5.54732C9.66404 5.38752 8.83161 5.46819 8.07521 5.77909C7.31882 6.08999 6.6726 6.61707 6.21868 7.29337C5.76475 7.96967 5.52361 8.76465 5.52589 9.57731V31.4754C5.52608 32.5637 5.96171 33.6074 6.73698 34.377C7.51226 35.1466 8.5637 35.579 9.6601 35.5791H31.7133C32.8096 35.5785 33.8608 35.146 34.636 34.3765C35.4112 33.607 35.8469 32.5636 35.8476 31.4754V9.57731C35.8459 8.48883 35.4101 7.4453 34.6353 6.67505C33.8605 5.90479 32.8099 5.47053 31.7133 5.46729ZM33.0959 31.4754C33.0941 31.8383 32.9476 32.1858 32.6886 32.4419C32.4295 32.698 32.0789 32.842 31.7133 32.8423H9.6601C9.47883 32.8428 9.29923 32.8078 9.13157 32.7394C8.96392 32.671 8.8115 32.5704 8.68303 32.4434C8.55455 32.3165 8.45254 32.1656 8.38283 31.9995C8.31312 31.8334 8.27707 31.6553 8.27674 31.4754V9.57731C8.277 9.39731 8.313 9.21913 8.38268 9.05296C8.45236 8.88678 8.55435 8.73587 8.68283 8.60885C8.81131 8.48184 8.96375 8.3812 9.13144 8.31271C9.29913 8.24422 9.47877 8.20921 9.6601 8.20968C9.84016 8.20898 10.0185 8.24412 10.1847 8.31303C10.3508 8.38193 10.5013 8.48321 10.6273 8.61086L17.7824 15.7085H17.7854C18.5559 16.4674 19.5973 16.8932 20.6828 16.8932C21.7682 16.8932 22.8096 16.4674 23.5801 15.7085L23.5977 15.6958L23.6085 15.6864L30.735 8.61086C30.8631 8.48292 31.0156 8.38156 31.1836 8.31269C31.3516 8.24381 31.5316 8.2088 31.7134 8.20968C32.0791 8.21011 32.4298 8.35419 32.6888 8.61045C32.9478 8.8667 33.0942 9.21429 33.0959 9.57731V31.4754Z" fill="black"/>
<path d="M31.712 2.58942e-07H9.65874C7.09869 -0.000589995 4.64316 1.00795 2.83197 2.8039C1.02077 4.59986 0.00214121 7.03625 0 9.57747L0.00714374 31.4803C0.00871622 34.0199 1.02639 36.4549 2.83634 38.2498C4.6463 40.0446 7.10033 41.0524 9.65874 41.0515H31.712C34.27 41.0508 36.723 40.0416 38.5315 38.2458C40.34 36.45 41.3558 34.0147 41.3556 31.4755V9.57747C41.3559 7.03812 40.3401 4.60264 38.5316 2.8066C36.7232 1.01056 34.2701 0.0010291 31.712 2.58942e-07ZM38.6008 31.4755C38.601 33.2894 37.8754 35.029 36.5835 36.3117C35.2915 37.5944 33.5392 38.3152 31.712 38.3154H9.65874C8.75337 38.3161 7.85674 38.1397 7.02009 37.7962C6.18343 37.4528 5.42314 36.9491 4.78266 36.3139C4.14218 35.6787 3.63407 34.9245 3.28735 34.0943C2.94063 33.2641 2.7621 32.3742 2.76196 31.4755V9.57747C2.76229 7.76188 3.48902 6.02075 4.78234 4.73693C6.07567 3.45312 7.8297 2.73173 9.65874 2.7314H31.712C33.5398 2.73334 35.2921 3.45549 36.5838 4.73919C37.8755 6.02288 38.601 7.7631 38.6008 9.57747V31.4755Z" fill="black"/>
<path d="M93.7998 8.10169V19.5257H96.1038V14.6937H97.3358C97.8158 14.6937 98.1571 14.8217 98.3598 15.0777C98.5625 15.3337 98.6745 15.6857 98.6958 16.1337L98.7598 18.3257C98.7705 18.5497 98.7918 18.7684 98.8238 18.9817C98.8558 19.1844 98.9305 19.3657 99.0478 19.5257H101.544V19.4297C101.33 19.3124 101.192 19.0937 101.128 18.7737C101.085 18.4537 101.053 17.9897 101.032 17.3817C101.021 17.0724 101.01 16.795 101 16.5497C100.989 16.2937 100.973 16.059 100.952 15.8457C100.888 15.2057 100.722 14.7417 100.456 14.4537C100.189 14.1657 99.7678 13.979 99.1918 13.8937V13.8617C99.8425 13.723 100.322 13.4137 100.632 12.9337C100.941 12.443 101.096 11.8137 101.096 11.0457C101.096 10.0537 100.829 9.31769 100.296 8.83769C99.7625 8.34702 99.0158 8.10169 98.0558 8.10169H93.7998ZM96.1038 13.0937V9.79769H97.1918C98.2585 9.79769 98.7918 10.3257 98.7918 11.3817C98.7918 12.0004 98.6425 12.443 98.3438 12.7097C98.0451 12.9657 97.6185 13.0937 97.0638 13.0937H96.1038Z" fill="black"/>
<path d="M109.157 8.10169H102.773V19.5257H109.317V17.6377H105.077V14.5657H108.917V12.6777H105.077V9.98969H109.157V8.10169Z" fill="black"/>
<path d="M115.438 11.9577H117.742C117.742 11.5417 117.71 11.099 117.646 10.6297C117.593 10.1497 117.449 9.70702 117.214 9.30169C116.979 8.88569 116.622 8.54435 116.142 8.27769C115.673 8.01102 115.027 7.87769 114.206 7.87769C113.342 7.87769 112.654 8.02702 112.142 8.32569C111.63 8.61369 111.235 9.01902 110.958 9.54169C110.691 10.0644 110.515 10.6937 110.43 11.4297C110.355 12.155 110.318 12.9497 110.318 13.8137C110.318 14.6884 110.355 15.4884 110.43 16.2137C110.515 16.939 110.691 17.563 110.958 18.0857C111.235 18.6084 111.63 19.0084 112.142 19.2857C112.654 19.563 113.342 19.7017 114.206 19.7017C114.963 19.7017 115.577 19.5844 116.046 19.3497C116.526 19.115 116.894 18.7897 117.15 18.3737C117.417 17.9577 117.598 17.4724 117.694 16.9177C117.79 16.363 117.838 15.7764 117.838 15.1577H115.534C115.534 15.7764 115.497 16.2777 115.422 16.6617C115.347 17.035 115.246 17.3284 115.118 17.5417C114.99 17.7444 114.835 17.883 114.654 17.9577C114.483 18.0217 114.297 18.0537 114.094 18.0537C113.849 18.0537 113.63 18.0057 113.438 17.9097C113.257 17.803 113.102 17.6057 112.974 17.3177C112.857 17.019 112.766 16.603 112.702 16.0697C112.649 15.5364 112.622 14.8377 112.622 13.9737C112.622 13.163 112.643 12.4804 112.686 11.9257C112.729 11.3604 112.803 10.907 112.91 10.5657C113.017 10.2137 113.161 9.96302 113.342 9.81369C113.534 9.65369 113.774 9.57369 114.062 9.57369C114.585 9.57369 114.942 9.76569 115.134 10.1497C115.337 10.523 115.438 11.1257 115.438 11.9577Z" fill="black"/>
<path d="M121.074 8.10169H118.482L121.442 15.0297V19.5257H123.746V15.0297L126.706 8.10169H124.21L122.61 12.5177H122.578L121.074 8.10169Z" fill="black"/>
<path d="M132.509 11.9577H134.813C134.813 11.5417 134.781 11.099 134.717 10.6297C134.663 10.1497 134.519 9.70702 134.285 9.30169C134.05 8.88569 133.693 8.54435 133.213 8.27769C132.743 8.01102 132.098 7.87769 131.277 7.87769C130.413 7.87769 129.725 8.02702 129.213 8.32569C128.701 8.61369 128.306 9.01902 128.029 9.54169C127.762 10.0644 127.586 10.6937 127.501 11.4297C127.426 12.155 127.389 12.9497 127.389 13.8137C127.389 14.6884 127.426 15.4884 127.501 16.2137C127.586 16.939 127.762 17.563 128.029 18.0857C128.306 18.6084 128.701 19.0084 129.213 19.2857C129.725 19.563 130.413 19.7017 131.277 19.7017C132.034 19.7017 132.647 19.5844 133.117 19.3497C133.597 19.115 133.965 18.7897 134.221 18.3737C134.487 17.9577 134.669 17.4724 134.765 16.9177C134.861 16.363 134.909 15.7764 134.909 15.1577H132.605C132.605 15.7764 132.567 16.2777 132.493 16.6617C132.418 17.035 132.317 17.3284 132.189 17.5417C132.061 17.7444 131.906 17.883 131.725 17.9577C131.554 18.0217 131.367 18.0537 131.165 18.0537C130.919 18.0537 130.701 18.0057 130.509 17.9097C130.327 17.803 130.173 17.6057 130.045 17.3177C129.927 17.019 129.837 16.603 129.773 16.0697C129.719 15.5364 129.693 14.8377 129.693 13.9737C129.693 13.163 129.714 12.4804 129.757 11.9257C129.799 11.3604 129.874 10.907 129.981 10.5657C130.087 10.2137 130.231 9.96302 130.413 9.81369C130.605 9.65369 130.845 9.57369 131.133 9.57369C131.655 9.57369 132.013 9.76569 132.205 10.1497C132.407 10.523 132.509 11.1257 132.509 11.9577Z" fill="black"/>
<path d="M136.305 19.5257H142.689V17.6377H138.609V8.10169H136.305V19.5257Z" fill="black"/>
<path d="M150.177 8.10169H143.793V19.5257H150.337V17.6377H146.097V14.5657H149.937V12.6777H146.097V9.98969H150.177V8.10169Z" fill="black"/>
<path d="M153.994 17.8297V9.79769H154.97C155.408 9.79769 155.754 9.88302 156.01 10.0537C156.277 10.2137 156.474 10.459 156.602 10.7897C156.741 11.1097 156.832 11.515 156.874 12.0057C156.917 12.4964 156.938 13.067 156.938 13.7177C156.938 14.4964 156.912 15.147 156.858 15.6697C156.816 16.1924 156.72 16.6137 156.57 16.9337C156.432 17.2537 156.24 17.483 155.994 17.6217C155.749 17.7604 155.424 17.8297 155.018 17.8297H153.994ZM151.69 8.10169V19.5257H155.322C156.09 19.5257 156.725 19.4084 157.226 19.1737C157.728 18.939 158.128 18.5817 158.426 18.1017C158.725 17.6217 158.933 17.0137 159.05 16.2777C159.178 15.531 159.242 14.6564 159.242 13.6537C159.242 12.811 159.194 12.0484 159.098 11.3657C159.002 10.683 158.816 10.1017 158.538 9.62169C158.272 9.13102 157.893 8.75769 157.402 8.50169C156.912 8.23502 156.266 8.10169 155.466 8.10169H151.69Z" fill="black"/>
<path d="M96.1038 30.2697V26.7977H97.0638C97.6398 26.7977 98.0505 26.947 98.2958 27.2457C98.5411 27.5444 98.6638 27.9817 98.6638 28.5577C98.6638 29.1444 98.5198 29.5764 98.2318 29.8537C97.9545 30.131 97.5865 30.2697 97.1278 30.2697H96.1038ZM93.7998 25.1017V36.5257H96.1038V31.9657H97.3358C97.8798 31.9657 98.3758 31.8964 98.8238 31.7577C99.2718 31.619 99.6505 31.411 99.9598 31.1337C100.28 30.8564 100.525 30.499 100.696 30.0617C100.877 29.6244 100.968 29.1124 100.968 28.5257C100.968 28.099 100.914 27.683 100.808 27.2777C100.701 26.8617 100.525 26.4937 100.28 26.1737C100.034 25.8537 99.7091 25.5977 99.3038 25.4057C98.9091 25.203 98.4185 25.1017 97.8318 25.1017H93.7998Z" fill="black"/>
<path d="M102.179 36.5257H108.563V34.6377H104.483V25.1017H102.179V36.5257Z" fill="black"/>
<path d="M114.435 32.2217L113.331 27.0857H113.299L112.195 32.2217H114.435ZM114.739 25.1017L117.763 36.5257H115.363L114.835 34.1097H111.795L111.267 36.5257H108.867L111.891 25.1017H114.739Z" fill="black"/>
<path d="M120.496 32.9577H118.192V33.4217C118.192 34.4777 118.469 35.2884 119.024 35.8537C119.589 36.419 120.523 36.7017 121.824 36.7017C123.072 36.7017 124.043 36.4297 124.736 35.8857C125.44 35.331 125.792 34.451 125.792 33.2457C125.792 32.8937 125.76 32.5737 125.696 32.2857C125.632 31.9977 125.515 31.7364 125.344 31.5017C125.184 31.2564 124.965 31.0324 124.688 30.8297C124.411 30.6164 124.053 30.4137 123.616 30.2217L121.84 29.4537C121.349 29.251 121.029 29.0324 120.88 28.7977C120.731 28.5524 120.656 28.2537 120.656 27.9017C120.656 27.731 120.672 27.5657 120.704 27.4057C120.747 27.2457 120.816 27.107 120.912 26.9897C121.019 26.8617 121.157 26.7604 121.328 26.6857C121.499 26.611 121.712 26.5737 121.968 26.5737C122.416 26.5737 122.736 26.723 122.928 27.0217C123.12 27.3097 123.216 27.7257 123.216 28.2697H125.424V27.9497C125.424 27.4057 125.333 26.9417 125.152 26.5577C124.981 26.163 124.736 25.843 124.416 25.5977C124.107 25.3417 123.733 25.1604 123.296 25.0537C122.869 24.9364 122.4 24.8777 121.888 24.8777C120.789 24.8777 119.925 25.155 119.296 25.7097C118.667 26.2644 118.352 27.107 118.352 28.2377C118.352 28.707 118.411 29.123 118.528 29.4857C118.645 29.8377 118.827 30.1524 119.072 30.4297C119.328 30.6964 119.643 30.931 120.016 31.1337C120.389 31.3364 120.832 31.523 121.344 31.6937C121.728 31.8217 122.048 31.9497 122.304 32.0777C122.571 32.195 122.784 32.3284 122.944 32.4777C123.104 32.627 123.216 32.7977 123.28 32.9897C123.355 33.171 123.392 33.3897 123.392 33.6457C123.392 34.1257 123.248 34.483 122.96 34.7177C122.683 34.9417 122.368 35.0537 122.016 35.0537C121.717 35.0537 121.467 35.011 121.264 34.9257C121.072 34.8404 120.917 34.723 120.8 34.5737C120.683 34.4244 120.603 34.243 120.56 34.0297C120.517 33.8057 120.496 33.5604 120.496 33.2937V32.9577Z" fill="black"/>
<path d="M133.707 25.1017H126.411V26.9897H128.907V36.5257H131.211V26.9897H133.707V25.1017Z" fill="black"/>
<path d="M134.901 36.5257H137.205V25.1017H134.901V36.5257Z" fill="black"/>
<path d="M143.876 28.9577H146.18C146.18 28.5417 146.148 28.099 146.084 27.6297C146.031 27.1497 145.887 26.707 145.652 26.3017C145.417 25.8857 145.06 25.5444 144.58 25.2777C144.111 25.011 143.465 24.8777 142.644 24.8777C141.78 24.8777 141.092 25.027 140.58 25.3257C140.068 25.6137 139.673 26.019 139.396 26.5417C139.129 27.0644 138.953 27.6937 138.868 28.4297C138.793 29.155 138.756 29.9497 138.756 30.8137C138.756 31.6884 138.793 32.4884 138.868 33.2137C138.953 33.939 139.129 34.563 139.396 35.0857C139.673 35.6084 140.068 36.0084 140.58 36.2857C141.092 36.563 141.78 36.7017 142.644 36.7017C143.401 36.7017 144.015 36.5844 144.484 36.3497C144.964 36.115 145.332 35.7897 145.588 35.3737C145.855 34.9577 146.036 34.4724 146.132 33.9177C146.228 33.363 146.276 32.7764 146.276 32.1577H143.972C143.972 32.7764 143.935 33.2777 143.86 33.6617C143.785 34.035 143.684 34.3284 143.556 34.5417C143.428 34.7444 143.273 34.883 143.092 34.9577C142.921 35.0217 142.735 35.0537 142.532 35.0537C142.287 35.0537 142.068 35.0057 141.876 34.9097C141.695 34.803 141.54 34.6057 141.412 34.3177C141.295 34.019 141.204 33.603 141.14 33.0697C141.087 32.5364 141.06 31.8377 141.06 30.9737C141.06 30.163 141.081 29.4804 141.124 28.9257C141.167 28.3604 141.241 27.907 141.348 27.5657C141.455 27.2137 141.599 26.963 141.78 26.8137C141.972 26.6537 142.212 26.5737 142.5 26.5737C143.023 26.5737 143.38 26.7657 143.572 27.1497C143.775 27.523 143.876 28.1257 143.876 28.9577Z" fill="black"/>
<path d="M153.902 30.2697V26.7977H154.862C155.438 26.7977 155.849 26.947 156.094 27.2457C156.339 27.5444 156.462 27.9817 156.462 28.5577C156.462 29.1444 156.318 29.5764 156.03 29.8537C155.753 30.131 155.385 30.2697 154.926 30.2697H153.902ZM151.598 25.1017V36.5257H153.902V31.9657H155.134C155.678 31.9657 156.174 31.8964 156.622 31.7577C157.07 31.619 157.449 31.411 157.758 31.1337C158.078 30.8564 158.323 30.499 158.494 30.0617C158.675 29.6244 158.766 29.1124 158.766 28.5257C158.766 28.099 158.713 27.683 158.606 27.2777C158.499 26.8617 158.323 26.4937 158.078 26.1737C157.833 25.8537 157.507 25.5977 157.102 25.4057C156.707 25.203 156.217 25.1017 155.63 25.1017H151.598Z" fill="black"/>
<path d="M166.361 25.1017H159.977V36.5257H166.521V34.6377H162.281V31.5657H166.121V29.6777H162.281V26.9897H166.361V25.1017Z" fill="black"/>
<path d="M170.418 25.1017H167.762V36.5257H169.874V28.5257H169.906L172.722 36.5257H175.346V25.1017H173.234V32.9257H173.202L170.418 25.1017Z" fill="black"/>
<path d="M178.888 32.9577H176.584V33.4217C176.584 34.4777 176.861 35.2884 177.416 35.8537C177.981 36.419 178.915 36.7017 180.216 36.7017C181.464 36.7017 182.435 36.4297 183.128 35.8857C183.832 35.331 184.184 34.451 184.184 33.2457C184.184 32.8937 184.152 32.5737 184.088 32.2857C184.024 31.9977 183.907 31.7364 183.736 31.5017C183.576 31.2564 183.357 31.0324 183.08 30.8297C182.803 30.6164 182.445 30.4137 182.008 30.2217L180.232 29.4537C179.741 29.251 179.421 29.0324 179.272 28.7977C179.123 28.5524 179.048 28.2537 179.048 27.9017C179.048 27.731 179.064 27.5657 179.096 27.4057C179.139 27.2457 179.208 27.107 179.304 26.9897C179.411 26.8617 179.549 26.7604 179.72 26.6857C179.891 26.611 180.104 26.5737 180.36 26.5737C180.808 26.5737 181.128 26.723 181.32 27.0217C181.512 27.3097 181.608 27.7257 181.608 28.2697H183.816V27.9497C183.816 27.4057 183.725 26.9417 183.544 26.5577C183.373 26.163 183.128 25.843 182.808 25.5977C182.499 25.3417 182.125 25.1604 181.688 25.0537C181.261 24.9364 180.792 24.8777 180.28 24.8777C179.181 24.8777 178.317 25.155 177.688 25.7097C177.059 26.2644 176.744 27.107 176.744 28.2377C176.744 28.707 176.803 29.123 176.92 29.4857C177.037 29.8377 177.219 30.1524 177.464 30.4297C177.72 30.6964 178.035 30.931 178.408 31.1337C178.781 31.3364 179.224 31.523 179.736 31.6937C180.12 31.8217 180.44 31.9497 180.696 32.0777C180.963 32.195 181.176 32.3284 181.336 32.4777C181.496 32.627 181.608 32.7977 181.672 32.9897C181.747 33.171 181.784 33.3897 181.784 33.6457C181.784 34.1257 181.64 34.483 181.352 34.7177C181.075 34.9417 180.76 35.0537 180.408 35.0537C180.109 35.0537 179.859 35.011 179.656 34.9257C179.464 34.8404 179.309 34.723 179.192 34.5737C179.075 34.4244 178.995 34.243 178.952 34.0297C178.909 33.8057 178.888 33.5604 178.888 33.2937V32.9577Z" fill="black"/>
<path fill-rule="evenodd" clip-rule="evenodd" d="M68 38.5256L68 5.52563L69 5.52563L69 38.5256L68 38.5256Z" fill="black"/>
</svg>
