<svg width="185" height="42" viewBox="0 0 185 42" fill="none" xmlns="http://www.w3.org/2000/svg">
<path d="M28.7929 4.96436C28.2993 4.96434 27.8105 5.06136 27.3549 5.24982C26.8992 5.43827 26.4857 5.71443 26.1381 6.06236L19.6585 12.4959C19.424 12.7265 19.1068 12.8553 18.7767 12.8541C18.4466 12.8529 18.1304 12.7217 17.8976 12.4894L11.4236 6.06232C10.8996 5.539 10.2307 5.18212 9.50189 5.03702C8.77308 4.89193 8.01727 4.96518 7.3305 5.24746C6.64372 5.52974 6.05698 6.00831 5.64484 6.62236C5.23269 7.23642 5.01375 7.95823 5.01582 8.69608V28.5786C5.01599 29.5668 5.41152 30.5144 6.11544 31.2131C6.81936 31.9119 7.77402 32.3045 8.76951 32.3046H28.7929C29.7883 32.3041 30.7427 31.9113 31.4465 31.2127C32.1504 30.514 32.546 29.5666 32.5466 28.5786V8.69608C32.5451 7.70779 32.1494 6.76031 31.4459 6.06095C30.7424 5.36159 29.7885 4.9673 28.7929 4.96436ZM30.0482 28.5786C30.0465 28.9081 29.9136 29.2236 29.6784 29.4561C29.4432 29.6887 29.1248 29.8194 28.7929 29.8197H8.76951C8.60491 29.8202 8.44185 29.7884 8.28963 29.7263C8.1374 29.6641 7.99901 29.5728 7.88236 29.4576C7.76571 29.3423 7.67309 29.2053 7.6098 29.0545C7.5465 28.9037 7.51377 28.742 7.51348 28.5786V8.69608C7.51371 8.53265 7.54639 8.37087 7.60966 8.21999C7.67293 8.06911 7.76553 7.93209 7.88219 7.81676C7.99884 7.70144 8.13725 7.61007 8.2895 7.54788C8.44176 7.48569 8.60487 7.4539 8.76951 7.45433C8.93299 7.4537 9.09494 7.4856 9.24578 7.54817C9.39662 7.61073 9.5333 7.70269 9.64772 7.81859L16.1442 14.2629H16.1469C16.8465 14.952 17.7921 15.3386 18.7776 15.3386C19.7631 15.3386 20.7087 14.952 21.4083 14.2629L21.4243 14.2514L21.434 14.2429L27.9046 7.81859C28.021 7.70243 28.1594 7.6104 28.3119 7.54786C28.4644 7.48532 28.6279 7.45353 28.7929 7.45433C29.125 7.45473 29.4434 7.58554 29.6786 7.81821C29.9138 8.05088 30.0466 8.36648 30.0482 8.69608V28.5786Z" fill="#0856FF"/>
<path d="M28.7931 2.35108e-07H8.76972C6.4453 -0.00053569 4.21579 0.915172 2.57131 2.54583C0.926817 4.17648 0.00194413 6.38861 0 8.69594L0.00648621 28.5828C0.00791396 30.8886 0.931915 33.0995 2.57528 34.7292C4.21864 36.3588 6.4468 37.2739 8.76972 37.273H28.7931C31.1157 37.2724 33.3429 36.3561 34.9849 34.7256C36.6269 33.0951 37.5493 30.8839 37.5491 28.5784V8.69594C37.5493 6.39031 36.627 4.179 34.9851 2.54827C33.3431 0.917548 31.1158 0.000934381 28.7931 2.35108e-07V2.35108e-07ZM35.0479 28.5784C35.0481 30.2253 34.3892 31.8048 33.2162 32.9695C32.0432 34.1341 30.4522 34.7885 28.7931 34.7887H8.76972C7.94769 34.7894 7.13359 34.6292 6.37394 34.3174C5.61429 34.0056 4.92398 33.5482 4.34245 32.9715C3.76092 32.3948 3.29958 31.71 2.98477 30.9562C2.66996 30.2024 2.50787 29.3944 2.50775 28.5784V8.69594C2.50804 7.04746 3.16788 5.46658 4.34216 4.30093C5.51645 3.13528 7.10903 2.4803 8.76972 2.48H28.7931C30.4527 2.48175 32.0437 3.13744 33.2165 4.30298C34.3893 5.46852 35.048 7.04856 35.0479 8.69594V28.5784Z" fill="#0856FF"/>
<line x1="71.9781" y1="2.7154e-08" x2="71.9781" y2="41" stroke="#0856FF" stroke-width="1.24242"/>
<path d="M156.231 34.3657C153.229 34.3657 150.339 33.532 147.81 31.9201C145.726 30.5862 143.003 30.7529 141.057 32.2814C139.39 33.6153 137.278 34.3657 135.138 34.3657H112.461C108.293 34.3657 104.902 31.5311 104.902 28.0295C104.902 26.4733 105.653 25.6396 106.208 25.0282C106.681 24.5002 107.014 24.1389 107.014 23.3608C107.014 22.5826 106.709 22.2214 106.208 21.6934C105.653 21.082 104.902 20.2483 104.902 18.692C104.902 17.1358 105.653 16.3021 106.208 15.6907C106.681 15.1627 107.014 14.8014 107.014 14.0233C107.014 13.2452 106.709 12.8839 106.208 12.3559C105.653 11.7445 104.902 10.9108 104.902 9.32675C104.902 5.76961 108.293 2.90723 112.461 2.90723H135.138C137.278 2.90723 139.39 3.62977 141.057 4.99149C143.003 6.54773 145.726 6.68668 147.81 5.35276C150.311 3.74093 153.229 2.90723 156.231 2.90723C162.595 2.90723 168.292 6.71448 170.737 12.5782C170.987 13.1618 171.599 13.5508 172.266 13.5508H172.544C172.905 13.5508 173.155 13.3285 173.266 13.1896C173.933 12.4115 174.906 11.9668 175.934 11.9668H177.574C179.519 11.9668 181.103 13.5508 181.103 15.4962V21.7767C181.103 23.722 179.519 25.3061 177.574 25.3061H175.934C174.906 25.3061 173.961 24.8614 173.266 24.0833C173.155 23.9444 172.905 23.722 172.544 23.722H172.266C171.571 23.722 170.96 24.1389 170.709 24.7781C168.208 30.614 162.539 34.3657 156.231 34.3657ZM144.698 29.0022C146.143 29.0022 147.616 29.419 148.894 30.2249C151.09 31.6144 153.618 32.3648 156.231 32.3648C161.733 32.3648 166.68 29.0855 168.847 24.0277C169.403 22.6382 170.737 21.7211 172.266 21.7211H172.544C173.377 21.7211 174.211 22.1102 174.795 22.805C175.072 23.1384 175.489 23.333 175.934 23.333H177.574C178.407 23.333 179.074 22.666 179.074 21.8323V15.5517C179.074 14.718 178.407 14.0511 177.574 14.0511H175.934C175.489 14.0511 175.1 14.2456 174.795 14.5791C174.211 15.246 173.377 15.6351 172.544 15.6351H172.266C170.793 15.6351 169.487 14.7736 168.903 13.4397C166.763 8.29851 161.789 4.99149 156.231 4.99149C153.618 4.99149 151.09 5.71403 148.894 7.13133C146.087 8.9099 142.419 8.71536 139.807 6.6311C138.473 5.57508 136.861 4.99149 135.138 4.99149H112.461C109.404 4.99149 106.931 6.96459 106.931 9.38233C106.931 10.1605 107.237 10.5217 107.737 11.0497C108.293 11.6611 109.043 12.4948 109.043 14.0511C109.043 15.6073 108.293 16.441 107.737 17.0802C107.265 17.6082 106.931 17.9695 106.931 18.7476C106.931 19.5257 107.237 19.887 107.737 20.415C108.293 21.0264 109.043 21.8601 109.043 23.4163C109.043 24.9726 108.293 25.8063 107.737 26.4177C107.265 26.9457 106.931 27.307 106.931 28.0851C106.931 30.475 109.404 32.4203 112.461 32.4203H135.138C136.861 32.4203 138.473 31.8645 139.807 30.7807C141.224 29.6413 142.975 29.0577 144.698 29.0577V29.0022Z" fill="#0856FF"/>
<path d="M116.046 11.6609H121.104C123.355 11.6609 124.717 12.8559 124.717 15.1624C124.717 16.9688 123.994 18.1916 122.438 18.5251C124.3 18.803 124.606 19.8312 124.633 22.7214C124.633 24.1387 124.717 24.889 125.245 25.1669V25.2781H122.271C121.993 24.889 121.938 24.3888 121.938 23.8608L121.854 21.2485C121.827 20.1925 121.354 19.5255 120.243 19.5255H118.77V25.2781H116.018V11.6609H116.046ZM118.797 17.608H119.937C121.243 17.608 121.993 17.0244 121.993 15.5793C121.993 14.3287 121.326 13.6896 120.076 13.6896H118.77V17.608H118.797Z" fill="#0856FF"/>
<path d="M131.887 18.636V20.887H126.495V18.636H131.887Z" fill="#0856FF"/>
<path d="M133.693 11.6609H138.501C141.28 11.6609 142.224 13.6896 142.224 15.746C142.224 18.5806 140.501 19.859 137.889 19.859H136.416V25.3058H133.665V11.6609H133.693ZM136.444 17.8303H137.667C138.751 17.8303 139.501 17.1911 139.501 15.8016C139.501 14.4121 138.973 13.7174 137.583 13.7174H136.444V17.8581V17.8303Z" fill="#0856FF"/>
<path d="M151.173 11.6609V13.9119H146.31V17.1078H150.895V19.3588H146.31V23.0271H151.367V25.2781H143.558V11.6609H151.173Z" fill="#0856FF"/>
<path d="M160.705 11.6609V13.9119H157.731V25.2781H154.98V13.9119H152.007V11.6609H160.705Z" fill="#0856FF"/>
</svg>
