<?xml version="1.0" encoding="utf-8"?>
<!-- Generator: Adobe Illustrator 22.0.1, SVG Export Plug-In . SVG Version: 6.00 Build 0)  -->
<svg version="1.1" id="Livello_1" xmlns="http://www.w3.org/2000/svg" xmlns:xlink="http://www.w3.org/1999/xlink" x="0px" y="0px"
	 viewBox="0 0 226 78" style="enable-background:new 0 0 226 78;" xml:space="preserve">
<g>
	<g>
		<g>
			<g>
				<g>
					<path style="fill:#FFFFFF;" d="M59.8,10.4c-2.2,0-4.1,0.9-5.5,2.3L40.9,26.2c-1,1-2.7,1-3.7,0L23.7,12.7
						c-1.4-1.4-3.4-2.3-5.5-2.3c-4.3,0-7.8,3.5-7.8,7.8v41.6c0,4.3,3.5,7.8,7.8,7.8h41.6c4.3,0,7.8-3.5,7.8-7.8V18.2
						C67.6,13.9,64.1,10.4,59.8,10.4z M62.5,59.8c0,1.4-1.2,2.6-2.6,2.6H18.2c-1.4,0-2.6-1.2-2.6-2.6V18.2c0-1.4,1.2-2.6,2.6-2.6
						c0.7,0,1.4,0.3,1.8,0.8l13.5,13.5h0c3,3,7.9,3,10.9,0l0,0l0,0L58,16.4c0.5-0.5,1.1-0.8,1.8-0.8c1.4,0,2.6,1.2,2.6,2.6V59.8z"/>
				</g>
				<g>
					<path style="fill:#FFFFFF;" d="M59.8,0H18.2C8.2,0,0,8.2,0,18.2l0,41.6C0,69.9,8.2,78,18.2,78h41.6C69.9,78,78,69.9,78,59.8
						V18.2C78,8.2,69.9,0,59.8,0z M72.8,59.8c0,7.2-5.8,13-13,13H18.2c-7.2,0-13-5.8-13-13V18.2c0-7.2,5.8-13,13-13h41.6
						c7.2,0,13,5.8,13,13V59.8z"/>
				</g>
			</g>
		</g>
		<g>
			<g>
				<g>
					<path style="fill:#FFFFFF;" d="M116.8,30.6c-2.1,0-3.7,0.9-5,2.6c-0.9-1.9-2.6-2.6-4.6-2.6c-1.9,0-3.6,1-4.6,2.6h-0.1v-2.2
						h-5.1v15.8h5.2v-7.7c0-3.2,0.8-4.3,2.7-4.3c1.4,0,2,1.2,2,3v9h5.2v-7.8c0-2.6,0.2-4.3,2.4-4.3c1.3,0,2.2,1,2.2,2.7v9.3h5.2
						v-9.5C122.4,34.5,121.9,30.6,116.8,30.6z"/>
				</g>
				<g>
					<path style="fill:#FFFFFF;" d="M139.9,36c0-4.5-3.6-5.3-7.4-5.3c-1.8,0-3.6,0.3-5,1.1c-1.4,0.8-2.4,2.2-2.5,4.2h4.9
						c0.2-1.3,1.2-2,2.6-2c1.1,0,2.5,0.5,2.5,1.6c0,1-0.5,1.3-1.4,1.5c-3.6,0.7-9.2,0.3-9.2,5.5c0,3.3,2.4,4.8,5.4,4.8
						c1.9,0,3.9-0.6,5.2-2c0.1,0.5,0.1,1,0.3,1.5h5.2c-0.6-1.3-0.6-2.7-0.6-4.1V36z M131.7,44.2c-1.2,0-2.2-0.5-2.2-1.8
						c0-1.2,1-1.7,2.1-2c1.1-0.3,2.5-0.4,3.2-0.9C135,42.8,134.2,44.2,131.7,44.2z"/>
				</g>
				<g>
					<polygon style="fill:#FFFFFF;" points="157.5,31.1 152,31.1 149.8,34.9 147.5,31.1 141.8,31.1 146.8,38.6 141.3,46.9 
						147.1,46.9 149.7,42.4 152.4,46.9 158.2,46.9 152.6,38.5 					"/>
				</g>
				<g>
					<path style="fill:#FFFFFF;" d="M166.8,30.6c-4.7,0-8.6,3.5-8.6,8.3c0,5.3,3.5,8.4,8.7,8.4c3.5,0,6.9-1.6,7.9-5.3h-4.9
						c-0.5,1.2-1.7,1.7-3,1.7c-2.2,0-3.5-1.4-3.5-3.6H175C175.3,34.9,172.4,30.6,166.8,30.6z M163.4,37.4c0.3-1.9,1.5-3.2,3.4-3.2
						c1.7,0,3,1.5,3.1,3.2H163.4z"/>
				</g>
				<g>
					<path style="fill:#FFFFFF;" d="M196.1,30.6c-2.1,0-3.7,0.9-5,2.6c-0.9-1.9-2.6-2.6-4.6-2.6c-1.9,0-3.6,1-4.6,2.6h-0.1v-2.2h-5
						v15.8h5.2v-7.7c0-3.2,0.8-4.3,2.7-4.3c1.4,0,2,1.2,2,3v9h5.2v-7.8c0-2.6,0.2-4.3,2.4-4.3c1.3,0,2.2,1,2.2,2.7v9.3h5.2v-9.5
						C201.7,34.5,201.1,30.6,196.1,30.6z"/>
				</g>
				<g>
					<path style="fill:#FFFFFF;" d="M219.1,36c0-4.5-3.6-5.3-7.4-5.3c-1.8,0-3.6,0.3-5,1.1c-1.4,0.8-2.4,2.2-2.5,4.2h4.9
						c0.2-1.3,1.2-2,2.6-2c1.1,0,2.5,0.5,2.5,1.6c0,1-0.5,1.3-1.4,1.5c-3.6,0.7-9.2,0.3-9.2,5.5c0,3.3,2.4,4.8,5.4,4.8
						c1.9,0,3.9-0.6,5.2-2c0.1,0.5,0.1,1,0.3,1.5h5.2c-0.6-1.3-0.6-2.7-0.6-4.1V36z M210.9,44.2c-1.2,0-2.2-0.5-2.2-1.8
						c0-1.2,1-1.7,2.1-2c1.1-0.3,2.5-0.4,3.2-0.9C214.2,42.8,213.4,44.2,210.9,44.2z"/>
				</g>
				<g>
					<path style="fill:#FFFFFF;" d="M224.3,30.7c0-0.7-0.4-1-1.2-1h-1.4v3.6h0.6v-1.5h0.6l1,1.5h0.6l-1-1.6
						C223.9,31.6,224.3,31.3,224.3,30.7z M222.9,31.2h-0.6v-1.1h0.7c0.4,0,0.8,0.1,0.8,0.5C223.8,31.2,223.3,31.2,222.9,31.2z"/>
				</g>
				<g>
					<path style="fill:#FFFFFF;" d="M222.9,28.4c-1.7,0-3.1,1.3-3.1,3c0,1.7,1.4,3.1,3.1,3.1c1.7,0,3.1-1.3,3.1-3.1
						C226,29.7,224.6,28.4,222.9,28.4z M222.9,34c-1.4,0-2.5-1.1-2.5-2.6c0-1.5,1.1-2.6,2.5-2.6c1.4,0,2.5,1.1,2.5,2.6
						C225.4,32.9,224.3,34,222.9,34z"/>
				</g>
			</g>
		</g>
	</g>
</g>
</svg>
