<svg width="143" height="162" viewBox="0 0 143 162" fill="none" xmlns="http://www.w3.org/2000/svg">
<path d="M73.5183 134.375C72.9008 134.375 72.4324 134.288 72.0129 134.396C71.4583 134.538 70.9014 134.54 70.37 134.47C69.3167 134.33 68.2611 134.458 67.2148 134.354C66.6858 134.3 66.1521 134.321 65.6348 134.239C65.2992 134.186 64.945 134.221 64.6397 134.121C64.2972 134.009 63.9523 134.104 63.6377 134.011C63.1273 133.862 62.575 133.922 62.0903 133.673C61.559 133.724 61.0626 133.566 60.5546 133.445C60.0769 133.333 59.5922 133.205 59.1145 133.142C58.4899 133.058 57.9307 132.729 57.2945 132.741C56.6257 132.461 55.9009 132.37 55.2205 132.128C54.8639 132 54.526 131.8 54.1299 131.811C53.5473 131.476 52.8761 131.375 52.2656 131.114C51.8857 130.951 51.5106 130.774 51.1167 130.655C50.7346 130.539 50.399 130.324 50.0261 130.196C49.5181 130.021 49.0124 129.814 48.5394 129.576C48.1083 129.36 47.6468 129.192 47.232 128.931C46.8405 128.684 46.3768 128.553 45.9783 128.313C45.2979 127.903 44.5755 127.561 43.902 127.144C43.1889 126.703 42.4572 126.293 41.779 125.794C41.4248 125.536 41.0496 125.307 40.6884 125.058C40.1758 124.701 39.6654 124.342 39.1551 123.979C38.7356 123.681 38.3394 123.347 37.9083 123.061C37.5984 122.856 37.3584 122.548 37.0484 122.324C36.6826 122.061 36.3866 121.69 36.0044 121.462C35.6199 121.234 35.4475 120.779 35.0117 120.633C34.8952 120.285 34.534 120.194 34.3079 119.959C33.5436 119.16 32.7396 118.398 31.9729 117.603C31.4346 117.046 30.9173 116.468 30.4419 115.853C30.1646 115.494 29.8197 115.186 29.5447 114.823C29.0553 114.17 28.5147 113.558 28.0416 112.891C27.7224 112.441 27.3822 111.999 27.0746 111.54C26.4477 110.603 25.8045 109.675 25.2452 108.692C24.8351 107.969 24.3993 107.259 23.9799 106.539C23.4718 105.662 23.05 104.749 22.598 103.849C22.3486 103.353 22.1016 102.852 21.9035 102.332C21.7078 101.813 21.4724 101.307 21.2836 100.783C21.1415 100.382 20.969 99.981 20.7919 99.5918C20.6544 99.2889 20.6335 98.9626 20.4867 98.669C20.3515 98.3964 20.214 98.1121 20.1604 97.8184C20.1045 97.5108 19.9297 97.2498 19.9017 96.9282C19.8761 96.6486 19.706 96.3969 19.6431 96.1056C19.4893 95.3809 19.2586 94.6725 19.0721 93.9547C18.8857 93.2393 18.8042 92.4959 18.5292 91.7968C18.4173 91.5125 18.4453 91.1723 18.3987 90.86C18.3707 90.6806 18.3124 90.5058 18.2868 90.3264C18.1983 89.7205 18.0421 89.1216 18.0515 88.5017C17.7951 88.25 18.0002 87.9005 17.8441 87.5952C17.7182 87.3505 17.8207 86.987 17.8184 86.677C17.8184 86.416 17.66 86.1877 17.6902 85.908C17.7182 85.6564 17.7718 85.379 17.5877 85.139C17.5597 85.1017 17.5854 85.0248 17.5831 84.9666C17.5551 83.1 17.4013 81.2357 17.4642 79.3668C17.4782 78.9706 17.632 78.5977 17.5924 78.1923C17.5551 77.8078 17.5155 77.3999 17.604 77.0341C17.6949 76.6566 17.6297 76.2744 17.7159 75.9178C17.8207 75.4844 17.7998 75.0556 17.8231 74.6245C17.8301 74.4637 17.9 74.3076 17.9326 74.1491C17.9652 73.9883 17.865 73.8019 18.0328 73.6644C18.0631 73.6388 18.0445 73.5549 18.0491 73.4989C18.0887 73.0888 18.1214 72.6763 18.1703 72.2662C18.1796 72.1823 18.2612 72.1077 18.2798 72.0215C18.3288 71.7885 18.3591 71.5484 18.401 71.3131C18.4383 71.0964 18.4732 70.8773 18.5175 70.6629C18.648 70.0407 18.6946 69.3975 18.944 68.801C19.0372 68.5773 18.9813 68.3372 19.0745 68.0995C19.163 67.8735 19.1747 67.6148 19.3005 67.3771C19.4077 67.1767 19.3518 66.918 19.431 66.678C19.6571 65.9929 19.9204 65.3148 20.0276 64.5947C20.3049 64.2614 20.2956 63.8164 20.4773 63.4412C20.6544 63.0753 20.7407 62.6628 20.9061 62.2807C21.1485 61.7214 21.2976 61.1225 21.5516 60.5702C21.7171 60.2136 21.8313 59.8315 22.0573 59.4959C22.2437 59.2162 22.3789 58.8877 22.4605 58.5614C22.535 58.2538 22.7005 57.9905 22.8426 57.7295C22.9452 57.5407 23.0431 57.345 23.1363 57.1492C23.2808 56.8556 23.4346 56.5713 23.614 56.294C23.7631 56.0656 23.8703 55.7837 23.9799 55.518C24.0847 55.2663 24.3807 55.1125 24.3364 54.7933C24.6417 54.4274 24.8398 53.994 25.0798 53.5885C25.4317 52.9942 25.7999 52.4023 26.2053 51.843C26.7343 51.1136 27.205 50.347 27.7364 49.6176C28.1605 49.035 28.5986 48.4594 29.0484 47.9048C29.4865 47.3664 29.9013 46.8025 30.372 46.2828C30.8614 45.7399 31.3857 45.2249 31.8354 44.6423C32.0265 44.3953 32.2572 44.1459 32.5066 43.9315C32.7559 43.7171 32.9773 43.4701 33.2104 43.2371C33.4574 42.9901 33.6764 42.7011 33.9607 42.51C34.1541 42.3818 34.2171 42.1302 34.4012 42.0626C34.6598 41.9694 34.7787 41.7503 34.9628 41.5918C35.1399 41.4427 35.2867 41.2586 35.4615 41.1025C35.6572 40.9277 35.8716 40.7762 36.0697 40.6038C36.2678 40.4313 36.4449 40.2449 36.6756 40.1004C36.9762 39.9117 37.2185 39.632 37.5005 39.413C38.0854 38.9609 38.6913 38.5298 39.2716 38.073C39.8379 37.6279 40.4251 37.2178 41.0217 36.817C41.821 36.2787 42.6459 35.78 43.4639 35.2673C44.3867 34.6894 45.3584 34.207 46.2883 33.6477C46.5376 33.4986 46.8126 33.41 47.0573 33.2469C47.2763 33.1001 47.5886 33.1024 47.7704 32.8647C48.3203 32.7878 48.7258 32.373 49.2618 32.2425C49.588 32.1633 49.8886 31.9768 50.1986 31.8347C51.0305 31.4525 51.8927 31.1472 52.7573 30.8443C53.1977 30.6905 53.6521 30.56 54.0739 30.3736C54.3256 30.2617 54.6006 30.2757 54.8476 30.1219C55.0667 29.9844 55.3719 29.9914 55.6236 29.8958C55.8823 29.8003 56.1479 29.749 56.4066 29.6745C56.861 29.5416 57.2968 29.3715 57.7792 29.3272C57.9959 29.3086 58.1777 29.0756 58.441 29.1082C58.6834 29.1361 58.9187 29.0196 59.1424 28.966C59.3568 28.9148 59.6365 28.9684 59.8089 28.761C60.3565 28.7936 60.8692 28.5885 61.3959 28.5023C61.9109 28.4207 62.4609 28.4324 62.9456 28.1807C62.9759 28.1644 63.0225 28.1807 63.0597 28.1784C63.5491 28.1411 64.0362 28.1038 64.5255 28.0619C64.7446 28.0432 64.938 27.9081 65.1757 27.9407C65.3761 27.9663 65.5765 27.9663 65.7746 27.8428C65.8701 27.7822 66.0403 27.8335 66.1754 27.8312C66.6182 27.8242 67.0773 27.8871 67.4991 27.7845C67.9232 27.682 68.3333 27.7449 68.7481 27.7193C69.1932 27.6937 69.6453 27.7496 70.0857 27.7007C70.3794 27.668 70.6683 27.5888 70.9713 27.5935C71.4816 27.5981 71.9733 27.7706 72.4953 27.724C73.015 27.6774 73.558 27.6331 74.0613 27.7356C74.6719 27.8591 75.2754 27.7892 75.879 27.8358C76.098 27.8521 76.3124 27.9197 76.5291 27.9453C76.7482 27.971 76.9836 27.8941 77.1816 28.0619C77.205 28.0805 77.2562 28.0619 77.2958 28.0642C77.7642 28.1015 78.242 28.1038 78.701 28.1947C78.983 28.2506 79.2836 28.2436 79.5539 28.3741C79.6332 28.4137 79.7357 28.4114 79.8289 28.4114C80.2204 28.4114 80.5979 28.4953 80.9638 28.6281C81.1549 28.698 81.3903 28.5466 81.5534 28.7493C81.9682 28.7213 82.341 28.9287 82.7349 28.9777C83.3384 29.0546 83.9094 29.2503 84.4966 29.3785C85.3076 29.5556 86.0882 29.8492 86.8922 30.059C87.6006 30.2431 88.2718 30.5716 88.9685 30.8023C89.4463 30.9608 89.91 31.1566 90.3831 31.3267C90.721 31.4479 91.0565 31.5737 91.3851 31.7158C92.2403 32.084 93.1096 32.4336 93.9392 32.8554C94.2421 33.0092 94.5684 33.114 94.862 33.3075C95.2791 33.5824 95.7615 33.7596 96.1996 34.0066C96.8917 34.4004 97.5815 34.7989 98.2689 35.1997C99.0216 35.6378 99.7371 36.1365 100.492 36.5723C100.967 36.8473 101.403 37.1922 101.846 37.5184C102.354 37.8913 102.85 38.2804 103.354 38.6579C103.603 38.8444 103.887 38.9958 104.111 39.2102C104.675 39.7462 105.295 40.2123 105.887 40.711C107.178 41.8039 108.376 42.9877 109.562 44.1879C110.086 44.7168 110.599 45.2621 111.081 45.8307C111.508 46.3318 111.964 46.8165 112.349 47.3455C112.892 48.0935 113.537 48.7577 114.031 49.55C114.33 50.03 114.728 50.4611 115.036 50.9435C115.541 51.7428 116.075 52.5235 116.574 53.3298C117.07 54.1338 117.55 54.9471 117.988 55.7767C118.475 56.6948 119 57.599 119.368 58.5801C119.452 58.8038 119.585 59.0322 119.696 59.2582C119.864 59.5961 120.053 59.9317 120.153 60.2905C120.251 60.6401 120.514 60.9267 120.514 61.3066C120.883 61.7144 120.922 62.2667 121.113 62.7467C121.377 63.4132 121.663 64.0797 121.801 64.7928C121.826 64.9303 121.908 65.0584 121.955 65.1936C122.034 65.415 122.157 65.6247 122.146 65.8717C122.143 65.9463 122.127 66.0442 122.164 66.0954C122.53 66.5801 122.393 67.235 122.726 67.7267C122.714 68.3815 123.099 68.9618 123.075 69.6189C123.404 70.1898 123.297 70.8657 123.525 71.4692C123.653 71.8071 123.614 72.2079 123.66 72.5785C123.691 72.8162 123.688 73.0748 123.786 73.2822C123.956 73.6458 123.803 74.0373 123.938 74.3845C124.078 74.7433 123.959 75.1045 124.01 75.4611C124.038 75.6592 124.096 75.8549 124.122 76.053C124.143 76.2371 124.087 76.4282 124.236 76.5913C124.276 76.6333 124.238 76.7405 124.243 76.8197C124.28 77.8311 124.336 78.8448 124.355 79.8561C124.373 80.8838 124.366 81.9138 124.355 82.9415C124.348 83.7222 124.168 84.4958 124.241 85.2812C124.066 85.64 124.21 86.0455 124.103 86.3904C123.989 86.7539 124.087 87.1128 123.998 87.4531C123.831 88.0962 123.91 88.779 123.667 89.4105C123.609 89.562 123.674 89.7578 123.653 89.9302C123.637 90.0724 123.558 90.2075 123.546 90.3497C123.507 90.867 123.267 91.3541 123.309 91.883C122.978 92.5052 123.024 93.223 122.789 93.8801C122.616 94.3672 122.486 94.8869 122.383 95.3995C122.237 96.1289 121.959 96.8187 121.773 97.5365C121.696 97.8301 121.516 98.0981 121.456 98.3917C121.393 98.697 121.134 98.9417 121.202 99.2796C120.899 99.8552 120.722 100.477 120.5 101.086C120.431 101.279 120.295 101.461 120.209 101.664C119.878 102.44 119.538 103.211 119.181 103.975C118.823 104.74 118.473 105.511 118.058 106.245C117.667 106.937 117.261 107.627 116.853 108.312C116.408 109.058 115.91 109.771 115.495 110.54C115.243 111.006 114.884 111.414 114.574 111.847C114.188 112.385 113.803 112.926 113.409 113.46C113.22 113.716 113.004 113.951 112.806 114.201C112.337 114.783 111.804 115.312 111.403 115.949C111.363 116.011 111.291 116.056 111.24 116.114C110.021 117.484 108.704 118.761 107.411 120.059C107.315 120.155 107.224 120.257 107.122 120.346C106.866 120.57 106.605 120.786 106.348 121.005C106.106 121.213 105.905 121.46 105.621 121.635C105.288 121.84 105.022 122.152 104.712 122.401C104.279 122.753 103.836 123.091 103.393 123.431C103.188 123.587 102.962 123.72 102.769 123.888C101.96 124.594 101.037 125.142 100.161 125.752C99.2663 126.377 98.2946 126.885 97.3974 127.507C96.9267 127.603 96.6051 128.015 96.125 128.09C95.5215 128.565 94.7944 128.81 94.1209 129.157C93.6898 129.378 93.2494 129.581 92.802 129.77C92.3732 129.952 91.9257 130.11 91.5179 130.32C90.954 130.611 90.3504 130.788 89.7772 131.04C89.2855 131.257 88.7798 131.462 88.2531 131.569C87.9805 131.625 87.7801 131.825 87.4794 131.834C87.2278 131.841 86.9877 132.044 86.7291 132.112C86.3958 132.198 86.0696 132.301 85.7387 132.396C85.2167 132.545 84.697 132.711 84.1657 132.809C83.7346 132.89 83.3314 133.065 82.8863 133.109C82.4552 133.151 82.0404 133.326 81.6093 133.387C81.0803 133.461 80.5863 133.687 80.0387 133.687C79.7264 133.687 79.3838 133.699 79.1112 133.827C78.8758 133.936 78.6334 133.818 78.454 133.925C78.2303 134.058 78.0089 134.051 77.7969 134.018C77.5149 133.974 77.2912 134.135 77.0278 134.151C76.7901 134.167 76.5268 134.03 76.3148 134.256C76.2868 134.286 76.2029 134.265 76.1446 134.26C75.2032 134.179 74.2804 134.503 73.509 134.377L73.5183 134.375ZM73.6908 129.716V129.742C74.3736 129.695 75.0564 129.649 75.7392 129.602C75.7788 129.6 75.8324 129.618 75.8533 129.6C76.1027 129.362 76.4056 129.518 76.6806 129.492C76.9579 129.467 77.2096 129.32 77.5056 129.362C77.7013 129.39 77.8947 129.357 78.1045 129.273C78.3864 129.159 78.7267 129.192 79.0366 129.134C79.3302 129.08 79.6145 128.977 79.9198 129.022C80.542 128.735 81.2411 128.772 81.882 128.56C82.1406 128.474 82.4133 128.442 82.6766 128.372C82.9609 128.297 83.2475 128.239 83.5342 128.181C83.7649 128.134 84.0562 128.078 84.2403 127.943C84.4663 127.775 84.732 127.975 84.9324 127.761C85.1095 127.572 85.4124 127.586 85.6431 127.537C85.9041 127.481 86.0999 127.318 86.3516 127.262C86.806 127.162 87.2557 127.018 87.6892 126.843C88.1716 126.647 88.7052 126.573 89.1247 126.232C89.9706 126.027 90.7303 125.603 91.5063 125.235C92.9697 124.541 94.4215 123.813 95.8058 122.968C96.0691 122.807 96.3371 122.653 96.5958 122.485C96.9942 122.224 97.3624 121.907 97.7842 121.697C98.3645 121.409 98.8562 120.996 99.3712 120.621C99.9561 120.194 100.525 119.733 101.105 119.297C101.643 118.894 102.137 118.442 102.664 118.03C103.249 117.57 103.766 117.025 104.312 116.517C104.367 116.464 104.414 116.373 104.477 116.359C104.729 116.307 104.845 116.095 104.999 115.935C105.139 115.79 105.304 115.676 105.395 115.461C105.472 115.282 105.787 115.212 105.889 115.033C106.045 114.758 106.283 114.574 106.479 114.348C106.791 113.991 107.131 113.66 107.444 113.299C107.949 112.712 108.464 112.131 108.951 111.528C109.177 111.248 109.436 110.997 109.646 110.708C110.205 109.934 110.755 109.151 111.293 108.363C111.878 107.508 112.43 106.629 112.938 105.728C113.062 105.506 113.144 105.238 113.323 105.08C113.535 104.891 113.547 104.621 113.707 104.411C113.987 104.043 114.192 103.609 114.376 103.181C114.658 102.519 115.024 101.899 115.294 101.232C115.483 100.769 115.754 100.335 115.94 99.8691C116.145 99.3541 116.317 98.8251 116.537 98.3125C116.763 97.7858 116.94 97.2358 117.119 96.6905C117.226 96.3643 117.417 96.0474 117.457 95.7304C117.527 95.1782 117.895 94.7074 117.839 94.1365C118.226 93.1135 118.412 92.0392 118.662 90.9812C118.727 90.7039 118.704 90.4266 118.788 90.1632C118.876 89.8859 118.995 89.6156 118.99 89.3173C118.986 88.9981 119.186 88.7068 119.112 88.3759C119.091 88.285 119.072 88.1382 119.121 88.0962C119.289 87.9494 119.195 87.7723 119.226 87.6092C119.261 87.4298 119.319 87.255 119.338 87.0755C119.373 86.7213 119.347 86.3741 119.438 86.0129C119.536 85.6214 119.48 85.1973 119.559 84.7825C119.652 84.2861 119.61 83.7711 119.669 83.2584C119.759 82.4731 119.713 81.6691 119.687 80.8745C119.662 80.0938 119.787 79.3108 119.589 78.5325C119.51 78.2225 119.589 77.8753 119.573 77.5468C119.554 77.2135 119.473 76.8803 119.468 76.547C119.461 75.9971 119.263 75.4634 119.345 74.9065C119.349 74.8715 119.345 74.8179 119.324 74.8016C119.151 74.6641 119.263 74.4754 119.228 74.3146C119.193 74.1561 119.137 74 119.116 73.8392C119.081 73.5642 119.114 73.2939 119.021 73.0072C118.939 72.7579 118.972 72.4573 118.883 72.1893C118.839 72.0518 118.79 71.9143 118.769 71.7722C118.748 71.6207 118.795 71.4529 118.746 71.3154C118.433 70.4602 118.329 69.5537 118.084 68.6821C117.862 67.8991 117.629 67.1231 117.392 66.3471C117.159 65.5921 116.916 64.837 116.648 64.0937C116.406 63.4202 116.152 62.7467 115.849 62.0966C115.46 61.267 115.136 60.4094 114.696 59.6054C114.115 58.5451 113.586 57.4615 112.966 56.4175C112.389 55.4458 111.794 54.488 111.139 53.5675C110.969 53.3298 110.75 53.1038 110.659 52.8358C110.555 52.5305 110.189 52.4419 110.149 52.1134C109.685 51.6496 109.396 51.0437 108.944 50.5823C108.585 50.2141 108.387 49.7131 107.938 49.4311C107.833 49.1002 107.518 48.9487 107.315 48.6994C107.113 48.4524 106.91 48.2054 106.698 47.9653C106.556 47.8069 106.397 47.6624 106.246 47.5109C105.083 46.3551 103.948 45.1713 102.713 44.0946C102.429 43.8453 102.163 43.5656 101.851 43.3606C101.182 42.9201 100.606 42.3655 99.9491 41.9111C99.5716 41.6501 99.2011 41.3751 98.8259 41.1095C97.8588 40.4243 96.8498 39.8068 95.8431 39.1823C95.0717 38.7046 94.2654 38.2991 93.4801 37.8516C92.6202 37.3623 91.709 36.9778 90.8118 36.5676C90.5019 36.4255 90.1943 36.281 89.8797 36.1505C89.4323 35.9641 88.9802 35.7939 88.5304 35.6122C88.2648 35.505 88.0061 35.3722 87.7335 35.2906C86.9551 35.0622 86.2234 34.6847 85.4054 34.5822C84.9883 34.3002 84.4873 34.2652 84.0259 34.1208C83.8558 33.8621 83.5738 34.0508 83.3431 33.9413C82.7535 33.6593 82.066 33.6943 81.4625 33.424C81.2248 33.5032 81.0337 33.2702 80.8123 33.3145C80.5513 33.3681 80.3439 33.2026 80.1039 33.1863C79.9827 33.177 79.8662 33.0954 79.7427 33.0791C79.5889 33.0605 79.4328 33.0744 79.2766 33.0744C79.2207 33.0744 79.1578 33.0814 79.1088 33.0605C78.5775 32.8297 77.9903 32.8857 77.4403 32.7319C77.17 32.6573 76.8764 32.8018 76.5967 32.655C76.3497 32.5245 76.0607 32.6177 75.7834 32.5175C75.4921 32.4126 75.1309 32.5082 74.8024 32.4895C74.4878 32.4709 74.1755 32.387 73.8609 32.3823C72.5792 32.3707 71.2999 32.3986 70.0182 32.3707C68.7505 32.3427 67.4874 32.4429 66.2244 32.4942C66.1311 32.4988 66.0309 32.4918 65.9424 32.5175C65.5719 32.627 65.192 32.6899 64.8075 32.7249C64.3578 32.7668 63.908 32.8041 63.4582 32.8414C63.4396 32.8414 63.4093 32.8344 63.4023 32.8414C63.2392 33.0535 62.9712 32.8624 62.8197 32.9742C62.617 33.1257 62.4142 33.0371 62.2162 33.0698C62.1416 33.0814 62.053 33.0581 61.9925 33.0907C61.5613 33.3238 61.0626 33.2562 60.6129 33.4147C60.3915 33.4939 60.0816 33.4263 59.9231 33.5568C59.6994 33.7456 59.457 33.6058 59.2263 33.7246C58.8978 33.8947 58.4853 33.8901 58.1241 34.0112C57.6743 34.1627 57.1989 34.2303 56.7655 34.3887C56.2062 34.5938 55.6329 34.743 55.0713 34.9364C54.4445 35.1531 53.8409 35.4327 53.2094 35.6425C52.8715 35.7543 52.5709 36.0107 52.2283 36.0736C51.8578 36.1435 51.5618 36.3509 51.2193 36.4581C50.8953 36.5583 50.5714 36.6958 50.2941 36.8846C50.0052 37.0826 49.6206 37.0896 49.3899 37.3809C48.5906 37.5813 47.9358 38.0893 47.2204 38.4599C46.5656 38.8001 45.9201 39.1823 45.3002 39.5924C44.953 39.8231 44.5545 39.9909 44.2422 40.2612C43.8064 40.6387 43.2774 40.8694 42.83 41.2213C42.35 41.5988 41.828 41.9204 41.3666 42.3166C40.8958 42.7221 40.3342 43.0157 39.9334 43.5027C39.0572 44.041 38.4117 44.8543 37.61 45.4812C37.5192 45.5511 37.4446 45.6443 37.363 45.7259C36.2491 46.8468 35.1096 47.942 34.0703 49.1352C34.019 49.1934 33.9491 49.2377 33.9071 49.3006C33.5319 49.8832 33.0309 50.3633 32.6278 50.9226C32.4413 51.1789 32.2153 51.4096 32.0289 51.6659C31.6723 52.1553 31.3298 52.6563 30.9849 53.1527C30.5165 53.8308 30.0364 54.5043 29.5843 55.1941C29.1765 55.8163 28.8596 56.4921 28.4355 57.1073C28.2421 57.3869 28.1069 57.7062 27.9508 58.0115C27.1212 59.6054 26.3219 61.2134 25.674 62.8889C25.5389 63.2408 25.3641 63.5763 25.2709 63.9445C25.1776 64.3104 24.8957 64.618 24.926 65.0235C24.5834 65.5874 24.4599 66.2329 24.2921 66.8551C24.2036 67.1884 24.0358 67.489 23.9845 67.8385C23.9053 68.3582 23.7119 68.8522 23.593 69.3672C23.4905 69.8077 23.4066 70.2551 23.2877 70.6932C23.1689 71.1383 23.0198 71.5741 23.0407 72.0448C22.8426 72.2079 22.9895 72.441 22.9219 72.6367C22.8147 72.9466 22.7331 73.2659 22.7098 73.5968C22.6819 73.9883 22.6958 74.3985 22.577 74.7643C22.4908 75.03 22.5094 75.2793 22.4791 75.538C22.4465 75.813 22.3952 76.088 22.3673 76.3629C22.3206 76.8127 22.3975 77.2578 22.2694 77.7169C22.1622 78.1037 22.1948 78.5348 22.1529 78.945C22.0783 79.714 22.1086 80.497 22.1389 81.2706C22.1692 82.0303 22.062 82.7877 22.2298 83.5567C22.3626 84.1603 22.3253 84.8011 22.3649 85.4257C22.4022 85.9733 22.4418 86.5186 22.4814 87.0662C22.4814 87.0849 22.4721 87.1128 22.4814 87.1245C22.6702 87.3365 22.5071 87.6325 22.6119 87.8259C22.7564 88.0916 22.6818 88.3456 22.7121 88.6019C22.7191 88.6602 22.6935 88.7278 22.7168 88.7744C22.9685 89.2591 22.9195 89.8114 23.0407 90.324C23.1013 90.585 23.0873 90.9136 23.2178 91.1233C23.3856 91.3913 23.2388 91.664 23.374 91.939C23.4998 92.193 23.6117 92.5192 23.6303 92.8152C23.6699 93.4118 23.9938 93.9314 24.0195 94.521C24.2618 94.7773 24.2175 95.1385 24.3178 95.4438C24.418 95.7468 24.6626 96.0241 24.5951 96.3783C24.9516 97.3174 25.3082 98.2565 25.667 99.1957C25.7952 99.5312 25.914 99.8668 26.0818 100.188C26.2892 100.582 26.429 101.016 26.6155 101.421C26.8182 101.862 27.0303 102.297 27.2563 102.726C27.7783 103.717 28.2327 104.742 28.8759 105.665C28.9994 106.154 29.4072 106.478 29.5983 106.937C29.7568 107.317 30.0364 107.65 30.2788 107.995C30.7006 108.599 31.1363 109.193 31.5628 109.792C31.7003 109.985 31.8308 110.186 31.9659 110.381C31.9869 110.412 32.0195 110.437 32.0475 110.465C32.4763 110.864 32.7583 111.383 33.1381 111.826C33.6485 112.418 34.1984 112.987 34.6389 113.641C35.9835 114.914 37.2069 116.312 38.6168 117.522C39.3298 118.134 40.0639 118.722 40.7747 119.337C41.4551 119.924 42.2265 120.376 42.9069 120.961C43.2472 121.252 43.6759 121.441 44.0558 121.688C44.4403 121.935 44.8108 122.203 45.1953 122.45C45.5915 122.704 45.9853 122.975 46.4048 123.184C46.8079 123.385 47.1854 123.632 47.5863 123.837C48.0011 124.049 48.4159 124.273 48.8353 124.48C49.1569 124.641 49.4785 124.799 49.8001 124.962C50.1357 125.132 50.4363 125.389 50.8348 125.414C51.133 125.736 51.5688 125.806 51.9417 125.978C52.3774 126.179 52.8528 126.309 53.3003 126.491C53.8828 126.726 54.4654 126.966 55.0643 127.153C55.4768 127.281 55.873 127.453 56.3087 127.535C56.6536 127.6 56.9822 127.775 57.3318 127.868C57.6953 127.966 58.0542 128.113 58.4154 128.192C59.1261 128.351 59.8346 128.53 60.543 128.691C60.804 128.751 61.0766 128.716 61.3073 128.805C61.6406 128.933 61.9808 128.964 62.3187 129.04C62.6356 129.11 62.9572 129.085 63.2602 129.152C63.5398 129.215 63.8078 129.346 64.0991 129.367C64.416 129.39 64.7283 129.367 65.0452 129.474C65.3784 129.586 65.7397 129.434 66.1078 129.579C66.4178 129.7 66.8069 129.663 67.1588 129.698C68.0304 129.784 68.9089 129.749 69.7875 129.807C70.7709 129.872 71.7752 129.952 72.768 129.73C73.0639 129.665 73.3855 129.721 73.6978 129.721L73.6908 129.716Z" fill="white"/>
<path d="M82.1546 6.85555C81.9355 7.0746 81.9169 7.37055 81.7491 7.59427C81.6256 7.75972 81.5976 7.99509 81.5044 8.18851C81.2014 8.82003 80.8472 9.43058 80.5862 10.0784C80.2949 10.7938 79.9128 11.4673 79.6331 12.1874C79.4257 12.7234 79.0902 13.2011 78.934 13.7627C78.8828 13.9445 78.7173 14.1216 78.4586 14.0913C78.0508 14.0423 77.6267 14.0493 77.2422 13.9305C77.0488 13.8699 76.874 13.8652 76.6922 13.8629C76.4312 13.8582 76.2285 13.7604 76.0491 13.5833C75.9652 13.4994 75.9069 13.4201 75.9139 13.2873C75.9255 13.0846 75.9185 12.8911 75.8137 12.6884C75.7158 12.502 75.8626 12.2596 75.6995 12.0336C75.597 11.8914 75.6576 11.6514 75.59 11.4463C75.4968 11.1574 75.5061 10.8218 75.4711 10.5095C75.4082 9.91762 75.1985 9.34669 75.2171 8.74546C74.9678 8.53806 75.2311 8.18151 74.9887 7.96246C74.9491 7.92751 74.9887 7.81332 74.9817 7.73642C74.9468 7.42182 74.9212 7.1049 74.8629 6.79496C74.8046 6.49201 74.786 6.17975 74.6508 5.89312C74.6275 5.84651 74.6322 5.78126 74.6345 5.72533C74.6602 5.08449 74.4644 4.46927 74.3712 3.84707C74.299 3.35537 74.3036 2.82172 74.0496 2.35798C74.1125 1.99445 73.9704 1.65422 73.9331 1.3C73.9168 1.15552 73.9331 1.02269 73.8399 0.87122C73.7164 0.670811 73.8888 0.451758 73.982 0.232706C74.264 0.232706 74.553 0.232706 74.8396 0.232706C74.9142 0.232706 75.012 0.218724 75.0587 0.26067C75.3453 0.514678 75.6902 0.449428 76.0234 0.470401C76.2029 0.482053 76.4056 0.503026 76.5501 0.59624C76.7155 0.701105 76.9183 0.847917 76.8414 1.10659C76.7715 1.34894 76.9625 1.53071 76.9649 1.75675C76.9649 1.9758 76.888 2.2135 77.0721 2.41158C77.1 2.44187 77.0767 2.52344 77.0767 2.58169C77.0651 3.12466 77.1397 3.65598 77.3098 4.17332C77.3144 4.19196 77.3098 4.21294 77.3098 4.23158C77.3494 4.73959 77.4006 5.24761 77.4216 5.75562C77.4309 6.01895 77.5148 6.27529 77.5731 6.51532C77.643 6.79962 77.629 7.07227 77.6616 7.34725C77.6896 7.5663 77.7455 7.7807 77.7735 7.99742C77.7991 8.19783 77.7642 8.39358 77.876 8.59865C77.9576 8.74546 77.8924 8.9715 77.8924 9.23716C78.0019 9.17424 78.0974 9.15094 78.1207 9.09967C78.3235 8.64059 78.5239 8.17918 78.7033 7.71078C78.7825 7.50805 78.9177 7.34492 78.9946 7.13286C79.2603 6.41045 79.6075 5.72067 79.9221 5.01457C80.3229 4.11273 80.733 3.21555 81.1059 2.30438C81.1991 2.07368 81.2947 1.83831 81.3879 1.60528C81.4508 1.44915 81.5696 1.39089 81.7467 1.39322C82.2338 1.39788 82.7045 1.48177 83.1729 1.60761C83.3174 1.64723 83.4782 1.61227 83.6297 1.63557C83.7718 1.65655 83.907 1.71947 84.0491 1.74743C84.3101 1.7987 84.4779 1.94551 84.5292 2.19486C84.5408 2.25079 84.5292 2.31137 84.5292 2.36963C84.5665 2.91726 84.5525 3.47422 84.6643 4.00554C84.7436 4.38305 84.676 4.77455 84.7832 5.11944C84.8974 5.48297 84.8368 5.83253 84.8811 6.18441C84.9067 6.38249 84.9673 6.57824 84.9906 6.77632C85.0116 6.96041 84.9486 7.15616 85.1071 7.3123C85.1257 7.33094 85.1141 7.38687 85.1071 7.42648C85.0209 8.02072 85.2073 8.59632 85.2399 9.18123C85.2586 9.51214 85.3611 9.84072 85.3495 10.181C85.3495 10.2345 85.445 10.2928 85.5405 10.3977C85.7759 9.57972 86.2769 8.91324 86.5053 8.12326C86.764 7.87158 86.8059 7.51037 86.9667 7.20743C87.1671 6.82758 87.3536 6.43609 87.5097 6.03527C87.6658 5.63445 87.9851 5.30354 88.02 4.84912C88.4348 4.31547 88.5374 3.61637 88.9498 3.08039C88.9685 3.05708 88.9429 3.00116 88.9545 2.9662C89.057 2.67025 89.1922 2.58636 89.4765 2.55839C89.7468 2.53043 89.9892 2.6283 90.2432 2.67724C90.4972 2.72618 90.7535 2.62131 91.0192 2.77744C91.187 2.87532 91.4433 2.79842 91.6647 2.90095C91.963 3.04077 92.1308 3.34139 91.9164 3.59539C91.6507 3.91232 91.5808 4.31547 91.3571 4.64871C91.1474 4.96098 90.9493 5.29655 90.8258 5.64843C90.6021 6.28228 90.2129 6.82758 89.9472 7.43813C89.5953 8.24676 89.1503 9.00879 88.7588 9.79877C88.3579 10.6027 87.9548 11.4067 87.5563 12.2107C87.1648 12.9983 86.7826 13.793 86.3888 14.5783C86.3072 14.7414 86.2 14.8929 86.0812 15.0327C85.932 15.2075 85.7666 15.4056 85.5219 15.1399C85.212 15.2122 84.9393 14.9698 84.641 15.0257C84.3078 15.0863 84.0188 14.9139 83.6996 14.8952C83.4502 14.8789 83.2801 14.59 83.2428 14.315C83.1799 13.8606 83.1846 13.3945 83.0191 12.9541C82.9865 12.8702 83.0121 12.7606 83.0145 12.6651C83.0261 12.2153 82.9678 11.7772 82.7907 11.3601C82.7768 11.3275 82.7861 11.2855 82.7814 11.2483C82.7418 10.7402 82.7138 10.2322 82.6602 9.7242C82.6299 9.43291 82.5554 9.14861 82.4994 8.85965C82.4785 8.75245 82.4435 8.64758 82.4342 8.53806C82.3899 8.05101 82.3596 7.56164 82.3107 7.0746C82.3037 7.01168 82.2245 6.95575 82.1476 6.85788L82.1546 6.85555Z" fill="white"/>
<path d="M57.8713 6.9837C57.8713 7.13284 57.8153 7.31461 57.8829 7.4218C58.0507 7.68513 57.9016 7.99507 58.0297 8.23509C58.1789 8.51706 58.0577 8.80137 58.1066 9.07868C58.1416 9.27676 58.2115 9.47251 58.2138 9.67058C58.2162 9.89896 58.2791 10.1064 58.3303 10.3231C58.377 10.5165 58.2907 10.7309 58.4445 10.922C58.5005 10.9919 58.4562 11.148 58.4539 11.2645C58.4399 11.7329 58.4935 12.192 58.6776 12.6278C58.6846 12.6441 58.6846 12.6651 58.6869 12.6814C58.7265 13.2873 58.7661 13.8908 58.8034 14.4967C58.8151 14.6832 58.6939 14.7694 58.5307 14.788C57.7105 14.8859 56.9065 15.1306 56.0559 15.0001C55.9744 14.7414 55.9161 14.4594 55.8742 14.1635C55.8345 13.8885 55.7903 13.6159 55.774 13.3362C55.76 13.1172 55.6971 12.9028 55.6644 12.6861C55.6295 12.4693 55.7437 12.2246 55.5479 12.0359C55.6271 11.6887 55.4244 11.3764 55.4291 11.0362C55.4337 10.7379 55.4221 10.4466 55.3265 10.1483C55.2426 9.88964 55.2846 9.603 55.224 9.32103C55.1401 8.9272 55.0049 8.51473 55.0818 8.09527C55.1215 7.88321 55.0282 7.69678 54.9676 7.50103C54.9141 7.32626 55.0562 7.1142 54.8768 6.95573C54.8535 6.93476 54.8511 6.88815 54.8488 6.8532C54.8092 6.40344 54.7766 5.95368 54.7276 5.50393C54.709 5.32449 54.6507 5.14738 54.6158 4.97028C54.5855 4.80948 54.6857 4.62306 54.5086 4.4879C54.4806 4.46459 54.4899 4.37604 54.4993 4.32011C54.5808 3.82142 54.3082 3.34603 54.3921 2.85665C54.42 2.6912 54.1427 2.66091 54.3012 2.44884C54.4526 2.24377 54.5435 2.05735 54.8535 2.08764C55.0446 2.10628 55.2473 2.02239 55.4454 1.98044C55.6435 1.9385 55.8415 2.02006 56.0559 1.90121C56.3053 1.76372 56.6408 1.94782 56.9112 1.77304C57.0976 1.88257 57.319 1.95947 57.4658 2.10861C57.7035 2.34864 58.0064 2.52808 58.1416 2.87297C58.1859 2.98482 58.3583 3.04308 58.4562 3.14096C58.6123 3.30175 58.7475 3.48119 58.9013 3.64198C59.0737 3.82608 59.2578 3.99852 59.4349 4.17796C60.7259 5.50626 62.0146 6.83455 63.301 8.16518C63.3872 8.25607 63.4338 8.46114 63.5107 8.46813C63.6995 8.48677 63.6668 8.64756 63.7507 8.72213C63.816 8.78039 63.8952 8.82234 64.0234 8.90856C64.035 8.75942 64.0816 8.63125 64.0397 8.58464C63.8742 8.40055 64.0117 8.14654 63.9162 7.99507C63.7834 7.79 63.8206 7.59425 63.8206 7.39384C63.8206 7.14915 63.788 6.91845 63.7064 6.68308C63.6295 6.45937 63.7018 6.22167 63.6062 5.96767C63.4734 5.61112 63.4757 5.19399 63.4757 4.80249C63.4757 4.55082 63.3988 4.32943 63.3476 4.09407C63.301 3.87735 63.4524 3.63033 63.2427 3.43691C63.2217 3.41827 63.2357 3.36467 63.2311 3.32738C63.1914 2.85898 63.1565 2.38825 63.1122 1.91986C63.1029 1.81266 63.0633 1.70779 63.033 1.60293C62.9211 1.22308 63.0703 0.992378 63.4664 0.924798C63.6459 0.894503 63.8206 0.833914 64.0001 0.812941C64.1725 0.794298 64.3683 0.857218 64.5197 0.798959C64.832 0.677781 65.1466 0.694093 65.4659 0.694093C65.8504 0.694093 65.89 0.743031 65.911 1.1089C65.9296 1.45845 66.0065 1.79635 66.1207 2.12726C66.1323 2.16221 66.1463 2.20183 66.1417 2.23445C66.0578 2.73315 66.2325 3.21087 66.2745 3.69791C66.3071 4.0731 66.3094 4.47158 66.4889 4.8258C66.5122 4.8724 66.4889 4.93998 66.4935 4.99824C66.5308 5.448 66.5332 5.90475 66.6171 6.34518C66.7312 6.95107 66.8408 7.5523 66.8478 8.17217C66.8478 8.35161 66.9223 8.52639 66.9573 8.70582C66.9992 8.92254 67.0342 9.13927 67.0738 9.35599C67.1181 9.59135 67.0155 9.82439 67.1693 10.0761C67.2719 10.2462 67.1484 10.5398 67.1973 10.7612C67.3208 11.3065 67.3954 11.8541 67.4443 12.4111C67.463 12.6394 67.5212 12.8818 67.5422 13.1218C67.5655 13.3805 67.3907 13.5017 67.2183 13.6089C67.0994 13.6811 66.9456 13.7161 66.8035 13.7277C66.1789 13.7767 65.5544 13.8116 64.9299 13.8466C64.6829 13.8605 64.4825 13.7906 64.3636 13.539C64.31 13.4224 64.1795 13.3432 64.0816 13.2477C63.4221 12.5882 62.7277 11.9636 62.1148 11.2645C61.2246 10.2485 60.2459 9.32336 59.3091 8.35394C59.1949 8.23742 59.139 8.01138 59.0131 7.96943C58.8011 7.89952 58.8174 7.62687 58.6543 7.60124C58.4305 7.56861 58.4702 7.34723 58.335 7.26567C58.1952 7.17945 58.1393 6.96971 57.8713 6.97904V6.9837Z" fill="white"/>
<path d="M85.8825 155.11C85.8732 155 86.0829 155.047 85.9897 154.842C85.8639 154.567 85.8732 154.231 85.8336 153.924C85.7846 153.555 85.7543 153.194 85.6052 152.849C85.5842 152.8 85.5912 152.74 85.5842 152.684C85.5446 152.274 85.512 151.861 85.463 151.453C85.4491 151.33 85.3838 151.216 85.3512 151.095C85.3069 150.938 85.2556 150.78 85.237 150.619C85.2184 150.447 85.2323 150.27 85.2323 150.097C85.2323 150.058 85.2486 150.004 85.23 149.983C85.0436 149.783 85.1368 149.519 85.0762 149.291C84.9154 148.69 84.8362 148.074 84.8921 147.45C84.9014 147.359 84.9946 147.229 85.0785 147.198C85.265 147.128 85.4677 147.082 85.6658 147.077C86.1132 147.068 86.5373 146.968 86.9684 146.846C87.3739 146.732 87.579 146.926 87.6862 147.34C87.812 147.827 87.8586 148.324 87.9425 148.811C88.0264 149.305 88.0707 149.818 88.2385 150.309C88.341 150.608 88.3061 150.969 88.369 151.302C88.4832 151.903 88.5065 152.53 88.6393 153.117C88.7931 153.807 88.856 154.499 88.9632 155.189C88.9935 155.385 89.0541 155.578 89.103 155.772C89.131 155.876 89.173 155.977 89.1916 156.084C89.2335 156.305 89.1147 156.543 89.2662 156.753C89.4013 156.941 89.2429 157.179 89.4083 157.398C89.5365 157.566 89.3244 157.888 89.5411 158.093C89.5808 158.542 89.6297 158.99 89.653 159.442C89.6647 159.654 89.5598 159.74 89.357 159.766C89.0448 159.808 88.6882 159.773 88.4342 159.917C88.1499 160.078 87.8516 159.913 87.5697 160.094C87.3902 160.209 87.0803 160.115 86.8076 160.115C85.9547 159.262 85.0948 158.4 84.228 157.538C84.1068 157.419 83.9833 157.242 83.8411 157.221C83.6547 157.193 83.7829 156.92 83.5428 156.953C83.3564 156.979 83.4496 156.578 83.1816 156.603C83.1979 156.315 82.8088 156.338 82.7785 156.084C82.4755 155.986 82.3404 155.688 82.1004 155.506C81.8254 155.298 81.5993 155.021 81.3523 154.774C81.1193 154.541 80.8862 154.308 80.6532 154.075C80.4202 153.842 80.1871 153.609 79.9168 153.339C79.8889 153.653 79.8422 153.919 79.9588 154.213C80.059 154.462 80.073 154.749 80.1102 155.021C80.1568 155.352 80.1545 155.697 80.2384 156.016C80.3153 156.315 80.2827 156.636 80.4551 156.916C80.4994 156.986 80.4528 157.107 80.4621 157.202C80.5274 157.806 80.6019 158.405 80.786 158.987C80.814 159.076 80.8093 159.174 80.8093 159.269C80.8047 159.698 80.8839 160.108 81.0307 160.516C81.1496 160.847 80.8163 161.234 80.4085 161.278C80.017 161.32 79.6255 161.35 79.2364 161.399C79.1525 161.409 79.0756 161.504 78.994 161.507C78.7144 161.516 78.4277 161.553 78.1691 161.353C78.0013 160.742 78.0479 160.069 77.8009 159.44C77.6983 159.179 77.7193 158.852 77.6913 158.561C77.6284 157.929 77.4886 157.312 77.407 156.685C77.3395 156.172 77.2486 155.646 77.1087 155.133C77.0249 154.825 77.0179 154.471 76.9783 154.14C76.9433 153.844 76.8268 153.572 76.8338 153.259C76.8384 152.994 76.7056 152.719 76.7359 152.434C76.4935 152.239 76.6753 151.94 76.5518 151.693C76.4493 151.491 76.5401 151.202 76.4935 150.962C76.4563 150.766 76.4073 150.57 76.3584 150.379C76.2465 149.948 76.1976 149.508 76.158 149.069C76.1347 148.815 76.3514 148.601 76.5984 148.592C76.8221 148.585 77.0342 148.573 77.2532 148.482C77.5655 148.354 77.9057 148.324 78.2483 148.354C78.3182 148.361 78.3928 148.331 78.465 148.317C78.5699 148.293 78.6887 148.228 78.7773 148.256C78.9474 148.307 79.1198 148.389 79.255 148.499C79.4647 148.669 79.6442 148.876 79.8353 149.069C81.8487 151.083 83.8621 153.096 85.8848 155.119L85.8825 155.11Z" fill="white"/>
<path d="M10.85 127.029C10.3909 126.355 9.97147 125.733 9.54502 125.113C9.34694 124.824 9.13721 124.545 8.92747 124.263C8.82494 124.123 8.79697 123.985 8.93913 123.866C9.12555 123.71 9.26071 123.515 9.49841 123.398C9.82466 123.237 10.0973 122.972 10.3979 122.755C10.7312 122.515 11.0644 122.552 11.2695 122.885C11.9406 123.976 12.7492 124.973 13.432 126.057C13.742 126.551 14.0962 127.038 14.4784 127.49C14.6228 127.66 14.6858 127.87 14.6788 128.108C14.6741 128.243 14.6322 128.345 14.5296 128.394C14.1032 128.602 13.7536 128.928 13.3411 129.166C12.924 129.403 12.4743 129.515 12.0525 129.716C11.5841 129.937 11.0877 129.984 10.5774 129.953C10.4515 129.946 10.3047 129.897 10.2068 130.042C10.1929 130.063 10.1253 130.077 10.1043 130.063C9.75009 129.83 9.35626 130.009 8.98806 129.946C8.84591 129.923 8.71075 129.867 8.57093 129.832C8.00932 129.699 7.45237 129.536 6.95367 129.243C6.49459 128.972 6.02386 128.711 5.64635 128.32C5.26417 127.921 4.8284 127.567 4.54176 127.087C4.2831 126.656 4.02443 126.213 3.8613 125.742C3.76343 125.458 3.50709 125.206 3.59098 124.864C3.40922 124.71 3.52806 124.503 3.49078 124.323C3.45815 124.162 3.38824 124.006 3.38125 123.848C3.36494 123.501 3.34397 123.146 3.38591 122.802C3.42553 122.468 3.43252 122.116 3.51408 121.806C3.68187 121.168 3.88228 120.522 4.23649 119.958C4.53011 119.49 4.84937 119.026 5.22688 118.628C5.58343 118.25 6.02386 117.952 6.43867 117.633C6.75559 117.39 7.13777 117.26 7.48499 117.067C7.80891 116.885 8.19108 116.808 8.54763 116.684C8.56394 116.677 8.58258 116.673 8.60123 116.673C9.30499 116.673 9.99943 116.454 10.7032 116.566C10.9782 116.61 11.2508 116.649 11.5281 116.687C11.8055 116.722 12.0711 116.864 12.3414 116.964C12.5931 117.057 12.8471 117.148 13.0918 117.258C13.3365 117.367 13.6091 117.458 13.8072 117.628C14.3339 118.08 14.8792 118.504 15.308 119.08C15.6505 119.539 15.9581 120.007 16.2401 120.504C16.4568 120.891 16.5034 121.326 16.6572 121.73C16.7458 121.963 16.7668 122.196 16.7761 122.44C16.7831 122.638 16.8623 122.834 16.8809 123.032C16.8996 123.223 16.9159 123.426 16.8809 123.612C16.7901 124.065 16.818 124.533 16.6572 124.973C16.5267 125.33 16.3846 125.479 16.049 125.395C15.7158 125.311 15.3569 125.33 15.047 125.146C14.9561 125.092 14.8419 125.081 14.7347 125.057C14.5389 125.013 14.3362 124.992 14.1474 124.929C14.0752 124.903 13.9913 124.794 13.982 124.717C13.9587 124.507 13.9028 124.256 13.989 124.086C14.1987 123.673 14.1148 123.244 14.0682 122.85C14.0123 122.38 13.8212 121.909 13.6138 121.476C13.3878 121 13.1011 120.574 12.6304 120.25C12.2179 119.965 11.8288 119.684 11.3371 119.569C11.2322 119.546 11.132 119.497 11.0271 119.474C10.8663 119.441 10.7079 119.502 10.5377 119.381C10.4305 119.304 10.2115 119.371 10.0437 119.39C9.93651 119.402 9.83398 119.467 9.72911 119.467C9.42384 119.464 9.16517 119.579 8.89252 119.697C8.25867 119.972 7.67608 120.306 7.20535 120.823C6.9024 121.154 6.65772 121.497 6.50625 121.932C6.43167 122.151 6.30584 122.34 6.27088 122.596C6.24292 122.811 6.17067 123.025 6.17534 123.249C6.18 123.501 6.12407 123.766 6.18699 124.002C6.35011 124.615 6.59946 125.183 6.97931 125.712C7.28458 126.136 7.65744 126.432 8.08855 126.689C8.61987 127.003 9.18614 127.194 9.81534 127.157C10.0484 127.143 10.2814 127.166 10.5121 127.15C10.6146 127.143 10.7125 127.08 10.8523 127.029H10.85Z" fill="white"/>
<path d="M108.055 13.7069C108.073 14.2149 107.959 14.695 107.845 15.189C107.603 16.254 107.379 16.7038 106.885 17.4681C106.139 18.624 105.105 19.4699 103.835 19.9709C103.25 20.2016 102.627 20.423 101.966 20.3764C101.872 20.3694 101.747 20.3554 101.691 20.4043C101.5 20.5745 101.234 20.5418 101.092 20.4719C100.684 20.2738 100.223 20.5045 99.8404 20.2575C99.4955 20.3577 99.2275 20.1107 98.9595 19.9989C98.603 19.8497 98.2348 19.6866 97.8875 19.4908C97.256 19.132 96.713 18.6729 96.247 18.1439C95.9417 17.799 95.5409 17.4751 95.4803 16.9578C95.2426 16.7574 95.189 16.4614 95.0771 16.1934C94.8534 15.6691 94.7136 15.1284 94.6623 14.5598C94.646 14.3618 94.5505 14.1637 94.5575 13.9679C94.5668 13.6883 94.4619 13.4017 94.6274 13.1267C94.7625 12.903 94.5505 12.593 94.7812 12.3763C95.0305 11.2111 95.1564 10.8895 95.7133 10.0273C96.1328 9.37482 96.6991 8.86214 97.2886 8.35412C97.7873 7.92534 98.3862 7.71794 98.9455 7.42665C99.1343 7.32877 99.3487 7.25187 99.5584 7.22624C99.7798 7.19827 99.9895 7.1237 100.204 7.07943C100.677 6.98388 101.143 6.98155 101.614 6.98621C102.096 6.9932 102.567 7.09574 103.028 7.21925C103.837 7.43131 104.566 7.82514 105.27 8.26557C105.333 8.30519 105.396 8.34713 105.447 8.39607C105.615 8.55686 105.752 8.7666 105.948 8.87612C106.135 8.98332 106.198 9.17208 106.347 9.29092C106.706 9.57756 106.964 9.96439 107.151 10.3559C107.426 10.9361 107.822 11.4838 107.826 12.1712C107.826 12.3111 107.882 12.4555 107.941 12.586C108.101 12.9472 108.041 13.3294 108.055 13.7023V13.7069ZM105.14 13.4949C105.205 12.9146 105.053 12.332 104.76 11.7821C104.667 11.6073 104.566 11.4302 104.443 11.274C103.991 10.6915 103.396 10.307 102.728 9.99935C102.243 9.77797 101.751 9.79661 101.248 9.77097C100.749 9.74534 100.316 9.92711 99.8683 10.0996C99.0993 10.3932 98.6053 10.9874 98.1602 11.6329C98.0693 11.7658 97.9947 11.9126 97.9272 12.0594C97.7314 12.4928 97.517 12.9263 97.5753 13.4273C97.2234 13.9772 97.7128 14.5272 97.5753 15.0772C97.5729 15.0865 97.6079 15.1028 97.6126 15.1191C97.8269 15.6667 98.321 16.3425 98.7964 16.7713C99.5328 17.4378 100.428 17.6522 101.381 17.6918C101.558 17.6988 101.735 17.5916 101.914 17.587C102.392 17.58 102.793 17.3562 103.184 17.1395C103.685 16.8622 104.063 16.4381 104.373 15.9604C104.848 15.2263 105.196 14.448 105.137 13.4972L105.14 13.4949Z" fill="white"/>
<path d="M13.3915 44.2945C13.3915 44.5322 13.3868 44.6884 13.3915 44.8422C13.4218 45.6531 13.1398 46.3755 12.8229 47.1096C12.5572 47.7201 12.2147 48.2748 11.8022 48.7735C11.5948 49.0251 11.3804 49.3118 11.0751 49.4912C10.7908 49.659 10.5275 49.8641 10.2688 50.0691C9.86567 50.3907 9.33202 50.4467 8.92188 50.7519C8.45581 50.7496 8.05499 51.0689 7.56795 51.0083C7.37919 50.985 7.17645 51.1015 6.97837 51.1108C6.36083 51.1364 5.7596 50.9989 5.15371 50.8848C4.58045 50.7776 4.05845 50.5282 3.54111 50.2812C3.07504 50.0575 2.64859 49.7569 2.28506 49.3817C1.82831 48.9086 1.3366 48.4728 0.991714 47.8856C0.733045 47.4452 0.497681 47.0071 0.346209 46.52C0.225031 46.1332 0.15745 45.7394 0.0852094 45.3409C0.00364726 44.9028 -0.0126656 44.474 0.00830753 44.0452C0.0688965 42.8054 0.402137 41.6426 1.12687 40.6149C1.36224 40.2817 1.57896 39.9228 1.87258 39.6478C2.53207 39.0326 3.2405 38.4477 4.09107 38.1354C4.72027 37.9047 5.35878 37.6367 6.0742 37.7136C6.51463 37.7602 6.96672 37.7346 7.41182 37.7206C8.34163 37.688 9.17822 38.0236 9.95888 38.45C10.5764 38.7856 11.1544 39.2167 11.6297 39.7527C12.0352 40.2071 12.4057 40.6965 12.6761 41.2395C12.8089 41.5074 13.0186 41.7521 13.0443 42.076C13.0676 42.365 13.2051 42.633 13.2913 42.9057C13.4451 43.3997 13.3402 43.8891 13.3892 44.2922L13.3915 44.2945ZM6.59153 40.5124C6.06488 40.538 5.63143 40.4262 5.28654 40.7524C4.6923 40.8549 4.24488 41.1952 3.84406 41.6216C3.17525 42.3347 2.78142 43.1597 2.7954 44.1547C2.79773 44.3295 2.79773 44.5043 2.7954 44.679C2.78841 45.0356 2.88861 45.3758 3.03776 45.6834C3.38964 46.4128 3.88367 47.0234 4.56879 47.4871C5.49394 48.1116 6.5123 48.3004 7.58426 48.1885C7.87089 48.1583 8.21113 48.1023 8.46047 47.9369C8.84498 47.6805 9.24347 47.4428 9.57671 47.0979C9.89597 46.7694 10.1523 46.3988 10.3434 46.012C10.5555 45.5832 10.637 45.0799 10.7069 44.5952C10.7442 44.3388 10.6813 44.0848 10.6114 43.8261C10.5112 43.4556 10.3224 42.8357 10.0964 42.5258C9.95422 42.3324 9.79809 42.1483 9.66759 41.9455C9.53476 41.7405 9.29007 41.6729 9.15491 41.4702C8.94984 41.1626 8.53504 41.1439 8.29968 40.8689C7.68913 40.7524 7.12751 40.3749 6.58921 40.5124H6.59153Z" fill="white"/>
<path d="M137.397 124.414C137.397 124.512 137.392 124.608 137.397 124.706C137.451 125.747 137.138 126.698 136.656 127.598C136.477 127.933 136.258 128.25 136.041 128.565C135.747 128.989 135.435 129.399 135.139 129.821C134.792 130.315 134.456 130.818 134.107 131.312C134.03 131.422 133.918 131.508 133.822 131.601C133.564 131.855 133.377 131.916 133.154 131.683C132.604 131.109 131.874 130.797 131.275 130.298C130.926 130.007 130.525 129.774 130.15 129.511C129.609 129.129 129.08 128.728 128.53 128.364C127.645 127.777 126.785 127.15 125.92 126.533C125.291 126.083 124.657 125.628 124.042 125.153C123.781 124.95 123.49 124.785 123.238 124.57C123.014 124.379 123.014 124.351 123.196 124.051C123.403 123.706 123.629 123.373 123.865 123.049C124.31 122.436 124.788 121.846 125.214 121.219C125.571 120.695 125.904 120.157 126.372 119.723C126.822 119.309 127.321 118.945 127.857 118.668C128.379 118.397 128.936 118.192 129.523 118.055C130.269 117.88 131.007 118.008 131.748 117.955C132.191 118.162 132.687 118.167 133.144 118.383C133.685 118.64 134.228 118.875 134.71 119.236C134.768 119.281 134.848 119.302 134.892 119.355C135.197 119.733 135.624 119.97 135.936 120.36C136.332 120.854 136.672 121.366 136.926 121.935C137.204 122.555 137.434 123.193 137.399 123.892C137.39 124.067 137.399 124.242 137.399 124.417L137.397 124.414ZM126.899 123.55C126.938 123.606 126.955 123.645 126.983 123.664C127.763 124.214 128.546 124.759 129.325 125.311C130.136 125.885 130.944 126.458 131.751 127.041C132.096 127.29 132.426 127.563 132.767 127.819C132.983 127.982 133.181 127.926 133.328 127.672C133.391 127.563 133.449 127.444 133.536 127.353C133.864 126.999 134.093 126.589 134.274 126.146C134.647 125.244 134.71 124.575 134.484 123.771C134.286 123.072 133.948 122.424 133.398 121.96C132.834 121.483 132.24 120.984 131.422 120.984C131.052 120.739 130.639 120.886 130.248 120.882C129.984 120.877 129.709 120.972 129.458 121.068C128.243 121.529 127.523 122.499 126.897 123.552L126.899 123.55Z" fill="white"/>
<path d="M113.67 22.8302C112.589 23.9907 111.748 25.3772 110.643 26.6123C110.198 26.2954 109.776 26.0064 109.366 25.7012C109.126 25.5217 108.893 25.3283 108.674 25.1256C108.464 24.9298 108.457 24.7597 108.616 24.5337C108.819 24.247 109.014 23.9557 109.233 23.6854C109.716 23.0889 110.198 22.4923 110.653 21.8794C111.261 21.0591 111.932 20.2901 112.517 19.4558C113.102 18.6192 113.771 17.8456 114.37 17.023C114.885 16.3169 115.427 15.6364 115.968 14.9513C116.21 14.6437 116.437 14.5808 116.73 14.8021C117.119 15.0911 117.49 15.4057 117.872 15.704C118.282 16.0232 118.688 16.3472 119.109 16.6548C119.764 17.1325 120.417 17.6102 120.967 18.2138C121.37 18.6542 121.584 19.1995 121.773 19.7425C121.892 20.0874 121.952 20.4952 121.887 20.8471C121.808 21.2875 121.827 21.7559 121.584 22.173C121.365 22.5482 121.188 22.9397 120.934 23.3032C120.393 24.0816 119.447 24.5593 118.706 24.8133C118.177 24.9951 117.648 24.8995 117.122 24.9088C116.963 24.9112 116.802 24.7574 116.595 24.6502C116.579 24.783 116.56 24.8855 116.551 24.9858C116.511 25.4355 116.458 25.8853 116.439 26.335C116.42 26.7988 116.516 27.2835 116.416 27.7286C116.273 28.3578 116.362 28.9823 116.315 29.6045C116.294 29.8818 116.248 30.1568 116.199 30.4294C116.173 30.5739 115.905 30.6904 115.782 30.6089C115.612 30.497 115.453 30.3688 115.292 30.2407C114.868 29.9051 114.456 29.5532 114.02 29.234C113.566 28.9007 113.4 28.5139 113.545 27.9872C113.563 27.9197 113.631 27.8591 113.635 27.7938C113.68 27.1903 113.733 26.5844 113.75 25.9808C113.764 25.4308 113.95 24.8972 113.871 24.3402C114.069 24.0676 113.952 23.753 113.99 23.457C114.027 23.1774 113.922 22.977 113.663 22.8348L113.67 22.8302ZM116.97 18.4701C116.369 19.1832 115.842 19.9452 115.246 20.6839C115.33 20.7026 115.393 20.6979 115.432 20.7282C115.817 21.0218 116.208 21.3085 116.574 21.6231C117.462 22.3897 118.704 21.9493 118.893 20.9449C118.918 20.8074 119.061 20.6746 118.995 20.5278C118.832 20.1643 118.732 19.7518 118.403 19.4955C117.956 19.1459 117.481 18.8313 116.973 18.4678L116.97 18.4701Z" fill="white"/>
<path d="M47.5636 153.215C47.4913 153.492 47.4331 153.683 47.3911 153.879C47.2676 154.464 46.9693 155.002 46.9251 155.608C46.5545 156.044 46.727 156.683 46.3611 157.121C46.3495 157.135 46.3448 157.153 46.3425 157.172C46.3238 157.316 46.4147 157.512 46.233 157.587C46.0838 157.65 45.9044 157.668 45.7412 157.657C45.5222 157.645 45.2845 157.631 45.0957 157.538C44.6716 157.328 44.1939 157.284 43.7721 157.081C43.7069 157.048 43.6486 157.002 43.574 156.953C43.4715 156.478 43.6626 156.049 43.7954 155.615C43.8956 155.289 44.0727 154.977 44.1147 154.646C44.1543 154.329 44.2894 154.054 44.3687 153.756C44.5458 153.094 44.7322 152.434 44.9513 151.784C45.147 151.204 45.2239 150.586 45.5222 150.041C45.4639 149.619 45.8834 149.298 45.7692 148.862C46.0652 148.491 46.0605 148.014 46.2166 147.592C46.4543 146.951 46.6058 146.278 46.8155 145.627C46.8808 145.425 46.8971 145.206 47.0299 145.015C47.0905 144.926 47.0229 144.737 47.1697 144.672C47.2676 144.63 47.3865 144.628 47.496 144.621C47.7197 144.607 47.9294 144.665 48.1485 144.726C48.8453 144.919 49.4978 145.264 50.2342 145.318C50.6816 145.653 51.2479 145.695 51.7535 145.858C52.3035 146.035 52.7766 146.294 53.2659 146.576C53.7134 146.832 53.979 147.231 54.2517 147.625C54.4241 147.872 54.5197 148.172 54.6525 148.447C54.6688 148.48 54.7271 148.51 54.7201 148.533C54.5966 149.086 55.0696 149.633 54.7247 150.186C54.7154 150.2 54.7201 150.225 54.7247 150.244C54.8179 150.789 54.5033 151.237 54.3682 151.728C54.3402 151.829 54.2214 151.898 54.1678 151.994C53.9697 152.357 53.7297 152.691 53.4221 152.963C52.9397 153.394 52.3804 153.688 51.7419 153.823C51.4925 153.875 51.2455 153.937 50.9752 154.003C51.2292 154.473 51.3108 154.993 51.4739 155.489C51.637 155.986 51.7792 156.494 51.9586 156.979C52.1264 157.433 52.2429 157.906 52.434 158.353C52.5668 158.666 52.6554 159.001 52.7416 159.332C52.7812 159.486 52.6554 159.633 52.4946 159.644C52.3408 159.656 52.1613 159.696 52.0332 159.637C51.7465 159.507 51.4063 159.509 51.1593 159.367C50.8773 159.202 50.5721 159.181 50.2854 159.083C50.0034 158.987 49.7844 158.852 49.5933 158.645C49.5467 158.594 49.5071 158.524 49.4884 158.456C49.3952 158.085 49.316 157.713 49.2181 157.344C49.1226 156.979 49.0107 156.615 48.9035 156.254C48.7963 155.893 48.6658 155.527 48.5866 155.168C48.4747 154.651 48.2464 154.166 48.1951 153.635C48.1834 153.523 48.0786 153.388 47.9784 153.327C47.8619 153.255 47.7011 153.255 47.5612 153.222L47.5636 153.215ZM48.4072 150.475C48.9012 150.789 49.4558 150.838 49.9522 151.034C50.6257 151.3 51.1686 151.15 51.5927 150.593C51.7512 150.384 51.9283 150.155 51.9283 149.862C51.9283 149.277 51.686 148.843 51.157 148.559C50.7352 148.331 50.2575 148.296 49.831 148.107C49.591 148 49.3766 147.993 49.1762 148.011C48.9082 148.867 48.6542 149.675 48.4048 150.477L48.4072 150.475Z" fill="white"/>
<path d="M131.106 27.5422C131.208 28.1411 130.752 28.3532 130.414 28.6421C130.374 28.6771 130.314 28.6887 130.274 28.726C129.903 29.0523 129.54 29.3855 129.167 29.7118C128.999 29.8586 128.815 29.9867 128.64 30.1242C128.466 30.2617 128.326 30.4318 128.123 30.553C127.913 30.6788 127.692 30.8676 127.599 31.1263C127.629 31.1589 127.641 31.1845 127.655 31.1845C129.785 31.1845 131.917 31.1845 134.058 31.1845C134.494 31.6087 134.867 32.0724 135.212 32.5641C135.322 32.7202 135.489 32.8344 135.617 32.9812C135.776 33.163 135.939 33.3471 136.067 33.5522C136.24 33.8225 136.095 34.1091 135.785 34.1161C135.301 34.1254 134.797 34.2023 134.336 34.0998C133.648 33.946 132.966 34.0555 132.285 34.0019C131.912 33.9716 131.542 33.911 131.169 33.8924C130.782 33.8737 130.374 33.9646 130.011 33.8714C129.326 33.6966 128.643 33.8108 127.96 33.7759C127.708 33.7619 127.624 33.8621 127.617 34.1138C127.61 34.3748 127.599 34.6241 127.515 34.8851C127.438 35.1228 127.54 35.4048 127.391 35.6518C127.349 35.7217 127.396 35.8429 127.382 35.9384C127.342 36.2134 127.438 36.4861 127.284 36.7727C127.161 37.0034 127.37 37.339 127.151 37.5883C127.142 37.6 127.151 37.6256 127.151 37.6466C127.112 38.1546 127.079 38.6626 127.032 39.1683C127.005 39.4829 127.028 39.8301 126.897 40.0981C126.781 40.3335 126.834 40.5409 126.804 40.7599C126.757 41.1118 126.732 41.466 126.683 41.8156C126.65 42.0393 126.277 42.1302 126.086 41.96C125.898 41.7923 125.697 41.6268 125.555 41.4241C125.257 40.9883 124.912 40.5968 124.558 40.21C124.369 40.0026 124.22 39.7788 124.124 39.5155C124.099 39.4456 124.106 38.6579 124.157 38.5787C124.308 38.334 124.292 38.0427 124.334 37.7841C124.399 37.3833 124.474 36.9941 124.567 36.5979C124.632 36.3183 124.66 36.013 124.704 35.7194C124.753 35.3885 124.7 35.0086 124.847 34.7336C125.007 34.4307 124.826 34.1021 125.04 33.8178C125.133 33.6943 125.056 33.4426 125.056 33.2026C124.896 33.2958 124.739 33.3611 124.614 33.4659C124.292 33.7293 123.989 34.0159 123.67 34.2839C122.994 34.8502 122.318 35.4164 121.633 35.9687C121.37 36.1831 121.211 36.1785 121.002 35.9408C120.563 35.4491 120.137 34.9457 119.727 34.433C119.498 34.1464 119.531 34.0066 119.815 33.7176C120.237 33.2865 120.708 32.916 121.197 32.5594C121.517 32.3264 121.799 32.0398 122.099 31.7834C122.3 31.6133 122.505 31.4525 122.707 31.2894C122.896 31.1379 123.043 30.9515 123.269 30.8233C123.574 30.6485 123.824 30.3736 124.094 30.1382C124.707 29.6046 125.294 29.0359 125.94 28.5442C126.52 28.1015 127.039 27.5935 127.634 27.167C128.049 26.8711 128.407 26.4935 128.783 26.1463C128.95 25.9925 129.127 25.8667 129.36 25.8574C129.57 25.848 129.794 25.8271 129.834 26.1277C129.838 26.1603 129.875 26.1883 129.899 26.2162C130.295 26.6543 130.691 27.0924 131.106 27.5515V27.5422Z" fill="white"/>
<path d="M27.7468 133.342C27.9775 133.293 28.136 133.361 28.3224 133.51C28.8351 133.915 29.2872 134.379 29.7463 134.838C29.9956 135.087 29.9793 135.136 29.7789 135.402C29.4923 135.784 29.145 136.111 28.8351 136.467C28.0987 137.315 27.3227 138.129 26.577 138.968C25.7917 139.851 25.0133 140.739 24.1837 141.582C23.5848 142.193 22.8228 142.493 22.0445 142.743C21.6436 142.871 21.1892 142.857 20.7581 142.866C20.5228 142.873 20.2851 142.799 20.0497 142.757C19.833 142.719 19.5976 142.722 19.4042 142.628C19.1875 142.526 18.9521 142.489 18.7447 142.395C18.3835 142.232 18.0479 142.006 17.7193 141.78C17.4723 141.61 17.237 141.419 17.0272 141.205C16.3887 140.557 15.8271 139.858 15.5801 138.954C15.5428 138.818 15.403 138.709 15.3773 138.574C15.3144 138.224 15.2818 137.87 15.2562 137.518C15.2375 137.248 15.2375 136.975 15.2562 136.705C15.2748 136.448 15.2935 136.18 15.375 135.94C15.5125 135.535 15.678 135.134 15.8737 134.752C16.0135 134.477 16.2023 134.218 16.405 133.983C16.8292 133.494 17.2906 133.034 17.7147 132.543C18.1575 132.028 18.6561 131.564 19.036 130.998C19.0686 130.951 19.1176 130.916 19.1572 130.874C19.7071 130.287 20.2618 129.704 20.8001 129.11C21.0774 128.805 21.3197 128.467 21.618 128.18C21.8813 127.926 22.0421 127.88 22.2915 128.096C22.8112 128.544 23.3168 129.012 23.8062 129.495C24.0206 129.707 23.988 129.965 23.7806 130.208C23.7177 130.282 23.6431 130.343 23.5755 130.415C23.0116 131.016 22.429 131.599 21.893 132.223C21.2871 132.93 20.6835 133.636 20.0404 134.309C19.586 134.785 19.1875 135.311 18.7587 135.812C18.1062 136.572 17.9734 137.455 18.2926 138.362C18.486 138.912 18.9008 139.331 19.4578 139.636C19.9635 139.911 20.4668 140.044 21.0075 139.956C21.336 139.902 21.7019 139.79 21.9489 139.583C22.2682 139.315 22.7203 139.161 22.8624 138.702C22.8717 138.669 22.916 138.648 22.9416 138.618C23.4497 138.073 23.946 137.513 24.4727 136.987C24.6078 136.852 24.6172 136.593 24.8688 136.574C24.9155 136.353 25.0972 136.236 25.2394 136.087C25.3862 135.933 25.5703 135.805 25.6845 135.63C25.9618 135.211 26.3812 134.92 26.6655 134.521C26.9801 134.078 27.3996 133.748 27.7352 133.347L27.7468 133.342Z" fill="white"/>
<path d="M67.4013 158.754C66.7372 158.535 66.0777 158.675 65.4485 158.573C64.8566 158.475 64.274 158.512 63.6891 158.472C63.5097 158.461 63.3349 158.389 63.1554 158.363C62.9713 158.335 62.8362 158.396 62.7569 158.589C62.4703 159.286 62.0136 159.903 61.8062 160.642C61.7642 160.791 61.6267 160.919 61.5242 161.047C61.3541 161.26 61.1537 161.367 60.888 161.206C60.8437 161.178 60.7878 161.159 60.7342 161.155C60.1679 161.113 59.6017 161.064 59.0354 161.04C58.546 161.019 58.4598 160.88 58.6765 160.402C58.8023 160.125 58.9095 159.838 59.0517 159.568C59.1612 159.36 59.2801 159.148 59.3616 158.938C59.4502 158.708 59.6296 158.524 59.6855 158.319C59.8091 157.874 60.1003 157.522 60.2542 157.095C60.4056 156.676 60.655 156.291 60.86 155.89C61.0651 155.49 61.2748 155.093 61.4753 154.69C61.6757 154.289 61.8668 153.882 62.0602 153.476C62.3002 152.973 62.5402 152.472 62.7849 151.971C63.0925 151.342 63.3861 150.705 63.7054 150.083C63.9361 149.636 64.1365 149.172 64.3789 148.729C64.5233 148.464 64.6772 148.347 64.9824 148.333C65.5953 148.305 66.1826 148.52 66.7978 148.468C67.2219 148.433 67.2568 148.874 67.4037 149.132C67.5155 149.328 67.4876 149.598 67.5645 149.82C67.6414 150.041 67.7322 150.253 67.7742 150.491C67.8138 150.717 67.9257 150.931 67.9979 151.153C68.1261 151.547 68.2333 151.95 68.3591 152.344C68.4803 152.721 68.683 153.073 68.697 153.483C68.9906 153.854 68.958 154.338 69.1514 154.751C69.3309 155.14 69.3914 155.58 69.5382 155.988C69.8995 156.986 70.1302 158.027 70.5613 158.999C70.4704 159.393 70.806 159.675 70.8339 160.059C70.8596 160.402 71.018 160.763 71.1672 161.075C71.335 161.43 71.2184 161.674 71.1042 161.952C70.4797 162.05 69.8925 161.763 69.2796 161.849C69.1048 161.693 68.8927 161.737 68.6877 161.733C68.3311 161.726 68.1587 161.618 68.1261 161.26C68.0981 160.94 67.9676 160.658 67.8697 160.372C67.7719 160.083 67.7532 159.775 67.5878 159.498C67.4642 159.288 67.4596 159.008 67.399 158.75L67.4013 158.754ZM66.5531 155.937C66.1686 154.832 65.9588 153.777 65.579 152.733C65.2038 152.97 65.2341 153.409 65.0337 153.716C64.8286 154.026 64.7331 154.408 64.556 154.732C64.3742 155.07 64.2414 155.401 64.1388 155.8C64.5723 155.8 64.9568 155.783 65.339 155.804C65.7072 155.825 66.073 155.883 66.5531 155.937Z" fill="white"/>
<path d="M40.2876 6.80872C40.502 6.58734 40.7141 6.39159 41.0543 6.39159C41.1848 6.39159 41.3153 6.27973 41.4481 6.2308C41.8862 6.06534 42.2847 5.76473 42.7694 5.81832C43.7994 6.88096 44.8551 7.89699 45.8222 8.99459C46.3954 9.64475 47.02 10.2343 47.6049 10.8682C47.7657 11.043 47.9125 11.2294 48.071 11.4065C48.2271 11.5813 48.3832 11.7537 48.5464 11.9215C48.7071 12.0893 48.8749 12.2524 49.0404 12.4155C49.2198 12.595 49.4132 12.7581 49.5717 12.9538C50.2172 13.7415 50.9559 14.4359 51.662 15.163C51.8554 15.3611 52.0092 15.5965 52.1724 15.8015C51.9906 16.2932 51.5106 16.3398 51.147 16.5146C50.8627 16.6521 50.5435 16.7337 50.2428 16.8572C49.9609 16.9714 49.6393 17.0716 49.2618 16.9714C49.1266 16.8082 48.9612 16.6008 48.7864 16.4004C48.6233 16.214 48.4555 16.0322 48.283 15.8528C48.0943 15.657 47.8636 15.4916 47.7191 15.2679C47.5839 15.0628 47.3579 14.9766 47.2414 14.8135C46.8871 14.9603 46.5516 15.1397 46.1927 15.2399C45.701 15.3751 45.2699 15.6384 44.7968 15.8085C44.3587 15.9647 43.9253 16.1394 43.4848 16.2956C43.2029 16.3958 43.084 16.5333 43.084 16.8222C43.0817 17.5796 43.084 18.3346 43.0817 19.092C43.0817 19.2411 43.1073 19.4299 43.0304 19.5324C42.9139 19.6885 42.7321 19.8563 42.5504 19.8959C41.9631 20.0264 41.4318 20.2898 40.8935 20.5368C40.7187 20.616 40.5603 20.6463 40.4228 20.5554C40.269 20.4529 40.1618 20.3177 40.1641 20.0824C40.1758 17.5609 40.1711 15.0395 40.1711 12.5157C40.4018 11.5696 40.2573 10.6072 40.2829 9.65407C40.3063 8.70562 40.2876 7.75484 40.2876 6.80872ZM42.9652 10.1784C42.9652 11.241 42.9605 12.2221 42.9675 13.2009C42.9698 13.4852 43.1586 13.583 43.4312 13.4386C43.8927 13.1962 44.3913 13.0494 44.8621 12.8327C45.0019 12.7674 45.1557 12.7278 45.3165 12.6742C45.0881 12.306 43.3567 10.458 42.9652 10.1807V10.1784Z" fill="white"/>
<path d="M30.9032 147.646C30.1622 148.256 29.4374 148.855 28.6544 149.503C28.2559 149.615 27.8854 149.389 27.5056 149.14C27.1444 148.902 26.7296 148.746 26.3847 148.478C26.3008 148.412 26.1866 148.38 26.1074 148.31C25.914 148.135 25.9 148.005 26.0794 147.837C26.2821 147.643 26.5082 147.476 26.7272 147.299C27.438 146.73 28.1371 146.145 28.8735 145.604C29.3722 145.239 29.8103 144.791 30.309 144.425C30.803 144.062 31.2551 143.652 31.7561 143.3C32.2618 142.943 32.6976 142.493 33.1916 142.123C33.6344 141.79 34.0352 141.405 34.5176 141.118C34.7693 140.969 34.9604 140.72 35.2097 140.545C35.5476 140.308 35.8412 140.007 36.1558 139.732C36.1698 139.72 36.1815 139.702 36.1978 139.692C36.5147 139.469 36.7873 139.277 37.2115 139.599C37.6193 139.909 38.1389 140.07 38.591 140.326C38.7868 140.438 38.9383 140.617 38.894 140.892C38.8427 141.209 38.9732 141.543 38.8147 141.85C38.6726 142.125 38.9173 142.465 38.6586 142.717C38.7145 143.043 38.5514 143.344 38.5491 143.659C38.5421 144.22 38.4908 144.772 38.3114 145.308C38.2997 145.343 38.3114 145.385 38.3114 145.425C38.2741 145.912 38.2764 146.411 38.1809 146.886C38.1156 147.203 38.1692 147.553 38.0551 147.821C37.9129 148.151 38.0551 148.471 37.9548 148.769C37.7638 149.349 37.8593 149.978 37.6193 150.549C37.5703 150.666 37.6263 150.82 37.61 150.953C37.5773 151.19 37.6845 151.43 37.5191 151.673C37.3886 151.864 37.6146 152.164 37.3886 152.374C37.3583 152.402 37.3769 152.486 37.3816 152.542C37.4212 152.999 37.2021 153.43 37.2557 153.891C37.2697 154.001 37.1765 154.124 37.1252 154.255C36.8549 154.362 36.6009 154.276 36.3492 154.138C35.8575 153.868 35.3612 153.604 34.8951 153.285C34.739 153.178 34.5199 153.092 34.485 152.936C34.4337 152.705 34.4966 152.449 34.5199 152.204C34.5292 152.115 34.5689 152.029 34.5828 151.941C34.6178 151.684 34.5456 151.43 34.683 151.165C34.7856 150.969 34.6597 150.692 34.8066 150.459C34.8671 150.361 34.8368 150.191 34.8112 150.06C34.7902 149.96 34.739 149.832 34.6597 149.78C34.4337 149.636 34.1774 149.538 33.9467 149.401C33.5249 149.149 33.1357 148.827 32.6906 148.641C32.369 148.508 32.0917 148.31 31.7841 148.163C31.4905 148.026 31.2201 147.839 30.9056 147.653L30.9032 147.646ZM33.124 145.788C33.8674 146.21 34.5386 146.592 35.2586 147.003C35.3099 146.69 35.3076 146.401 35.4124 146.157C35.5313 145.879 35.473 145.6 35.5243 145.329C35.5756 145.054 35.5732 144.761 35.6548 144.514C35.748 144.227 35.7247 143.973 35.7573 143.638C34.8508 144.379 34.0072 145.068 33.124 145.788Z" fill="white"/>
<path d="M31.7121 16.7548C32.0687 16.9808 32.5557 17.5494 32.8353 18.0435C32.9239 18.2019 33.0264 18.3534 33.1196 18.5072C33.2198 18.6727 33.2222 18.894 33.0777 19.0176C32.7211 19.3182 32.3809 19.6584 31.9754 19.8705C31.4791 20.1268 31.0852 20.5253 30.6052 20.777C30.1881 20.996 29.8665 21.3246 29.4354 21.5576C29.8315 22.1612 30.1974 22.7415 30.5889 23.3031C30.794 23.5967 30.9128 23.5734 31.1901 23.3637C31.5397 23.1003 31.9125 22.865 32.2761 22.6203C33.0963 22.0703 33.9143 21.5203 34.7369 20.975C34.9466 20.8352 35.1703 20.7187 35.3777 20.5975C35.8741 20.8352 36.0023 21.3502 36.3145 21.7138C36.466 21.8909 36.5779 22.1053 36.6874 22.315C36.8575 22.6412 36.8575 22.7251 36.5988 22.9465C36.3332 23.1726 36.0396 23.3683 35.7529 23.5664C35.0282 24.0628 34.3081 24.5661 33.5717 25.0462C32.7142 25.6078 31.8613 26.1741 31.027 26.7729C30.7473 26.9734 30.4374 27.1295 30.1461 27.3136C29.9877 27.4138 29.8572 27.3882 29.75 27.2483C29.6731 27.1481 29.6195 27.0293 29.5402 26.9291C28.9087 26.1181 28.382 25.2372 27.7971 24.396C27.4313 23.867 27.0794 23.3287 26.7065 22.8044C26.0144 21.8349 25.3526 20.8445 24.6861 19.8588C24.1315 19.0409 23.5885 18.2182 23.0386 17.398C22.9687 17.2931 22.9034 17.1812 22.8312 17.0764C22.6797 16.855 22.6587 16.5497 22.8568 16.4542C23.0595 16.3586 23.1597 16.1396 23.3392 16.079C23.8286 15.9182 24.1664 15.543 24.5789 15.2797C25.2268 14.8649 25.8373 14.3895 26.4875 13.9794C26.7788 13.7953 27.0421 13.5739 27.359 13.4224C27.669 13.2733 27.9253 13.0146 28.2166 12.8188C28.6547 12.5275 29.1021 12.2502 29.5426 11.9683C30.0203 12.2269 30.1508 12.7419 30.4794 13.0915C30.6378 13.2593 30.7264 13.4923 30.8569 13.6881C31.0107 13.9211 31.0153 14.0959 30.8196 14.2823C30.6868 14.4081 30.5283 14.5083 30.3768 14.6132C29.7173 15.0723 29.0439 15.5127 28.3844 15.9695C27.7645 16.3982 27.0934 16.7664 26.5271 17.2884C26.8883 17.8431 27.2472 18.393 27.6084 18.9407C27.6387 18.9873 27.6899 19.0222 27.7295 19.0642C27.916 19.2576 27.9859 19.2622 28.2096 19.1108C28.6943 18.7799 29.1767 18.4513 29.6637 18.1227C30.3442 17.6636 31.027 17.2069 31.7028 16.7548H31.7121Z" fill="white"/>
<path d="M107.074 141.307C107.509 142.016 107.924 142.692 108.362 143.4C109.022 142.999 109.642 142.629 110.257 142.244C110.844 141.878 111.422 141.496 112.007 141.13C112.275 140.962 112.515 141.042 112.713 141.359C112.913 141.683 113.086 142.023 113.303 142.335C113.428 142.517 113.547 142.696 113.654 142.89C113.764 143.085 113.689 143.246 113.568 143.335C113.095 143.675 112.61 143.994 112.1 144.281C111.545 144.591 111.019 144.95 110.478 145.288C110.31 145.392 110.143 145.502 109.924 145.642C109.842 145.831 109.963 146.045 110.089 146.245C110.334 146.632 110.595 147.007 110.851 147.385C110.942 147.52 111.04 147.653 111.147 147.807C112.699 146.84 114.223 145.889 115.733 144.95C116.164 145.248 116.4 145.651 116.642 146.05C116.735 146.203 116.791 146.392 116.912 146.516C117.124 146.728 117.183 146.961 117.124 147.261C117.092 147.271 117.033 147.273 116.994 147.303C116.299 147.842 115.542 148.27 114.782 148.706C114.088 149.105 113.433 149.571 112.755 149.997C112.17 150.363 111.578 150.713 110.986 151.069C110.816 151.172 110.634 151.26 110.478 151.381C110.345 151.484 110.21 151.505 110.056 151.493C109.87 151.477 109.861 151.312 109.779 151.19C109.026 150.09 108.358 148.939 107.621 147.828C107.253 147.273 106.915 146.688 106.57 146.115C106.232 145.553 105.88 144.999 105.519 144.449C105.191 143.95 104.892 143.428 104.578 142.918C104.272 142.424 103.97 141.927 103.657 141.438C103.541 141.256 103.483 141.042 103.329 140.874C103.212 140.746 103.315 140.44 103.501 140.315C103.757 140.144 104.025 139.991 104.289 139.828C105.03 139.368 105.776 138.914 106.51 138.446C106.834 138.238 107.181 138.08 107.479 137.823C107.791 137.555 108.185 137.385 108.542 137.169C108.975 136.905 109.413 136.644 109.84 136.369C110.166 136.16 110.467 136.178 110.674 136.477C110.975 136.91 111.212 137.388 111.541 137.805C111.45 137.994 111.727 138.119 111.625 138.32C111.548 138.469 111.443 138.558 111.301 138.644C110.728 138.996 110.164 139.368 109.595 139.73C109.103 140.042 108.609 140.347 108.115 140.657C107.777 140.869 107.437 141.079 107.069 141.307H107.074Z" fill="white"/>
<path d="M119.408 135.209C119.604 135.046 119.786 134.915 119.947 134.762C120.772 133.983 121.592 133.2 122.41 132.415C122.561 132.268 122.738 132.184 122.946 132.161C123.065 132.147 123.193 132.152 123.244 132.278C123.3 132.42 123.391 132.494 123.524 132.566C123.622 132.62 123.652 132.783 123.738 132.876C123.95 133.105 124.176 133.317 124.393 133.538C124.668 133.82 124.675 133.99 124.412 134.256C124.043 134.629 123.715 135.058 123.291 135.354C122.662 135.792 122.261 136.474 121.587 136.85C121.597 137.031 121.408 137.036 121.298 137.178C121.433 137.358 121.564 137.558 121.725 137.731C121.974 138.001 122.247 138.25 122.501 138.518C122.613 138.637 122.703 138.775 122.813 138.917C123.051 138.917 123.246 138.793 123.428 138.621C124.193 137.891 124.945 137.15 125.731 136.444C126.068 136.141 126.43 135.862 126.749 135.535C126.924 135.358 127.15 135.372 127.341 135.559C127.784 135.994 128.219 136.435 128.66 136.875V137.504C128.003 137.938 127.511 138.609 126.826 139.061C126.819 139.297 126.563 139.278 126.458 139.42C126.343 139.574 126.192 139.702 126.05 139.835C125.274 140.574 124.503 141.322 123.715 142.046C123.389 142.347 123.018 142.601 122.645 142.897C122.445 142.72 122.235 142.561 122.053 142.373C121.308 141.599 120.534 140.844 119.842 140.024C119.446 139.553 119.003 139.136 118.595 138.684C118.343 138.406 118.113 138.11 117.859 137.835C117.595 137.551 117.269 137.316 117.048 137.003C116.689 136.498 116.181 136.134 115.813 135.652C115.354 135.053 114.787 134.566 114.284 134.016C114.135 133.853 114.016 133.659 113.869 133.461C114.002 133.049 114.338 132.776 114.675 132.506C114.748 132.45 114.836 132.413 114.901 132.35C115.724 131.569 116.521 130.76 117.374 130.015C117.908 129.546 118.406 129.048 118.926 128.57C119.252 128.269 119.62 128.011 119.984 127.722C120.627 128.178 121.158 128.733 121.611 129.365C121.664 129.439 121.683 129.588 121.646 129.672C121.531 129.929 121.361 130.152 121.105 130.294C121.026 130.339 120.946 130.39 120.879 130.453C120.1 131.189 119.324 131.93 118.544 132.664C118.367 132.83 118.227 133.028 117.98 133.13C117.775 133.214 117.777 133.422 117.936 133.599C118.411 134.123 118.891 134.643 119.406 135.204L119.408 135.209Z" fill="white"/>
<path d="M10.9435 29.7838C10.9435 29.6672 10.9551 29.5484 10.9435 29.4342C10.8736 28.8982 11.0507 28.3995 11.1928 27.9055C11.2954 27.549 11.3816 27.1761 11.617 26.8592C11.8337 26.5679 11.9712 26.2277 12.1926 25.934C12.5398 25.475 13.2319 24.8061 13.6607 24.4426C14.0335 24.128 14.4483 23.9206 14.8794 23.7225C15.511 23.4359 16.1402 23.1702 16.8626 23.1563C17.1911 23.1493 17.5197 23.0351 17.8623 23.0514C18.2771 23.0724 18.5171 23.2774 18.5101 23.6759C18.5055 23.9719 18.5521 24.2632 18.4169 24.5661C18.3237 24.7759 18.4029 25.0625 18.3983 25.3142C18.3936 25.6567 18.2165 25.8688 17.8879 25.8385C17.4638 25.7989 17.0676 25.9364 16.6575 25.9783C16.4035 26.0039 16.1518 26.1577 15.9211 26.2952C15.5599 26.5096 15.1964 26.731 14.8748 26.9967C14.5112 27.2973 14.2736 27.8472 13.945 28.4671C13.7609 28.8143 13.7562 29.1383 13.7399 29.4901C13.7166 30.0168 13.7702 30.5271 13.9636 31.0282C14.0522 31.2589 14.213 31.4313 14.3155 31.6387C14.5835 32.1817 15.0169 32.5848 15.4597 32.96C15.8722 33.3072 16.3895 33.51 16.9162 33.6428C17.2611 33.7314 17.6106 33.8083 17.9718 33.7617C18.8224 33.6545 19.6264 33.4354 20.2439 32.7852C20.5305 32.4823 20.8545 32.2166 21.0712 31.8485C21.2343 31.5711 21.5069 30.7299 21.5442 30.413C21.5932 29.9842 21.691 29.5601 21.6607 29.1219C21.6491 28.9612 21.9124 28.7794 22.1571 28.7607C22.3505 28.7444 22.5463 28.7701 22.7397 28.7538C23.0357 28.7305 23.3223 28.7701 23.6299 28.6582C24.0424 28.5067 24.315 28.7677 24.3337 29.2058C24.3406 29.3527 24.2801 29.5134 24.4409 29.63C24.4688 29.6509 24.4711 29.7558 24.4455 29.7954C24.2544 30.0937 24.357 30.4246 24.3337 30.7392C24.3173 30.9792 24.1892 31.189 24.1985 31.4476C24.2055 31.6644 24.0773 31.8951 23.9771 32.1048C23.8769 32.3145 23.8699 32.5569 23.6835 32.7456C23.5716 32.8598 23.5227 33.0626 23.4411 33.221C23.1662 33.7663 22.7793 34.2184 22.3482 34.6262C21.5838 35.3486 20.7286 35.9312 19.6916 36.2155C19.3933 36.2971 19.13 36.4672 18.7968 36.4486C18.5031 36.4322 18.2258 36.5977 17.9136 36.5651C17.5873 36.5301 17.2378 36.621 16.9301 36.5394C16.6505 36.4649 16.3732 36.4812 16.1029 36.4322C15.8605 36.388 15.6275 36.2714 15.3968 36.1759C14.6884 35.8846 14.0359 35.5187 13.4137 35.0457C12.6889 34.4957 12.1623 33.8059 11.7311 33.0579C11.4072 32.494 11.1066 31.8741 11.0553 31.1866C11.039 30.9489 10.9015 30.7345 10.9365 30.4782C10.9668 30.2498 10.9435 30.0145 10.9435 29.7814V29.7838Z" fill="white"/>
<path d="M142.985 46.4267C142.985 46.6994 142.99 46.9697 142.985 47.2424C142.978 47.536 142.787 47.7387 142.5 47.7364C142.281 47.7364 142.069 47.7457 141.841 47.6432C141.631 47.55 141.345 47.6362 141.093 47.6175C140.932 47.6059 140.767 47.5639 140.62 47.501C140.501 47.4498 140.401 47.3542 140.422 47.1888C140.436 47.0746 140.422 46.9557 140.424 46.8392C140.438 46.1261 140.238 45.2499 139.956 44.4716C139.821 44.0987 139.278 43.621 138.928 43.5441C138.296 43.4066 137.635 43.9193 137.639 44.5974C137.642 45.1054 137.53 45.6204 137.735 46.1238C137.802 46.2892 137.747 46.5083 137.747 46.7017C137.747 47.3612 137.747 48.0207 137.747 48.6802C137.749 49.5424 137.378 50.2648 136.915 50.9546C136.437 51.2226 136.083 51.684 135.544 51.8588C135.339 51.9264 135.127 52.0429 134.924 52.0312C134.437 52.0056 133.929 52.178 133.459 51.9264C133.174 51.9869 132.983 51.7399 132.739 51.7026C132.461 51.6607 132.289 51.4719 132.067 51.3484C131.245 50.8824 130.709 50.16 130.24 49.37C129.972 48.9179 129.781 48.4308 129.637 47.9345C129.551 47.6409 129.548 47.3169 129.483 47.007C129.439 46.7926 129.537 46.5526 129.364 46.3568C129.346 46.3359 129.355 46.2799 129.364 46.2426C129.402 46.0446 129.45 45.8488 129.476 45.6507C129.499 45.462 129.45 45.2499 129.527 45.0891C129.59 44.954 129.602 44.8351 129.59 44.7093C129.572 44.4972 129.639 44.3504 129.795 44.2059C129.97 44.0451 130.224 44.0684 130.331 44.1407C130.539 44.2828 130.739 44.1966 130.935 44.2409C131.131 44.2852 131.312 44.4017 131.527 44.3551C131.667 44.3248 131.769 44.4226 131.888 44.4599C132.123 44.5322 132.156 44.6743 132.158 44.8841C132.165 45.3385 131.993 45.7696 132.03 46.2333C132.074 46.8066 132.314 47.3286 132.389 47.8925C132.753 48.3213 133.011 48.8433 133.533 49.1323C133.978 49.377 134.743 49.2604 134.964 48.545C135.02 48.3633 135.064 48.1931 135.067 48.0067C135.067 47.5989 135.139 47.1771 135.053 46.7879C134.869 45.9677 135.011 45.1474 134.948 44.3318C134.904 43.7562 135.113 43.2458 135.344 42.7495C135.495 42.4232 135.682 42.0923 135.924 41.8313C136.157 41.5796 136.467 41.3862 136.77 41.2161C137.465 40.8269 138.224 40.6894 139.017 40.7454C139.327 40.9528 139.723 40.8386 140.049 41.0763C140.322 41.2767 140.65 41.4165 140.913 41.6425C141.771 42.3766 142.426 43.4089 142.752 44.5368C142.838 44.8328 142.941 45.1287 142.978 45.4294C143.018 45.7533 142.987 46.0888 142.987 46.4174L142.985 46.4267Z" fill="white"/>
<path d="M97.913 145.949C98.2043 146.699 98.4676 147.424 98.7519 148.139C98.9966 148.755 99.2157 149.384 99.5093 149.978C99.7097 150.384 99.8029 150.824 99.9963 151.232C100.118 151.488 100.313 151.745 100.346 152.01C100.406 152.5 100.684 152.884 100.84 153.324C101.043 153.898 101.229 154.478 101.502 155.03C101.583 155.198 101.513 155.44 101.513 155.669C100.735 155.981 99.9544 156.296 99.1644 156.613C98.7939 156.368 98.6913 155.937 98.5119 155.566C98.3558 155.245 98.2812 154.886 98.1507 154.553C98.0202 154.219 97.8501 153.9 97.7312 153.562C97.624 153.257 97.5378 152.947 97.4003 152.651C96.9506 151.675 96.5777 150.663 96.1979 149.659C95.881 148.822 95.4731 148.016 95.2401 147.144C95.2308 147.114 95.1958 147.091 95.1492 147.035C94.8766 147.14 94.5969 147.266 94.3056 147.354C93.8069 147.508 93.3479 147.757 92.8468 147.911C92.7 147.955 92.5625 147.969 92.4181 147.995C92.2503 148.025 92.1687 147.911 92.1035 147.799C92.0126 147.645 91.903 147.485 91.8751 147.315C91.8168 146.949 91.6444 146.632 91.5069 146.301C91.2995 145.804 91.3344 145.648 91.8192 145.425C92.1943 145.252 92.5835 145.115 92.9657 144.966C93.0822 144.919 93.2174 144.907 93.3222 144.842C93.7533 144.569 94.2614 144.49 94.7181 144.276C95.2681 144.017 95.8507 143.831 96.4216 143.614C96.8737 143.442 97.3328 143.283 97.7802 143.099C98.16 142.943 98.5236 142.74 98.9221 142.626C99.0083 142.6 99.0852 142.549 99.1691 142.521C99.7423 142.342 99.8682 142.384 100.118 142.915C100.33 143.369 100.409 143.877 100.691 144.308C100.807 144.488 100.709 144.698 100.535 144.861C100.379 145.005 100.183 145.031 99.9894 145.094C99.5489 145.241 99.1318 145.457 98.703 145.639C98.442 145.749 98.174 145.844 97.9107 145.944L97.913 145.949Z" fill="white"/>
<path d="M135.547 112.38C135.475 112.625 135.563 112.874 135.442 113.149C135.304 113.462 135.155 113.741 134.915 113.974C134.689 114.193 134.489 114.426 134.132 114.473C133.892 114.506 133.697 114.697 133.415 114.704C132.911 114.718 132.482 114.531 132.068 114.303C131.271 113.865 130.97 112.93 130.996 112.266C131.017 111.744 131.173 111.22 131.529 110.875C131.893 110.525 132.298 110.113 132.902 110.15C133.275 109.927 133.652 110.162 134.023 110.174C134.26 110.183 134.514 110.395 134.717 110.567C135.055 110.856 135.33 111.194 135.472 111.644C135.551 111.896 135.489 112.133 135.544 112.378L135.547 112.38ZM131.459 112.436C131.289 112.765 131.622 113.021 131.718 113.329C131.786 113.548 132.056 113.737 132.277 113.87C132.585 114.051 132.907 114.233 133.289 114.231C133.857 114.226 134.291 113.925 134.71 113.595C134.859 113.476 135.209 112.581 135.186 112.401C135.113 111.868 134.899 111.388 134.554 110.982C134.349 110.742 133.573 110.463 133.249 110.507C132.198 110.654 131.48 111.248 131.464 112.436H131.459Z" fill="white"/>
<path d="M84.7676 109.689C83.6886 109.689 82.5631 109.689 81.4375 109.689C80.9155 109.689 80.6126 109.47 80.4611 108.965C80.2747 108.345 80.0766 107.727 79.8762 107.112C79.515 106 79.1678 104.884 78.7833 103.78C78.6994 103.542 78.7064 103.288 78.5595 103.055C78.4314 102.85 78.3218 102.596 78.3615 102.325C78.0399 101.913 78.0492 101.375 77.8325 100.913C77.6554 100.536 77.5878 100.088 77.434 99.6828C77.2242 99.1282 77.1683 98.5223 76.8607 98.0003C76.9097 97.5016 76.4832 97.1265 76.4995 96.6371C76.1919 96.2176 76.1919 95.684 75.9775 95.2226C75.8074 94.859 75.7328 94.4372 75.5907 94.0457C75.3763 93.4538 75.2877 92.82 74.9871 92.2584C75.0337 91.8133 74.7261 91.4707 74.6329 91.0652C74.5397 90.6621 74.4628 90.2356 74.2717 89.8791C74.0899 89.5412 74.041 89.2173 74.055 88.8607C74.0643 88.6021 74.2577 88.3877 74.5047 88.3853C75.7468 88.3807 76.9889 88.3807 78.231 88.3853C78.5689 88.3853 78.8648 88.7046 78.944 89.1287C79.0582 89.7346 79.2913 90.3079 79.4404 90.9044C79.6385 91.6898 79.9228 92.4541 80.1209 93.2418C80.1931 93.5307 80.2094 93.85 80.4075 94.1133C80.4751 94.2019 80.4075 94.3883 80.4658 94.4932C80.6172 94.7565 80.6009 95.0594 80.7104 95.3251C80.8176 95.5791 80.8293 95.8588 80.9318 96.1058C81.046 96.3784 81.0693 96.686 81.1812 96.933C81.3746 97.3688 81.4329 97.8326 81.6053 98.2707C81.808 98.7857 81.9246 99.3403 82.0714 99.8809C82.1226 100.07 82.118 100.312 82.2415 100.447C82.4046 100.624 82.1995 100.89 82.4349 101.013C82.5281 101.421 82.6213 101.827 82.7169 102.246C82.9755 102.23 82.9942 101.997 83.0082 101.855C83.0804 101.179 83.3437 100.552 83.4975 99.8972C83.6677 99.1772 83.8611 98.4594 84.0825 97.7533C84.2339 97.2686 84.3062 96.7676 84.4716 96.2875C84.6371 95.8121 84.7256 95.3088 84.8771 94.8264C84.9633 94.5514 85.0356 94.2695 85.1031 93.9898C85.25 93.3723 85.4177 92.7617 85.5785 92.1488C85.7393 91.536 85.8908 90.9208 86.0446 90.3055C86.287 90.1447 86.0912 89.8768 86.2007 89.6717C86.3009 89.4853 86.3476 89.2639 86.3895 89.0541C86.485 88.5904 86.7064 88.39 87.1841 88.3877C88.368 88.383 89.5518 88.383 90.7356 88.3877C91.1597 88.3877 91.3927 88.5485 91.5116 88.9516C91.6141 89.3012 91.6724 89.6624 91.7493 90.0189C91.7563 90.0562 91.7353 90.1051 91.7516 90.1331C91.9264 90.4034 91.9381 90.718 92.0173 91.0163C92.0919 91.2913 92.1827 91.5686 92.248 91.8506C92.2993 92.0789 92.3575 92.3096 92.4554 92.5217C92.5533 92.7361 92.5393 92.9551 92.5742 93.1742C92.6045 93.363 92.7537 93.5307 92.791 93.7218C92.8888 94.2229 93.031 94.7099 93.1498 95.2039C93.2127 95.4673 93.3106 95.7213 93.3782 95.9823C93.4644 96.3155 93.5204 96.6581 93.6182 96.989C93.7091 97.3036 93.8909 97.5949 93.8466 97.9421C94.1053 98.4874 94.1193 99.1096 94.3639 99.6479C94.4688 99.8786 94.2847 100.163 94.5457 100.331C94.7065 100.962 94.8673 101.594 95.0537 102.318C95.1423 102.148 95.2029 102.053 95.2425 101.948C95.5524 101.121 95.7575 100.261 96.0115 99.4172C96.2818 98.52 96.6011 97.6298 96.7572 96.6977C97.0299 96.2363 97.0322 95.691 97.214 95.1993C97.412 94.6586 97.5006 94.076 97.6963 93.5354C97.9993 92.7058 98.1344 91.8249 98.498 91.0163C98.4234 90.7786 98.6355 90.5968 98.6215 90.3685C98.6075 90.1494 98.7963 90.0073 98.8429 89.8232C98.8941 89.6111 98.8172 89.3734 98.9664 89.173C98.985 89.1474 98.9594 89.0938 98.971 89.0588C99.1551 88.5391 99.3695 88.3923 99.9381 88.3923C101.045 88.3923 102.15 88.3923 103.257 88.3923C103.72 88.3923 103.855 88.5368 103.86 89.0052C103.865 89.3617 103.76 89.6903 103.629 90.0166C103.536 90.2496 103.487 90.5013 103.389 90.732C103.18 91.2307 103.026 91.7527 102.874 92.263C102.662 92.9715 102.366 93.6542 102.222 94.3836C102.18 94.591 102.063 94.7845 101.996 94.9872C101.835 95.4649 101.677 95.9426 101.532 96.425C101.418 96.8049 101.264 97.1684 101.173 97.5576C101.089 97.9234 100.947 98.2777 100.831 98.6365C100.707 99.0117 100.586 99.3892 100.46 99.7644C100.381 100.002 100.302 100.242 100.213 100.477C100.122 100.715 99.9941 100.944 100.015 101.212C99.7144 101.617 99.768 102.151 99.5187 102.577C99.3532 102.859 99.3299 103.195 99.2204 103.5C98.9757 104.173 98.738 104.856 98.5469 105.548C98.4351 105.951 98.2207 106.317 98.1577 106.727C98.0972 107.126 97.9294 107.487 97.8035 107.862C97.6707 108.256 97.5425 108.65 97.4353 109.051C97.3678 109.3 97.1184 109.503 96.9716 109.699H93.0962C92.77 109.433 92.6278 109.107 92.5183 108.704C92.4088 108.298 92.2806 107.879 92.1221 107.476C91.973 107.098 91.8914 106.681 91.7819 106.28C91.6724 105.877 91.5093 105.49 91.423 105.092C91.3345 104.677 91.1411 104.304 91.0595 103.901C90.8894 103.064 90.6028 102.267 90.3511 101.456C90.0808 100.578 89.913 99.6689 89.5425 98.823C89.5821 98.4944 89.3817 98.2241 89.3234 97.9281C89.2628 97.6205 89.1207 97.3455 89.0647 97.0402C89.0484 96.9447 88.9622 96.8631 88.8667 96.7746C88.9715 97.2383 88.587 97.5692 88.5847 98.0073C88.5847 98.2101 88.4728 98.4268 88.3656 98.6086C88.2421 98.8206 88.347 99.1003 88.2398 99.2517C87.9112 99.7178 88.058 100.338 87.6922 100.776C87.6386 101.249 87.4451 101.685 87.3449 102.141C87.2704 102.482 87.1632 102.813 87.0606 103.134C86.8159 103.908 86.5806 104.684 86.3895 105.474C86.3336 105.7 86.224 105.91 86.1635 106.136C86.0469 106.571 85.8931 106.998 85.8069 107.445C85.7254 107.872 85.5249 108.261 85.4387 108.694C85.3618 109.072 85.2103 109.487 84.7629 109.701L84.7676 109.689Z" fill="white"/>
<path d="M46.3425 107.095C46.6501 106.699 46.9601 106.326 47.2397 105.932C47.6755 105.322 48.0879 104.692 48.5191 104.077C49.1622 103.159 49.8031 102.239 50.4672 101.339C51.1687 100.386 51.8678 99.4259 52.5739 98.4751C53.0842 97.7876 53.6318 97.1165 54.0327 96.3498C54.8156 95.5272 55.305 94.4879 56.0414 93.628C56.384 93.2271 56.624 92.7424 56.9409 92.3183C57.2811 91.8592 57.6354 91.4118 57.9476 90.9318C58.2482 90.468 58.6025 90.0369 58.9287 89.5895C59.234 89.1723 59.5183 88.7412 59.8375 88.3381C60.3083 87.7415 60.7347 87.11 61.1658 86.4924C61.6249 85.8376 62.112 85.1944 62.5337 84.507C62.8623 83.9733 63.2865 83.4979 63.6593 82.9923C64.0997 82.4004 64.5332 81.8038 64.9666 81.2049C65.2346 80.832 65.491 80.4522 65.759 80.0793C66.3742 79.2264 67.0033 78.3828 67.5953 77.5183C68.08 76.8099 68.5833 76.1084 69.0727 75.4047C69.4409 74.8757 69.8627 74.3676 70.2262 73.834C70.641 73.2281 71.1094 72.6642 71.4986 72.0396C71.918 71.3685 72.4424 70.7603 72.9154 70.1218C73.0902 69.8864 73.2347 69.6301 73.4141 69.397C73.8406 68.8401 74.1995 68.2388 74.6422 67.6912C74.9755 67.2764 75.2551 66.822 75.5627 66.3862C75.9146 65.8898 76.2641 65.3958 76.6253 64.9041C77.0728 64.2936 77.5342 63.6923 77.9816 63.0771C78.4687 62.4083 78.944 61.7302 79.4241 61.0544C79.8063 60.5137 80.2048 59.9848 80.566 59.4301C80.9085 58.9058 81.3 58.4188 81.6496 57.9014C81.9712 57.4284 82.3324 56.9809 82.6656 56.5149C83.0175 56.0232 83.3507 55.5175 83.7049 55.0258C84.2456 54.2777 84.8188 53.553 85.3292 52.784C85.4807 52.5556 85.6834 52.3925 85.8442 52.1851C86.0003 51.9847 86.1961 51.9847 86.3965 52.1082C86.5363 52.1944 86.6622 52.3039 86.8043 52.3902C87.3403 52.7141 87.8297 53.1009 88.3377 53.4668C88.6523 53.6928 88.9692 53.9212 89.2675 54.1705C89.3886 54.2731 89.5518 54.3616 89.5425 54.5807C89.5331 54.8254 89.5471 55.0677 89.3887 55.2751C88.8131 56.0465 88.2328 56.8131 87.6619 57.5868C87.3473 58.0156 87.0467 58.4584 86.7414 58.8942C86.4035 59.3742 86.0702 59.8589 85.7253 60.3343C85.3758 60.812 85.0053 61.2758 84.6604 61.7558C84.3062 62.2475 83.9753 62.7532 83.628 63.2472C83.4276 63.5339 83.2156 63.8135 83.0128 64.0978C82.6283 64.6361 82.2555 65.1838 81.857 65.7151C81.2045 66.5866 80.5799 67.4791 79.9368 68.3577C79.5057 68.9473 79.1142 69.5765 78.6714 70.1521C78.0282 70.9863 77.4829 71.8858 76.8397 72.7201C76.1756 73.5823 75.5347 74.4679 74.9195 75.3627C74.2134 76.3927 73.4677 77.3948 72.7407 78.4085C72.0858 79.3243 71.4753 80.2751 70.7529 81.1466C70.4266 81.5404 70.1819 81.9995 69.865 82.4073C69.3687 83.0459 68.9096 83.717 68.4412 84.3765C68.0171 84.9754 67.6023 85.5813 67.1781 86.1825C66.8472 86.6486 66.5116 87.11 66.1761 87.5714C65.6564 88.2868 65.1204 88.9929 64.6241 89.7246C64.2745 90.242 63.8923 90.736 63.5381 91.251C63.1 91.8895 62.627 92.5047 62.1725 93.1316C61.816 93.6233 61.4711 94.122 61.1122 94.6137C60.7743 95.0774 60.4225 95.5295 60.0846 95.9933C59.6837 96.5432 59.3412 97.1328 58.9054 97.6641C58.6188 98.0137 58.3904 98.4191 58.1131 98.7873C57.7146 99.3163 57.3441 99.8663 56.9572 100.402C56.5261 101.001 56.0834 101.591 55.6546 102.192C55.3027 102.684 54.9625 103.187 54.6106 103.681C54.3006 104.117 53.9791 104.543 53.6668 104.979C53.2799 105.517 52.8978 106.058 52.5133 106.596C51.7978 107.603 51.1244 108.642 50.3344 109.595C50.2901 109.649 50.2901 109.735 50.2482 109.791C50.0431 110.066 49.7868 110.124 49.4582 109.947C49.1552 109.784 48.8523 109.612 48.575 109.411C47.9435 108.957 47.3422 108.463 46.7014 108.025C46.4427 107.848 46.3192 107.664 46.3402 107.363C46.3472 107.267 46.3402 107.17 46.3402 107.093L46.3425 107.095Z" fill="white"/>
<path d="M54.6601 73.3567C54.2732 73.3567 53.8841 73.3567 53.4972 73.3567C53.1057 73.3567 52.7375 73.2052 52.36 73.1609C51.8613 73.1027 51.4046 72.9325 50.9478 72.7671C50.3233 72.541 49.7081 72.2917 49.1441 71.9212C48.762 71.6695 48.3542 71.4598 48.0116 71.1475C47.7786 70.9354 47.5199 70.7513 47.2659 70.5626C47.0072 70.3715 46.8301 70.1105 46.6204 69.8751C46.2708 69.4813 45.9539 69.0688 45.6393 68.6494C45.2991 68.195 44.6746 67.095 44.4951 66.5031C44.4019 66.1932 44.2364 65.9112 44.1968 65.5733C44.1619 65.2774 44.0174 64.9931 43.9218 64.7018C43.9102 64.6668 43.9032 64.6295 43.9009 64.5946C43.8613 64.0679 43.8077 63.5413 43.789 63.0123C43.7704 62.4903 43.7261 61.9566 43.8053 61.4439C43.8589 61.0897 43.8193 60.7145 43.9242 60.3906C44.0314 60.0597 44.071 59.7195 44.1805 59.3932C44.29 59.0693 44.332 58.7104 44.4974 58.4192C44.7981 57.8855 45.0381 57.3216 45.3597 56.7926C45.8723 55.9513 46.4829 55.2033 47.189 54.5298C47.7949 53.9519 48.4917 53.4858 49.1744 53.0034C49.5892 52.9615 49.8712 52.6376 50.2417 52.4908C50.589 52.3509 50.9898 52.3253 51.2834 52.0573C51.7448 52.1272 52.148 51.8779 52.5698 51.78C52.9869 51.6821 53.4087 51.7311 53.8258 51.6029C54.215 51.484 54.6787 51.526 55.0959 51.5889C55.9138 51.7078 56.7481 51.6775 57.5497 51.9804C57.9482 52.1296 58.3653 52.267 58.7801 52.3766C59.0551 52.4488 59.2648 52.6166 59.5165 52.7145C60.1317 52.9568 61.0848 53.6652 61.5439 54.0055C61.9308 54.2921 62.2617 54.6277 62.5972 54.9633C63.4641 55.8325 64.1143 56.8532 64.6293 57.9624C64.874 58.4891 65.1606 59.5773 65.3517 60.2858C65.6686 61.4579 65.4985 62.6324 65.5614 63.8023C65.347 64.4944 65.3028 65.2238 65.0488 65.9159C64.846 66.4728 64.6526 67.0414 64.3799 67.5588C63.9954 68.2882 63.569 69.0059 62.9701 69.5955C62.6998 69.8612 62.4807 70.1688 62.1941 70.4251C61.7117 70.8585 60.973 71.4784 60.3228 71.8373C60.0222 72.0027 59.7193 72.1612 59.421 72.3313C58.8081 72.6832 58.1183 72.837 57.4705 73.098C57.2607 73.1819 57.0044 73.1469 56.7667 73.2215C56.4894 73.3101 56.1818 73.3264 55.8882 73.345C55.5782 73.3637 55.2683 73.3497 54.9584 73.3497H54.6671L54.6601 73.3567ZM54.7044 55.97C54.1987 56.0212 53.665 55.9886 53.192 56.1447C52.5674 56.3498 51.9079 56.5106 51.3673 56.9347C51.0364 57.1957 50.6169 57.3705 50.3536 57.6804C50.1602 57.9088 49.9132 58.1022 49.764 58.3586C49.3679 59.0437 48.9065 59.6939 48.7596 60.5048C48.7084 60.7845 48.5895 61.0571 48.5569 61.3484C48.5219 61.663 48.4404 61.9776 48.452 62.2899C48.4637 62.6231 48.3052 62.982 48.5569 63.2896C48.5266 63.6508 48.5686 64.005 48.6781 64.3452C48.8319 64.8229 48.9531 65.324 49.1931 65.7597C49.5054 66.3283 49.8969 66.8573 50.3746 67.3071C50.6076 67.5261 50.8453 67.7429 51.1086 67.92C51.4675 68.16 51.8404 68.393 52.2342 68.5725C52.7119 68.7915 54.2429 69.0618 54.7137 69.0409C54.9327 69.0316 55.1448 68.9546 55.3638 68.9337C55.5852 68.9104 55.7996 68.8801 56.0187 68.8381C56.2867 68.7845 56.5803 68.7705 56.811 68.6354C57.0463 68.4979 57.3679 68.5352 57.5381 68.2765C57.855 68.2905 58.0111 68.0109 58.2442 67.8757C59.0761 67.3933 59.6307 66.6383 60.0758 65.818C60.3857 65.2494 60.6141 64.6458 60.7003 63.977C60.7609 63.5249 60.8984 63.0799 60.9054 62.6115C60.9147 62.0079 60.7702 61.4323 60.684 60.8427C60.5792 60.1389 60.2599 59.5424 59.9313 58.9388C59.64 58.4028 59.2159 57.9741 58.7848 57.5523C58.3444 57.1235 57.9226 56.8928 57.2188 56.5572C56.4195 56.175 55.5969 55.97 54.709 55.9676L54.7044 55.97Z" fill="white"/>
<path d="M133.69 112.029H134.629C134.573 112.173 134.534 112.285 134.487 112.392C134.42 112.548 134.305 112.616 134.131 112.602C133.944 112.588 133.755 112.599 133.522 112.69C133.625 112.77 133.723 112.856 133.83 112.928C133.933 112.996 134.047 113.047 134.201 113.128C134.063 113.292 133.958 113.415 133.856 113.536C133.471 113.438 133.154 113.229 132.812 113.08C132.481 112.937 132.136 112.819 131.912 112.52C132.073 112.185 132.166 111.863 132.374 111.572C132.546 111.329 132.725 111.213 132.989 111.206C133.273 111.197 133.48 111.376 133.634 111.586C133.702 111.677 133.672 111.837 133.692 112.029H133.69ZM133.115 111.954C133.077 111.921 133.04 111.889 133.003 111.856C132.893 111.912 132.753 111.94 132.686 112.029C132.625 112.108 132.648 112.248 132.625 112.42C132.795 112.357 132.923 112.348 132.984 112.278C133.056 112.196 133.073 112.063 133.112 111.952L133.115 111.954Z" fill="white"/>
</svg>
