<svg width="39" height="36" viewBox="0 0 39 36" fill="none" xmlns="http://www.w3.org/2000/svg">
<path fill-rule="evenodd" clip-rule="evenodd" d="M1.46043 32.016C0.989918 32.016 0.550667 31.7831 0.313066 31.4067C0.0723375 31.023 0.0731191 30.5483 0.313066 30.1675L8.38605 16.8857C6.17729 17.431 6.17104 17.4324 6.14056 17.4375C6.07413 17.4528 5.97096 17.4645 5.86701 17.4645C5.24799 17.4645 4.71651 17.075 4.57426 16.5165C4.49376 16.1969 4.5516 15.8678 4.7384 15.589C4.92598 15.3072 5.22142 15.1114 5.57 15.0379L10.8011 13.7805C10.9121 13.7543 11.0231 13.7412 11.1333 13.7412C11.3623 13.7412 11.5882 13.7973 11.7891 13.9014C12.1001 14.0732 12.3174 14.3346 12.4151 14.6447L13.8196 19.4652C14.001 20.1 13.6149 20.7516 12.9411 20.9518L12.8677 20.9737L12.7473 20.9861L12.6629 20.9875C12.605 20.9875 12.5496 20.9846 12.4933 20.978C11.8649 20.9496 11.3787 20.5936 11.2279 20.0738L10.6652 18.143L3.74266 29.5574H12.9841C13.7165 29.5574 14.312 30.1093 14.312 30.7871C14.312 31.4642 13.7165 32.016 12.9841 32.016H1.46043Z" fill="#79E071"/>
<path fill-rule="evenodd" clip-rule="evenodd" d="M28.156 15.9367L27.9098 15.9127L22.7998 14.6881C22.4379 14.5884 22.151 14.3714 21.9885 14.0853C21.8259 13.7992 21.7946 13.4738 21.8994 13.1665C22.1112 12.5491 22.8545 12.1851 23.5313 12.3744L25.5885 12.8687L19.8516 3.58972L15.4013 10.7836C15.0433 11.3435 14.2258 11.5481 13.62 11.2379C13.3098 11.0806 13.0854 10.82 12.9909 10.504C12.8971 10.1917 12.9416 9.86553 13.1167 9.58523L18.7152 0.593065C18.8371 0.400131 19.0106 0.245056 19.2193 0.140945C19.8141 -0.163381 20.6402 0.0426577 20.9873 0.590152L27.8746 11.6427L28.4068 9.86553C28.614 9.25833 29.2713 8.90232 29.945 9.03555C30.3038 9.11054 30.5976 9.30493 30.7836 9.58377C30.9665 9.85752 31.022 10.1808 30.9407 10.4924L29.5464 15.0405C29.4557 15.3456 29.2275 15.615 28.9211 15.7708C28.7343 15.8712 28.5077 15.9295 28.2794 15.9309C28.2685 15.9346 28.2122 15.9367 28.156 15.9367Z" fill="#79E071"/>
<mask id="mask0_129_1154" style="mask-type:alpha" maskUnits="userSpaceOnUse" x="16" y="18" width="23" height="18">
<path fill-rule="evenodd" clip-rule="evenodd" d="M16.7285 18.896H38.2697V35.592H16.7285V18.896Z" fill="white"/>
</mask>
<g mask="url(#mask0_129_1154)">
<path fill-rule="evenodd" clip-rule="evenodd" d="M21.8323 35.5922C21.4813 35.5922 21.1499 35.4656 20.9006 35.2355L17.1232 31.7838C16.8669 31.5465 16.7277 31.237 16.7285 30.9094C16.7301 30.5796 16.8708 30.2724 17.124 30.043L20.9022 26.5899C21.4055 26.1327 22.2614 26.1356 22.7616 26.5877C23.0171 26.8229 23.1563 27.1316 23.1563 27.4606C23.1563 27.7905 23.0164 28.0999 22.7624 28.3307L21.2641 29.6943H34.68L29.1706 20.7065C28.9963 20.4197 28.9548 20.0899 29.051 19.7753C29.1487 19.4586 29.3738 19.1973 29.6864 19.0393C30.307 18.7255 31.1292 18.9468 31.4715 19.5111L38.0939 30.303C38.3331 30.6837 38.3284 31.1613 38.0791 31.5421C37.8438 31.9054 37.41 32.134 36.9481 32.134H21.2648L22.7624 33.4962C23.0203 33.7343 23.1586 34.0444 23.1571 34.3742C23.1555 34.7018 23.0148 35.0091 22.7624 35.2377C22.5107 35.4663 22.1809 35.5922 21.8323 35.5922Z" fill="#79E071"/>
</g>
</svg>
