<svg width="113" height="111" viewBox="0 0 113 111" fill="none" xmlns="http://www.w3.org/2000/svg">
<path d="M67.7357 55.0784L51.4851 46.3202C50.8209 45.9449 48.5381 46.4226 48.5381 47.178V64.2557C48.5381 65.0062 50.8013 65.4839 51.4655 65.1281L68.4441 56.8086C69.1329 56.4382 68.4195 55.4634 67.7357 55.0784Z" fill="#79E071"/>
<path d="M56.9716 0C26.0301 0 0.948242 24.8465 0.948242 55.5024C0.948242 86.1535 26.0301 111.005 56.9765 111.005C87.9229 111.005 113.005 86.1584 113.005 55.5024C113 24.8465 87.9131 0 56.9716 0ZM90.7076 64.2265C90.7076 72.3267 84.0804 78.8916 75.9035 78.8916H38.0446C29.8676 78.8916 23.2405 72.3267 23.2405 64.2265V46.7735C23.2405 38.6733 29.8676 32.1084 38.0446 32.1084H75.9035C84.0804 32.1084 90.7076 38.6733 90.7076 46.7735V64.2265Z" fill="#79E071"/>
</svg>
